<?xml version="1.0" encoding="UTF-8"?>
<svg id="stars" xmlns="http://www.w3.org/2000/svg" viewBox="0 0 2288.87 2424.32">
  <defs>
    <style>
      .cls-1 {
        fill: gray;
      }

      .cls-2 {
        fill: #ccc;
      }

      .cls-3 {
        fill: #f2f2f2;
      }

      .cls-4 {
        fill: #b3b3b3;
      }

      .cls-5 {
        fill: #999;
      }
    </style>
  </defs>
  <polygon class="cls-5" points="82.95 114.63 87.24 115.56 83.08 117.47 83.31 122.06 80.52 118.64 76.36 120.55 78.79 116.53 76 113.12 80.29 114.05 82.72 110.04 82.95 114.63"/>
  <polygon class="cls-2" points="306.44 245.13 307.39 246.81 305.71 245.99 304.53 247.39 304.67 245.49 302.98 244.67 304.75 244.32 304.89 242.42 305.85 244.1 307.62 243.74 306.44 245.13"/>
  <polygon class="cls-3" points="205.51 51.76 205.21 51.68 205.5 51.58 205.47 51.28 205.67 51.52 205.96 51.41 205.8 51.66 206.01 51.9 205.7 51.82 205.54 52.06 205.51 51.76"/>
  <polygon class="cls-3" points="117.08 245.59 117.23 245.73 117.03 245.71 116.95 245.92 116.9 245.7 116.69 245.68 116.87 245.57 116.82 245.35 116.98 245.5 117.16 245.39 117.08 245.59"/>
  <ellipse class="cls-3" cx="45.54" cy="19.85" rx=".19" ry=".18" transform="translate(6.03 49.97) rotate(-60.88)"/>
  <path class="cls-1" d="M339.82,136.37c.84-.96.69-2.38-.35-3.18s-2.56-.68-3.41.28-.69,2.38.35,3.18,2.56.68,3.41-.28Z"/>
  <ellipse class="cls-3" cx="165.05" cy="156.75" rx=".54" ry=".58" transform="translate(-62.53 152.14) rotate(-42.36)"/>
  <polygon class="cls-3" points="493.78 145.03 497.41 142.39 495.94 146.5 499.43 148.87 495.03 149.04 493.57 153.14 492.32 149.14 487.92 149.3 491.55 146.66 490.3 142.66 493.78 145.03"/>
  <polygon class="cls-3" points="714.89 265.73 712.66 266.89 713.8 264.74 712.05 263.13 714.51 263.41 715.66 261.27 716.03 263.58 718.5 263.86 716.26 265.02 716.64 267.34 714.89 265.73"/>
  <polygon class="cls-4" points="618.54 53.5 618.07 53.62 618.39 53.26 618.14 52.88 618.58 53.05 618.9 52.69 618.86 53.15 619.3 53.31 618.83 53.43 618.79 53.88 618.54 53.5"/>
  <polygon class="cls-2" points="475.54 227.04 471.28 226.2 475.27 224.54 474.82 220.5 477.73 223.51 481.72 221.85 479.53 225.37 482.44 228.38 478.18 227.55 475.99 231.07 475.54 227.04"/>
  <path class="cls-4" d="M485.18,48.05c-.25-.35-.15-.81.22-1.03s.86-.12,1.11.23.15.81-.22,1.03-.86.12-1.11-.23Z"/>
  <ellipse class="cls-3" cx="722.26" cy="54.95" rx="1.18" ry="1.1" transform="translate(640.45 774.66) rotate(-87.87)"/>
  <path class="cls-4" d="M595.01,111.89c-.41-.41-1.1-.45-1.53-.07s-.44,1.02-.03,1.43,1.1.45,1.53.07.44-1.02.03-1.43Z"/>
  <polygon class="cls-3" points="679.36 117.48 676.43 115.52 679.93 115.52 680.86 112.36 682.1 115.53 685.6 115.53 682.86 117.48 684.1 120.65 681.17 118.69 678.43 120.64 679.36 117.48"/>
  <polygon class="cls-5" points="907.37 161.24 907.37 160.83 907.63 161.15 908.04 161.01 907.79 161.35 908.05 161.67 907.63 161.57 907.38 161.91 907.37 161.5 906.96 161.39 907.37 161.24"/>
  <polygon class="cls-2" points="1093.82 241 1092.59 239.99 1094.19 240.02 1094.78 238.43 1095.17 240.03 1096.77 240.06 1095.41 241.02 1095.81 242.62 1094.58 241.62 1093.23 242.58 1093.82 241"/>
  <polygon class="cls-3" points="1028.99 85.78 1030.83 84.2 1030.18 86.58 1032.1 87.88 1029.78 88.06 1029.13 90.45 1028.35 88.17 1026.03 88.34 1027.86 86.76 1027.07 84.48 1028.99 85.78"/>
  <polygon class="cls-3" points="952.49 273.93 952.94 272.37 953.47 273.84 955.07 273.68 953.8 274.74 954.34 276.21 953.02 275.4 951.75 276.46 952.21 274.9 950.89 274.09 952.49 273.93"/>
  <path class="cls-3" d="M857.18,34.65c.64-.64,1.63-.64,2.2,0s.53,1.68-.11,2.32-1.63.64-2.2,0-.53-1.68.11-2.32Z"/>
  <ellipse class="cls-1" cx="1116.59" cy="125.96" rx=".7" ry=".75" transform="translate(937.91 1235.33) rotate(-87.29)"/>
  <ellipse class="cls-3" cx="940.66" cy="180.22" rx="1.02" ry=".95" transform="translate(743.83 1117.55) rotate(-88.99)"/>
  <polygon class="cls-3" points="1218.94 100.68 1217.63 100.84 1218.58 99.99 1218 98.87 1219.18 99.46 1220.13 98.61 1219.9 99.83 1221.07 100.42 1219.76 100.58 1219.52 101.79 1218.94 100.68"/>
  <polygon class="cls-3" points="1437.51 244.84 1439.04 243.55 1438.48 245.49 1440.04 246.54 1438.13 246.69 1437.56 248.62 1436.95 246.77 1435.03 246.91 1436.56 245.63 1435.95 243.78 1437.51 244.84"/>
  <polygon class="cls-4" points="1336.22 64.78 1335.48 63.05 1337.17 63.98 1338.7 62.69 1338.21 64.56 1339.9 65.48 1337.91 65.71 1337.42 67.58 1336.68 65.85 1334.68 66.07 1336.22 64.78"/>
  <polygon class="cls-2" points="1290.26 226.18 1288.5 226.06 1289.95 225.06 1289.46 223.26 1290.85 224.45 1292.3 223.46 1291.71 225.19 1293.1 226.39 1291.34 226.26 1290.75 227.99 1290.26 226.18"/>
  <ellipse class="cls-4" cx="1231.55" cy="9.34" rx=".66" ry=".61" transform="translate(86.23 462.15) rotate(-22.01)"/>
  <path class="cls-3" d="M1529.54,62.95c-.63,1.17-.23,2.69.89,3.39s2.53.32,3.15-.85.23-2.69-.89-3.39-2.53-.32-3.15.85Z"/>
  <ellipse class="cls-4" cx="1302.48" cy="170.68" rx="1.04" ry=".97" transform="translate(891.55 1418.36) rotate(-79.24)"/>
  <polygon class="cls-3" points="1476.78 96.39 1477.83 98.54 1475.77 97.33 1474.12 98.85 1474.49 96.58 1472.43 95.37 1474.72 95.17 1475.09 92.9 1476.14 95.06 1478.43 94.86 1476.78 96.39"/>
  <polygon class="cls-5" points="1633.21 140.28 1631.51 140.45 1632.85 139.34 1632.26 137.82 1633.68 138.65 1635.02 137.54 1634.56 139.17 1635.98 140 1634.27 140.17 1633.8 141.8 1633.21 140.28"/>
  <polygon class="cls-2" points="1875.78 286.99 1876.49 286.18 1876.44 287.27 1877.5 287.71 1876.41 287.94 1876.36 289.02 1875.73 288.08 1874.64 288.31 1875.35 287.49 1874.72 286.55 1875.78 286.99"/>
  <polygon class="cls-3" points="1746.85 64.28 1745.36 65.73 1745.72 63.6 1743.9 62.49 1745.94 62.28 1746.3 60.16 1747.2 62.16 1749.25 61.95 1747.76 63.39 1748.67 65.39 1746.85 64.28"/>
  <polygon class="cls-3" points="1626.39 274.02 1627.2 273.97 1626.61 274.48 1626.96 275.21 1626.25 274.79 1625.66 275.29 1625.8 274.53 1625.09 274.11 1625.9 274.06 1626.04 273.29 1626.39 274.02"/>
  <ellipse class="cls-3" cx="1562.35" cy="49.78" rx="1.14" ry="1.07" transform="translate(928.78 1478.77) rotate(-67.91)"/>
  <path class="cls-1" d="M1912.81,111.24c.96-1.37.71-3.31-.56-4.33s-3.08-.73-4.04.64c-.96,1.37-.71,3.31.56,4.33s3.08.73,4.04-.64Z"/>
  <path class="cls-3" d="M1699.02,169.79c.09-.32-.08-.67-.4-.78s-.64.05-.73.37.08.67.4.78.64-.05.73-.37Z"/>
  <polygon class="cls-3" points="2029.92 121.21 2029.85 121.1 2029.97 121.15 2030.05 121.06 2030.04 121.18 2030.16 121.23 2030.04 121.25 2030.03 121.37 2029.96 121.27 2029.84 121.3 2029.92 121.21"/>
  <polygon class="cls-3" points="2229.88 216.49 2229.46 217.43 2229.21 216.4 2228.12 216.26 2229.05 215.76 2228.8 214.73 2229.63 215.46 2230.56 214.97 2230.14 215.91 2230.97 216.63 2229.88 216.49"/>
  <polygon class="cls-4" points="2163.89 39.63 2164 39.17 2164.17 39.63 2164.62 39.62 2164.27 39.91 2164.43 40.36 2164.05 40.09 2163.7 40.37 2163.82 39.91 2163.44 39.64 2163.89 39.63"/>
  <polygon class="cls-2" points="2012.95 266.23 2013.51 266.36 2012.96 266.58 2012.97 267.15 2012.62 266.72 2012.06 266.95 2012.4 266.46 2012.04 266.03 2012.6 266.16 2012.93 265.67 2012.95 266.23"/>
  <ellipse class="cls-4" cx="1992.56" cy="41.78" rx=".71" ry=".66" transform="translate(1484.2 1968.85) rotate(-76.42)"/>
  <path class="cls-3" d="M2233.87,83.49c.58.74,1.68.91,2.46.39s.94-1.55.37-2.29-1.68-.91-2.46-.39-.94,1.55-.37,2.29Z"/>
  <ellipse class="cls-4" cx="2058.73" cy="112.3" rx=".66" ry=".61" transform="translate(630.31 1599.11) rotate(-49.27)"/>
  <polygon class="cls-3" points="2178.82 156.28 2178.39 158.1 2177.72 156.32 2175.93 156.36 2177.3 155.21 2176.63 153.43 2178.15 154.5 2179.52 153.35 2179.09 155.16 2180.61 156.24 2178.82 156.28"/>
  <polygon class="cls-5" points="114.83 442.25 111.1 443.98 113.21 440.25 110.58 437.02 114.51 437.95 116.62 434.22 116.94 438.52 120.86 439.45 117.13 441.18 117.45 445.48 114.83 442.25"/>
  <polygon class="cls-2" points="302.79 579.01 301.77 584.9 299.37 579.49 293.84 580.25 297.9 576.14 295.5 570.73 300.4 573.6 304.45 569.49 303.43 575.37 308.33 578.25 302.79 579.01"/>
  <polygon class="cls-3" points="263.16 412.14 259.76 412.9 261.94 410.37 259.98 407.49 263.3 408.8 265.48 406.27 265.34 409.61 268.66 410.93 265.26 411.68 265.12 415.02 263.16 412.14"/>
  <polygon class="cls-3" points="143.29 632.81 142.65 632.02 143.61 632.24 144.13 631.33 144.21 632.38 145.17 632.6 144.25 633.03 144.33 634.08 143.69 633.3 142.77 633.73 143.29 632.81"/>
  <path class="cls-3" d="M47.35,355.35c.25.6-.07,1.27-.71,1.49s-1.36-.09-1.61-.69.07-1.27.71-1.49,1.36.09,1.61.69Z"/>
  <ellipse class="cls-1" cx="379.37" cy="415.64" rx="1.62" ry="1.74" transform="translate(-50.89 778.34) rotate(-87.74)"/>
  <ellipse class="cls-3" cx="147.48" cy="526.73" rx=".38" ry=".36" transform="translate(-352.71 305.34) rotate(-50.48)"/>
  <polygon class="cls-3" points="456.23 456.15 456.1 456.72 455.9 456.18 455.35 456.22 455.77 455.84 455.57 455.3 456.03 455.61 456.45 455.23 456.32 455.8 456.78 456.11 456.23 456.15"/>
  <polygon class="cls-3" points="734.48 576.92 734.42 575.63 735.28 576.63 736.57 576.17 735.81 577.25 736.67 578.24 735.34 577.91 734.58 578.99 734.52 577.71 733.19 577.38 734.48 576.92"/>
  <polygon class="cls-4" points="564.14 345.55 563.03 348.08 562.33 345.34 559.41 344.98 561.9 343.64 561.2 340.9 563.44 342.81 565.93 341.47 564.82 343.99 567.05 345.91 564.14 345.55"/>
  <polygon class="cls-2" points="489.41 585.22 489.35 586.89 488.36 585.55 486.68 586.09 487.76 584.73 486.77 583.39 488.42 583.89 489.5 582.53 489.44 584.19 491.09 584.69 489.41 585.22"/>
  <ellipse class="cls-4" cx="466.15" cy="348.7" rx=".27" ry=".25" transform="translate(-107.83 251.55) rotate(-27.19)"/>
  <path class="cls-3" d="M724.27,369.81c.99.28,2.08-.28,2.42-1.25s-.18-1.97-1.17-2.25-2.08.28-2.42,1.25.18,1.97,1.17,2.25Z"/>
  <ellipse class="cls-4" cx="573.5" cy="523.14" rx="1.09" ry="1.17" transform="translate(-193.35 643.62) rotate(-51.3)"/>
  <polygon class="cls-3" points="630.99 464.6 631.9 465.5 630.59 465.28 629.94 466.38 629.77 465.14 628.45 464.92 629.67 464.38 629.51 463.14 630.42 464.04 631.64 463.5 630.99 464.6"/>
  <polygon class="cls-5" points="867.95 493.3 867.13 494.49 867.1 492.98 865.71 492.47 867.08 492.05 867.04 490.54 867.92 491.79 869.29 491.37 868.46 492.56 869.34 493.81 867.95 493.3"/>
  <polygon class="cls-2" points="1069.13 572.75 1068.67 572.94 1068.94 572.5 1068.64 572.09 1069.11 572.22 1069.39 571.78 1069.4 572.3 1069.87 572.44 1069.41 572.63 1069.43 573.15 1069.13 572.75"/>
  <polygon class="cls-3" points="1005.05 400.53 1006.12 400.5 1005.3 401.13 1005.72 402.1 1004.8 401.52 1003.98 402.14 1004.23 401.15 1003.32 400.57 1004.39 400.54 1004.64 399.55 1005.05 400.53"/>
  <polygon class="cls-3" points="886.29 595.86 887.51 598.59 884.83 597.01 882.49 598.86 883.18 596.03 880.51 594.45 883.61 594.28 884.31 591.46 885.53 594.18 888.63 594.01 886.29 595.86"/>
  <path class="cls-3" d="M838.75,328.35c-1.41.12-2.57-.93-2.59-2.35s1.11-2.67,2.52-2.78,2.57.93,2.59,2.35-1.11,2.67-2.52,2.78Z"/>
  <path class="cls-1" d="M1132.31,430.28c.19.76,1,1.25,1.79,1.1s1.29-.89,1.09-1.65-1-1.25-1.79-1.1-1.29.89-1.09,1.65Z"/>
  <path class="cls-3" d="M978.8,523.94c.71.84,1.97,1,2.8.37s.93-1.83.22-2.67-1.97-1-2.8-.37-.93,1.83-.22,2.67Z"/>
  <polygon class="cls-3" points="1292.74 421.58 1292.55 420.54 1293.33 421.22 1294.28 420.65 1293.81 421.65 1294.59 422.33 1293.52 422.26 1293.05 423.26 1292.86 422.22 1291.79 422.15 1292.74 421.58"/>
  <polygon class="cls-3" points="1460.56 574 1460.84 574.03 1460.61 574.18 1460.68 574.48 1460.46 574.28 1460.22 574.43 1460.32 574.15 1460.1 573.95 1460.38 573.98 1460.48 573.71 1460.56 574"/>
  <polygon class="cls-4" points="1361.31 360.64 1362.84 360.93 1361.49 361.61 1361.8 363.19 1360.66 362.03 1359.31 362.72 1359.96 361.32 1358.82 360.17 1360.36 360.46 1361.01 359.07 1361.31 360.64"/>
  <polygon class="cls-2" points="1259.51 605.41 1253.06 605.45 1258.18 601.36 1256.03 594.81 1261.34 598.83 1266.45 594.75 1264.62 601.32 1269.93 605.35 1263.49 605.38 1261.65 611.96 1259.51 605.41"/>
  <path class="cls-4" d="M1253.73,398.94c.07-.59.62-1.03,1.23-1s1.06.54.99,1.12-.62,1.03-1.23,1-1.06-.54-.99-1.12Z"/>
  <ellipse class="cls-3" cx="1502.98" cy="422.12" rx=".72" ry=".78" transform="translate(792.68 1812.3) rotate(-78.62)"/>
  <path class="cls-4" d="M1358.8,518.74c.99-.09,1.78-1,1.75-2.02s-.85-1.78-1.85-1.69-1.78,1-1.75,2.02.85,1.78,1.85,1.69Z"/>
  <polygon class="cls-3" points="1498.58 472.85 1501.9 472.52 1499.51 474.65 1501.02 477.58 1498.04 475.97 1495.65 478.11 1496.19 474.98 1493.2 473.38 1496.52 473.05 1497.07 469.93 1498.58 472.85"/>
  <polygon class="cls-5" points="1693.48 503.23 1691.61 504.59 1692.23 502.35 1690.21 500.94 1692.61 500.97 1693.22 498.73 1694.09 500.99 1696.49 501.02 1694.63 502.38 1695.5 504.64 1693.48 503.23"/>
  <polygon class="cls-2" points="1869.73 598.89 1865.03 601.18 1867.63 596.72 1864.24 593.2 1869.24 593.97 1871.85 589.51 1872.33 594.44 1877.34 595.2 1872.63 597.48 1873.12 602.41 1869.73 598.89"/>
  <polygon class="cls-3" points="1780.17 390.21 1779.73 389.91 1780.28 389.91 1780.45 389.42 1780.62 389.91 1781.17 389.91 1780.72 390.21 1780.89 390.7 1780.45 390.4 1780.01 390.7 1780.17 390.21"/>
  <polygon class="cls-3" points="1643.18 583.21 1640.92 580.09 1644.68 581.16 1647.12 577.84 1647.01 581.82 1650.77 582.89 1646.94 584.28 1646.83 588.26 1644.57 585.14 1640.74 586.53 1643.18 583.21"/>
  <path class="cls-3" d="M1648.53,353.09c-.38-.13-.62-.54-.52-.93s.49-.6.87-.47.62.54.52.93-.49.6-.87.47Z"/>
  <ellipse class="cls-1" cx="1892.18" cy="453.72" rx=".48" ry=".45" transform="translate(1352.52 2323.21) rotate(-87.38)"/>
  <ellipse class="cls-3" cx="1783.03" cy="550.14" rx=".19" ry=".2" transform="translate(88.28 1330.95) rotate(-41.88)"/>
  <polygon class="cls-3" points="2025.33 488 2030.33 486.7 2027.26 490.77 2030.38 495.25 2025.36 493.29 2022.29 497.36 2022.26 492.08 2017.23 490.12 2022.24 488.81 2022.21 483.53 2025.33 488"/>
  <polygon class="cls-3" points="2262.66 548.79 2262.64 547.93 2263.17 548.65 2264 548.43 2263.5 549.1 2264.03 549.82 2263.19 549.51 2262.68 550.18 2262.67 549.32 2261.83 549.01 2262.66 548.79"/>
  <polygon class="cls-4" points="2144.49 402.33 2144.08 402.67 2144.23 402.16 2143.8 401.9 2144.32 401.85 2144.47 401.35 2144.64 401.82 2145.16 401.77 2144.75 402.11 2144.92 402.59 2144.49 402.33"/>
  <polygon class="cls-2" points="2013.15 582.26 2014.16 581.6 2013.77 582.76 2014.77 583.57 2013.53 583.47 2013.14 584.63 2012.76 583.42 2011.52 583.33 2012.53 582.67 2012.15 581.45 2013.15 582.26"/>
  <ellipse class="cls-4" cx="1968.09" cy="299.34" rx=".1" ry=".09" transform="translate(1136.85 2108.21) rotate(-73.97)"/>
  <ellipse class="cls-3" cx="2214.41" cy="419.22" rx=".39" ry=".42" transform="translate(656.34 2047.65) rotate(-56.99)"/>
  <ellipse class="cls-4" cx="2148.14" cy="497.6" rx=".2" ry=".18" transform="translate(1212.3 2494.17) rotate(-77.93)"/>
  <polygon class="cls-3" points="2249.57 502.61 2248.49 504.34 2248.38 502.23 2246.47 501.62 2248.32 500.93 2248.21 498.82 2249.46 500.5 2251.31 499.81 2250.23 501.54 2251.48 503.22 2249.57 502.61"/>
  <polygon class="cls-5" points="110.43 879.46 109.74 879.6 110.22 879.04 109.88 878.38 110.52 878.7 111.01 878.15 110.92 878.9 111.56 879.23 110.86 879.37 110.77 880.12 110.43 879.46"/>
  <polygon class="cls-2" points="353.8 954.25 356.13 954.11 354.33 955.7 355.18 958.03 353.21 956.67 351.41 958.26 352 955.83 350.03 954.48 352.36 954.34 352.95 951.92 353.8 954.25"/>
  <polygon class="cls-3" points="212.63 789.41 212.52 789.76 212.39 789.4 212 789.39 212.31 789.18 212.19 788.82 212.51 789.05 212.83 788.84 212.71 789.19 213.03 789.42 212.63 789.41"/>
  <polygon class="cls-3" points="114.62 991.3 113.98 993.15 113.48 991.26 111.65 991.19 113.18 990.09 112.69 988.2 114.12 989.41 115.65 988.3 115.01 990.15 116.45 991.36 114.62 991.3"/>
  <ellipse class="cls-3" cx="80.94" cy="712.91" rx=".58" ry=".63" transform="translate(-416.58 195.93) rotate(-37.42)"/>
  <path class="cls-1" d="M341.69,813.52c2.04-.21,3.43-1.97,3.11-3.92s-2.24-3.37-4.29-3.16-3.43,1.97-3.11,3.92,2.24,3.37,4.29,3.16Z"/>
  <path class="cls-3" d="M163.55,878.96c-.78,1.05-.63,2.57.34,3.4s2.39.66,3.17-.39.63-2.57-.34-3.4-2.39-.66-3.17.39Z"/>
  <polygon class="cls-3" points="475.2 869.97 477.13 869.94 475.6 871.18 476.25 873.14 474.66 871.94 473.13 873.18 473.67 871.2 472.08 870.01 474.01 869.98 474.55 868.01 475.2 869.97"/>
  <polygon class="cls-3" points="706.48 964.53 707.45 963.82 707.04 964.99 707.95 965.72 706.79 965.71 706.38 966.88 706.08 965.7 704.92 965.69 705.88 964.97 705.58 963.8 706.48 964.53"/>
  <polygon class="cls-4" points="578.28 762.51 583.93 760.11 580.56 765.53 584.27 770.42 578.49 768.89 575.12 774.31 574.91 767.94 569.13 766.4 574.78 764 574.57 757.63 578.28 762.51"/>
  <polygon class="cls-2" points="494.79 963.48 495.37 965.44 493.81 964.25 492.22 965.5 492.84 963.51 491.28 962.32 493.22 962.28 493.84 960.3 494.43 962.26 496.37 962.23 494.79 963.48"/>
  <path class="cls-4" d="M481.1,761.43c-.22-.24-.2-.6.06-.81s.64-.18.87.06.2.6-.06.81-.64.18-.87-.06Z"/>
  <ellipse class="cls-3" cx="731.96" cy="782.32" rx=".53" ry=".57" transform="translate(-94.1 1464.53) rotate(-86.46)"/>
  <ellipse class="cls-4" cx="604.83" cy="911.46" rx=".22" ry=".21" transform="translate(-437.44 1243.54) rotate(-74.11)"/>
  <polygon class="cls-3" points="611.72 872.41 612.39 871.49 612.36 872.66 613.4 873.07 612.34 873.39 612.31 874.57 611.69 873.59 610.64 873.9 611.31 872.98 610.69 872 611.72 872.41"/>
  <polygon class="cls-5" points="925.29 842.73 925.06 841.82 925.74 842.41 926.49 841.88 926.17 842.77 926.85 843.36 925.97 843.32 925.65 844.2 925.42 843.29 924.54 843.26 925.29 842.73"/>
  <polygon class="cls-2" points="1111.94 970.16 1111.85 972.02 1110.75 970.43 1108.83 970.87 1110.07 969.45 1108.97 967.85 1110.84 968.56 1112.09 967.13 1112 969 1113.87 969.71 1111.94 970.16"/>
  <polygon class="cls-3" points="922.41 755.26 923.2 755.55 922.36 755.77 922.27 756.6 921.84 755.91 920.99 756.14 921.56 755.49 921.12 754.8 921.92 755.08 922.49 754.43 922.41 755.26"/>
  <polygon class="cls-3" points="902.64 952.25 902.56 949.11 904.38 951.51 907.2 950.31 905.51 952.99 907.34 955.39 904.47 954.65 902.78 957.33 902.7 954.19 899.83 953.45 902.64 952.25"/>
  <ellipse class="cls-3" cx="858.18" cy="736.72" rx=".72" ry=".67" transform="translate(-271.03 672.56) rotate(-37.39)"/>
  <ellipse class="cls-1" cx="1084.52" cy="818.88" rx=".37" ry=".34" transform="translate(-253.56 1056.16) rotate(-47.11)"/>
  <path class="cls-3" d="M929.52,896.87c.52-.06.93-.51.91-1.02s-.47-.87-.99-.82-.93.51-.91,1.02.47.87.99.82Z"/>
  <polygon class="cls-3" points="1225.17 799.9 1227.53 798.44 1226.53 801.12 1228.74 803.09 1225.91 802.77 1224.91 805.45 1224.17 802.58 1221.34 802.27 1223.71 800.81 1222.96 797.93 1225.17 799.9"/>
  <polygon class="cls-3" points="1472.51 928.29 1470.26 929.99 1471.2 927.26 1469.07 925.6 1471.78 925.58 1472.72 922.86 1473.45 925.57 1476.16 925.55 1473.9 927.25 1474.63 929.96 1472.51 928.29"/>
  <polygon class="cls-4" points="1464.23 748.37 1468 754.67 1461.5 751.65 1457.09 756.97 1457.48 749.78 1450.98 746.76 1457.73 745.34 1458.12 738.16 1461.89 744.47 1468.64 743.05 1464.23 748.37"/>
  <polygon class="cls-2" points="1314.01 1004.86 1312.67 1005.52 1313.37 1004.14 1312.34 1002.97 1313.8 1003.29 1314.5 1001.9 1314.71 1003.48 1316.17 1003.8 1314.84 1004.46 1315.04 1006.04 1314.01 1004.86"/>
  <ellipse class="cls-4" cx="1227.5" cy="751.41" rx=".41" ry=".38" transform="translate(92.29 1636.09) rotate(-69.4)"/>
  <ellipse class="cls-3" cx="1498.04" cy="757.98" rx="1.91" ry="1.77" transform="translate(-44.45 1420.85) rotate(-50.09)"/>
  <path class="cls-4" d="M1364.57,904.05c-.07-.39-.45-.67-.84-.63s-.65.4-.58.79.45.67.84.63.65-.4.58-.79Z"/>
  <polygon class="cls-3" points="1459.73 877.56 1457.82 876.12 1460.3 876.18 1461.24 873.96 1461.84 876.22 1464.32 876.27 1462.21 877.61 1462.81 879.87 1460.9 878.44 1458.79 879.78 1459.73 877.56"/>
  <polygon class="cls-5" points="1665.97 874.88 1666.44 872.39 1667.58 874.59 1670.18 874.13 1668.28 875.95 1669.42 878.15 1667.1 877.08 1665.2 878.91 1665.67 876.42 1663.36 875.34 1665.97 874.88"/>
  <polygon class="cls-2" points="1868.58 934.72 1867.49 933.46 1869.05 933.8 1869.8 932.32 1870.02 934.01 1871.58 934.36 1870.15 935.06 1870.36 936.75 1869.26 935.49 1867.83 936.19 1868.58 934.72"/>
  <polygon class="cls-3" points="1745.96 758.63 1747.98 756.36 1747.56 759.42 1750.15 760.7 1747.31 761.31 1746.89 764.37 1745.55 761.69 1742.7 762.3 1744.72 760.03 1743.37 757.35 1745.96 758.63"/>
  <polygon class="cls-3" points="1664.94 985.43 1664.94 984.17 1665.66 985.24 1666.82 984.92 1666.1 985.9 1666.82 986.97 1665.66 986.5 1664.94 987.48 1664.94 986.22 1663.78 985.75 1664.94 985.43"/>
  <ellipse class="cls-3" cx="1647.85" cy="737.15" rx=".27" ry=".25" transform="translate(130.43 1715.02) rotate(-56.9)"/>
  <ellipse class="cls-1" cx="1856.19" cy="849.14" rx=".64" ry=".69" transform="translate(-50.23 119.72) rotate(-3.64)"/>
  <path class="cls-3" d="M1734.96,859.09c.58-.55.56-1.45-.04-2.01s-1.56-.58-2.14-.03-.56,1.45.04,2.01,1.56.58,2.14.03Z"/>
  <polygon class="cls-3" points="2049.73 850.88 2048.24 852.49 2048.58 850.35 2046.72 849.48 2048.79 849.02 2049.12 846.87 2050.06 848.73 2052.13 848.27 2050.65 849.88 2051.59 851.75 2049.73 850.88"/>
  <polygon class="cls-3" points="2201.78 928.35 2200.14 925.4 2203.14 926.7 2205.34 924.03 2204.99 927.51 2207.98 928.81 2204.77 929.66 2204.42 933.13 2202.79 930.18 2199.58 931.02 2201.78 928.35"/>
  <polygon class="cls-4" points="2113.44 748.57 2111.98 747.92 2113.56 747.53 2113.77 745.84 2114.54 747.29 2116.12 746.89 2115.02 748.18 2115.79 749.62 2114.33 748.97 2113.23 750.26 2113.44 748.57"/>
  <polygon class="cls-2" points="2050.79 934.32 2050.68 935.73 2049.94 934.58 2048.56 935 2049.48 933.87 2048.74 932.72 2050.05 933.17 2050.98 932.03 2050.86 933.44 2052.18 933.89 2050.79 934.32"/>
  <ellipse class="cls-4" cx="1979.44" cy="718.39" rx=".88" ry=".94" transform="translate(-64.38 1225.43) rotate(-33.88)"/>
  <path class="cls-3" d="M2229.26,770.03c-1.4-.43-2.96.37-3.5,1.78-.53,1.41.17,2.91,1.56,3.34s2.96-.37,3.5-1.78-.17-2.91-1.56-3.34Z"/>
  <ellipse class="cls-4" cx="2048.78" cy="877.85" rx=".23" ry=".22" transform="translate(824.38 2740.36) rotate(-79.87)"/>
  <polygon class="cls-3" points="2188.5 850.76 2187.79 850.66 2188.45 850.3 2188.36 849.58 2188.85 850.09 2189.51 849.73 2189.16 850.4 2189.65 850.91 2188.94 850.81 2188.58 851.48 2188.5 850.76"/>
  <polygon class="cls-5" points="90.96 1199.97 89.86 1199.49 91.08 1199.25 91.27 1198.08 91.84 1199.09 93.06 1198.85 92.19 1199.73 92.75 1200.74 91.65 1200.27 90.77 1201.14 90.96 1199.97"/>
  <polygon class="cls-2" points="328.92 1379.59 325.11 1381.46 327.15 1377.87 324.29 1375.08 328.42 1375.65 330.46 1372.05 330.97 1376 335.09 1376.57 331.28 1378.44 331.78 1382.38 328.92 1379.59"/>
  <polygon class="cls-3" points="196.42 1125.41 197.08 1125.45 196.52 1125.83 196.68 1126.51 196.17 1126.07 195.61 1126.45 195.86 1125.79 195.36 1125.35 196.02 1125.39 196.27 1124.73 196.42 1125.41"/>
  <polygon class="cls-3" points="102.63 1313.96 103.3 1312.71 103.45 1314.07 104.79 1314.25 103.55 1314.91 103.7 1316.26 102.78 1315.31 101.54 1315.96 102.21 1314.72 101.29 1313.77 102.63 1313.96"/>
  <path class="cls-3" d="M24.68,1099.88c.96.43,1.35,1.51.88,2.4s-1.63,1.28-2.59.85-1.35-1.51-.88-2.4,1.63-1.28,2.59-.85Z"/>
  <path class="cls-1" d="M344.84,1195.23c.16-1.32-.73-2.46-2-2.55s-2.42.91-2.58,2.23.73,2.46,2,2.55,2.42-.91,2.58-2.23Z"/>
  <ellipse class="cls-3" cx="212.71" cy="1209.06" rx=".85" ry=".91" transform="translate(-785.06 493.85) rotate(-44.39)"/>
  <polygon class="cls-3" points="482.07 1241.18 483.15 1244.03 480.67 1242.25 478.4 1243.99 479.13 1241.16 476.66 1239.38 479.59 1239.4 480.33 1236.57 481.41 1239.42 484.34 1239.45 482.07 1241.18"/>
  <polygon class="cls-3" points="658.08 1316.8 656.31 1317.06 657.58 1315.88 656.78 1314.39 658.37 1315.15 659.65 1313.97 659.35 1315.62 660.95 1316.38 659.17 1316.64 658.88 1318.29 658.08 1316.8"/>
  <polygon class="cls-4" points="600.65 1116.5 597.65 1115.93 600.52 1114.69 600.3 1111.78 602.29 1113.93 605.15 1112.7 603.51 1115.26 605.49 1117.42 602.5 1116.85 600.86 1119.41 600.65 1116.5"/>
  <polygon class="cls-2" points="542.1 1353.53 541.56 1354.03 541.71 1353.28 541.09 1352.87 541.81 1352.82 541.96 1352.07 542.25 1352.79 542.97 1352.73 542.43 1353.23 542.72 1353.94 542.1 1353.53"/>
  <ellipse class="cls-4" cx="443.89" cy="1132.7" rx=".91" ry=".97" transform="translate(-765.75 1262.34) rotate(-74.72)"/>
  <path class="cls-3" d="M767,1117.08c-.03.73.53,1.3,1.26,1.27s1.34-.63,1.37-1.35-.53-1.3-1.26-1.27-1.34.63-1.37,1.35Z"/>
  <path class="cls-4" d="M635.89,1227.44c-.13.41.11.82.54.92s.87-.14,1-.54-.11-.82-.54-.92-.87.14-1,.54Z"/>
  <polygon class="cls-3" points="629.62 1211.95 628.36 1212.92 628.88 1211.41 627.67 1210.52 629.2 1210.47 629.72 1208.96 630.15 1210.44 631.68 1210.39 630.41 1211.36 630.83 1212.84 629.62 1211.95"/>
  <polygon class="cls-5" points="909.76 1227.26 914.35 1226.49 911 1229.65 913 1233.51 908.93 1231.6 905.58 1234.76 906.41 1230.42 902.34 1228.51 906.93 1227.74 907.76 1223.4 909.76 1227.26"/>
  <polygon class="cls-2" points="1067.89 1285.25 1070.78 1284.95 1068.71 1286.97 1070.04 1289.75 1067.43 1288.21 1065.36 1290.23 1065.82 1287.26 1063.21 1285.72 1066.1 1285.43 1066.56 1282.46 1067.89 1285.25"/>
  <polygon class="cls-3" points="1036.39 1130.14 1038.41 1131.39 1036.04 1131.66 1035.47 1134.14 1034.57 1131.83 1032.2 1132.11 1034.02 1130.41 1033.12 1128.11 1035.14 1129.36 1036.96 1127.66 1036.39 1130.14"/>
  <polygon class="cls-3" points="945.86 1353.33 945.69 1350.48 947.49 1352.79 950.11 1351.93 948.6 1354.23 950.4 1356.55 947.67 1355.65 946.15 1357.94 945.97 1355.09 943.24 1354.19 945.86 1353.33"/>
  <path class="cls-3" d="M889.25,1105.83c-1.43-.07-2.62-1.3-2.65-2.74s1.1-2.56,2.54-2.49,2.62,1.3,2.65,2.74-1.1,2.56-2.54,2.49Z"/>
  <ellipse class="cls-1" cx="1167.94" cy="1239.78" rx="1.24" ry="1.16" transform="translate(-454.42 721.03) rotate(-28.98)"/>
  <ellipse class="cls-3" cx="937.1" cy="1224.39" rx=".19" ry=".18" transform="translate(-308.84 316.14) rotate(-16.48)"/>
  <polygon class="cls-3" points="1267.98 1222.75 1263.66 1220.17 1268.87 1219.64 1270.31 1214.61 1272.09 1219.31 1277.3 1218.78 1273.19 1222.22 1274.96 1226.92 1270.65 1224.34 1266.53 1227.77 1267.98 1222.75"/>
  <polygon class="cls-3" points="1524.68 1323.41 1526.4 1322.6 1525.53 1324.34 1526.89 1325.84 1524.98 1325.41 1524.11 1327.15 1523.8 1325.15 1521.89 1324.72 1523.62 1323.91 1523.31 1321.9 1524.68 1323.41"/>
  <polygon class="cls-4" points="1340.11 1136.58 1339.28 1136.01 1340.3 1136.03 1340.61 1135.13 1340.93 1136.04 1341.95 1136.06 1341.13 1136.6 1341.44 1137.52 1340.62 1136.94 1339.79 1137.48 1340.11 1136.58"/>
  <polygon class="cls-2" points="1293.72 1306.68 1293.83 1306.39 1293.91 1306.67 1294.22 1306.66 1293.96 1306.85 1294.05 1307.13 1293.81 1306.96 1293.56 1307.14 1293.66 1306.86 1293.42 1306.69 1293.72 1306.68"/>
  <path class="cls-4" d="M1215.39,1098.28c-.59-.47-.66-1.31-.14-1.89s1.42-.66,2.01-.19.66,1.31.14,1.89-1.42.66-2.01.19Z"/>
  <path class="cls-3" d="M1483.99,1102.98c-.24.22-.27.6-.07.85s.55.28.79.07.27-.6.07-.85-.55-.28-.79-.07Z"/>
  <path class="cls-4" d="M1295.55,1238.12c-.44-.1-.85.18-.92.62s.23.88.67.98.85-.18.92-.62-.23-.88-.67-.98Z"/>
  <polygon class="cls-3" points="1445.44 1233.15 1445.81 1234.62 1444.59 1233.69 1443.23 1234.56 1443.84 1233.12 1442.63 1232.19 1444.22 1232.23 1444.83 1230.79 1445.21 1232.25 1446.8 1232.29 1445.44 1233.15"/>
  <polygon class="cls-5" points="1672.23 1196.95 1672.22 1197.6 1671.85 1197.04 1671.24 1197.19 1671.62 1196.7 1671.25 1196.14 1671.86 1196.39 1672.24 1195.9 1672.23 1196.55 1672.84 1196.8 1672.23 1196.95"/>
  <polygon class="cls-2" points="1855.58 1314.44 1855.55 1313.68 1856.01 1314.31 1856.7 1314.09 1856.29 1314.69 1856.75 1315.31 1856.04 1315.06 1855.63 1315.66 1855.6 1314.91 1854.89 1314.66 1855.58 1314.44"/>
  <polygon class="cls-3" points="1738.31 1129.1 1736.91 1129.21 1737.95 1128.34 1737.36 1127.12 1738.59 1127.81 1739.62 1126.95 1739.35 1128.23 1740.57 1128.92 1739.17 1129.03 1738.9 1130.32 1738.31 1129.1"/>
  <polygon class="cls-3" points="1652.88 1341.61 1654.83 1341.94 1653.1 1342.75 1653.47 1344.6 1652.04 1343.25 1650.32 1344.07 1651.16 1342.42 1649.73 1341.08 1651.68 1341.41 1652.52 1339.77 1652.88 1341.61"/>
  <path class="cls-3" d="M1611.09,1132.33c-1.18-.65-1.57-2.06-.89-3.15.68-1.09,2.19-1.44,3.37-.79s1.57,2.06.89,3.15c-.68,1.09-2.19,1.44-3.37.79Z"/>
  <ellipse class="cls-1" cx="1902.39" cy="1165.67" rx=".44" ry=".41" transform="translate(-189.75 390.54) rotate(-11.17)"/>
  <ellipse class="cls-3" cx="1790.49" cy="1258.01" rx=".62" ry=".58" transform="translate(-173.15 292.32) rotate(-8.9)"/>
  <polygon class="cls-3" points="2023.35 1222.89 2020.17 1219.12 2025.12 1220.16 2027.99 1215.75 2028.19 1220.8 2033.14 1221.84 2028.31 1223.92 2028.51 1228.98 2025.32 1225.21 2020.49 1227.3 2023.35 1222.89"/>
  <polygon class="cls-3" points="2284.97 1322.53 2288.87 1322.81 2285.39 1324.91 2286.07 1328.77 2283.24 1326.21 2279.76 1328.31 2281.49 1324.63 2278.66 1322.07 2282.56 1322.35 2284.29 1318.67 2284.97 1322.53"/>
  <polygon class="cls-4" points="2125.23 1170.04 2125.16 1168.44 2126.15 1169.76 2127.66 1169.31 2126.77 1170.58 2127.77 1171.9 2126.22 1171.36 2125.34 1172.63 2125.27 1171.03 2123.72 1170.49 2125.23 1170.04"/>
  <polygon class="cls-2" points="2051.4 1350.2 2049.92 1351.28 2050.41 1349.53 2048.81 1348.43 2050.72 1348.45 2051.21 1346.7 2051.89 1348.45 2053.8 1348.47 2052.32 1349.54 2053.01 1351.3 2051.4 1350.2"/>
  <ellipse class="cls-4" cx="1998.64" cy="1112.39" rx=".1" ry=".09" transform="translate(-100.63 204.08) rotate(-5.7)"/>
  <ellipse class="cls-3" cx="2257.39" cy="1137.01" rx=".55" ry=".59" transform="translate(809.18 3208.55) rotate(-81.78)"/>
  <ellipse class="cls-4" cx="2062.98" cy="1254.97" rx="1.76" ry="1.89" transform="translate(-345.87 1086.86) rotate(-27.32)"/>
  <polygon class="cls-3" points="2213.27 1246.87 2212.82 1247.51 2212.83 1246.71 2212.12 1246.44 2212.84 1246.21 2212.85 1245.41 2213.28 1246.07 2213.99 1245.84 2213.55 1246.48 2213.98 1247.13 2213.27 1246.87"/>
  <polygon class="cls-5" points="83.41 1597.64 84.14 1591.52 86.9 1596.95 92.56 1595.83 88.61 1600.31 91.38 1605.74 86.17 1603.08 82.22 1607.55 82.96 1601.43 77.75 1598.76 83.41 1597.64"/>
  <polygon class="cls-2" points="329 1707.7 330.06 1708.58 328.72 1708.54 328.26 1709.89 327.89 1708.51 326.55 1708.46 327.66 1707.66 327.29 1706.27 328.35 1707.16 329.46 1706.35 329 1707.7"/>
  <polygon class="cls-3" points="189.57 1507.4 190.27 1506.59 190.16 1507.7 191.11 1508.19 190.09 1508.38 189.98 1509.49 189.45 1508.5 188.43 1508.7 189.13 1507.89 188.61 1506.91 189.57 1507.4"/>
  <polygon class="cls-3" points="125.85 1716.94 125.63 1714.71 127.2 1716.33 129.38 1715.34 128.17 1717.33 129.74 1718.95 127.42 1718.56 126.21 1720.54 125.99 1718.32 123.67 1717.93 125.85 1716.94"/>
  <ellipse class="cls-3" cx="31.91" cy="1463.47" rx=".4" ry=".37" transform="translate(-1397.74 1149.02) rotate(-76.35)"/>
  <path class="cls-1" d="M327.26,1591.11c.34,1.87,2.12,3.21,3.97,3,1.85-.21,3.08-1.89,2.74-3.75s-2.12-3.21-3.97-3c-1.85.21-3.08,1.89-2.74,3.75Z"/>
  <path class="cls-3" d="M167.73,1614.4c-.23.33-.17.81.15,1.07s.76.19.99-.14.17-.81-.15-1.07-.76-.19-.99.14Z"/>
  <polygon class="cls-3" points="551.22 1558.89 550.97 1555.39 553.13 1558.18 556.23 1557.03 554.47 1559.9 556.64 1562.69 553.39 1561.68 551.63 1564.55 551.38 1561.05 548.12 1560.04 551.22 1558.89"/>
  <polygon class="cls-3" points="639.91 1717.04 639.55 1717.02 639.87 1716.81 639.8 1716.44 640.07 1716.68 640.39 1716.48 640.24 1716.84 640.51 1717.08 640.14 1717.06 639.99 1717.42 639.91 1717.04"/>
  <polygon class="cls-4" points="584.31 1518.06 583.18 1519.07 583.54 1517.64 582.31 1516.96 583.77 1516.76 584.13 1515.34 584.67 1516.64 586.13 1516.45 585 1517.45 585.54 1518.75 584.31 1518.06"/>
  <polygon class="cls-2" points="515.85 1708.54 514.79 1706.5 516.94 1707.54 518.71 1705.92 518.28 1708.18 520.43 1709.22 518.01 1709.58 517.57 1711.84 516.51 1709.8 514.08 1710.15 515.85 1708.54"/>
  <ellipse class="cls-4" cx="457.28" cy="1479.58" rx="1.26" ry="1.18" transform="translate(-1088.23 1381.19) rotate(-69.18)"/>
  <ellipse class="cls-3" cx="680.68" cy="1520.81" rx="1.02" ry=".95" transform="translate(-60.39 28.49) rotate(-2.3)"/>
  <ellipse class="cls-4" cx="584.02" cy="1644.12" rx=".69" ry=".65" transform="translate(-1082.05 1126.02) rotate(-53.17)"/>
  <polygon class="cls-3" points="666.16 1609.89 664.82 1610.5 665.6 1609.24 664.69 1608.19 666.08 1608.46 666.86 1607.2 666.94 1608.63 668.33 1608.9 666.99 1609.51 667.07 1610.94 666.16 1609.89"/>
  <polygon class="cls-5" points="893.19 1590.68 892.47 1590.39 893.26 1590.21 893.36 1589.46 893.74 1590.11 894.52 1589.93 893.97 1590.51 894.35 1591.16 893.63 1590.86 893.08 1591.44 893.19 1590.68"/>
  <polygon class="cls-2" points="1105.89 1675.72 1103.58 1677.42 1104.57 1674.68 1102.43 1673 1105.19 1672.99 1106.18 1670.26 1106.89 1672.99 1109.64 1672.98 1107.33 1674.67 1108.03 1677.4 1105.89 1675.72"/>
  <polygon class="cls-3" points="985.66 1502.95 985.16 1503.77 985.12 1502.8 984.25 1502.55 985.09 1502.2 985.05 1501.23 985.62 1501.98 986.46 1501.63 985.97 1502.44 986.53 1503.19 985.66 1502.95"/>
  <polygon class="cls-3" points="936.52 1719.09 936.16 1719.52 936.21 1718.97 935.71 1718.78 936.25 1718.63 936.31 1718.07 936.58 1718.53 937.12 1718.38 936.75 1718.82 937.02 1719.28 936.52 1719.09"/>
  <ellipse class="cls-3" cx="846.51" cy="1450.9" rx=".56" ry=".53" transform="translate(-719.42 2058.8) rotate(-80.96)"/>
  <path class="cls-1" d="M1078.93,1563.4c.36.75,1.29,1.11,2.08.79s1.15-1.18.79-1.93-1.29-1.11-2.08-.79-1.15,1.18-.79,1.93Z"/>
  <ellipse class="cls-3" cx="960.4" cy="1649.44" rx=".38" ry=".41" transform="translate(-713.17 731.73) rotate(-31.05)"/>
  <polygon class="cls-3" points="1309.99 1570.25 1308.75 1569.59 1310.13 1569.34 1310.37 1567.86 1310.99 1569.19 1312.37 1568.94 1311.37 1570.01 1311.99 1571.33 1310.75 1570.67 1309.75 1571.74 1309.99 1570.25"/>
  <polygon class="cls-3" points="1514.7 1703.26 1514.77 1702.93 1514.93 1703.25 1515.28 1703.22 1515.02 1703.44 1515.17 1703.76 1514.86 1703.58 1514.59 1703.8 1514.66 1703.47 1514.34 1703.29 1514.7 1703.26"/>
  <polygon class="cls-4" points="1333.61 1500.68 1331.59 1499.32 1334.13 1499.22 1334.96 1496.84 1335.69 1499.15 1338.23 1499.04 1336.15 1500.58 1336.88 1502.88 1334.86 1501.52 1332.77 1503.05 1333.61 1500.68"/>
  <polygon class="cls-2" points="1332.75 1712.72 1334.56 1713.92 1332.4 1714.11 1331.84 1716.35 1331.07 1714.22 1328.91 1714.41 1330.59 1712.91 1329.82 1710.78 1331.63 1711.98 1333.31 1710.48 1332.75 1712.72"/>
  <ellipse class="cls-4" cx="1204.31" cy="1433.32" rx=".06" ry=".06" transform="translate(-192.69 187.06) rotate(-8.23)"/>
  <path class="cls-3" d="M1436.34,1488.16c1.76-.8,2.64-2.88,1.98-4.63s-2.64-2.52-4.4-1.72c-1.76.8-2.64,2.88-1.98,4.63s2.64,2.52,4.4,1.72Z"/>
  <ellipse class="cls-4" cx="1373.27" cy="1619.41" rx=".52" ry=".56" transform="translate(-184.66 176.77) rotate(-6.9)"/>
  <polygon class="cls-3" points="1420.46 1589.52 1421.31 1592.33 1418.88 1590.65 1416.33 1592.48 1417.38 1589.61 1414.95 1587.93 1418.03 1587.84 1419.08 1584.96 1419.93 1587.78 1423.01 1587.68 1420.46 1589.52"/>
  <polygon class="cls-5" points="1635.77 1583.95 1632.96 1583.14 1635.77 1582.25 1635.77 1579.49 1637.51 1581.7 1640.32 1580.81 1638.59 1583.06 1640.33 1585.27 1637.51 1584.46 1635.78 1586.72 1635.77 1583.95"/>
  <polygon class="cls-2" points="1834.82 1681.79 1838.37 1681.21 1835.84 1683.62 1837.5 1686.58 1834.29 1685.11 1831.77 1687.51 1832.3 1684.2 1829.08 1682.72 1832.63 1682.15 1833.16 1678.83 1834.82 1681.79"/>
  <polygon class="cls-3" points="1729.31 1518.4 1730.79 1517.08 1730.44 1519.05 1732.28 1520.11 1730.23 1520.27 1729.89 1522.25 1728.97 1520.37 1726.92 1520.54 1728.4 1519.22 1727.47 1517.34 1729.31 1518.4"/>
  <polygon class="cls-3" points="1698.55 1759.04 1698.12 1759.56 1698.18 1758.87 1697.59 1758.59 1698.22 1758.44 1698.29 1757.74 1698.61 1758.34 1699.25 1758.19 1698.82 1758.71 1699.14 1759.31 1698.55 1759.04"/>
  <ellipse class="cls-3" cx="1607.12" cy="1464.02" rx=".72" ry=".67" transform="translate(-484.46 2056.89) rotate(-58.16)"/>
  <ellipse class="cls-1" cx="1902.32" cy="1562.69" rx="1.95" ry="1.82" transform="translate(-470.14 905.22) rotate(-23.91)"/>
  <ellipse class="cls-3" cx="1696.39" cy="1618" rx=".28" ry=".26" transform="translate(-571.5 2211.56) rotate(-58.31)"/>
  <polygon class="cls-3" points="2012.56 1576.22 2013.2 1579.28 2010.89 1577.31 2008.19 1579.07 2009.47 1576.09 2007.16 1574.12 2010.25 1574.25 2011.53 1571.27 2012.17 1574.33 2015.26 1574.46 2012.56 1576.22"/>
  <polygon class="cls-3" points="2225.48 1648.5 2226.63 1649.39 2225.12 1649.32 2224.56 1650.64 2224.19 1649.27 2222.69 1649.2 2223.97 1648.43 2223.61 1647.07 2224.76 1647.96 2226.04 1647.19 2225.48 1648.5"/>
  <polygon class="cls-4" points="2119.82 1491.93 2118.42 1494.17 2118.16 1491.44 2115.47 1490.66 2118 1489.76 2117.74 1487.03 2119.56 1489.2 2122.09 1488.29 2120.69 1490.54 2122.51 1492.71 2119.82 1491.93"/>
  <polygon class="cls-2" points="2068.34 1663.19 2066.26 1659.54 2070.12 1661.1 2073.01 1657.71 2072.51 1662.06 2076.38 1663.62 2072.2 1664.75 2071.7 1669.1 2069.62 1665.45 2065.45 1666.58 2068.34 1663.19"/>
  <ellipse class="cls-4" cx="1943.42" cy="1495.83" rx="1.08" ry="1.01" transform="translate(-508.99 1486.2) rotate(-37.36)"/>
  <path class="cls-3" d="M2261.59,1547.01c-1.05,2.75.25,5.68,2.91,6.55,2.66.87,5.67-.66,6.72-3.41s-.25-5.68-2.91-6.55c-2.66-.87-5.67.66-6.72,3.41Z"/>
  <ellipse class="cls-4" cx="2100.48" cy="1632.2" rx=".25" ry=".23" transform="translate(-449.03 2391.2) rotate(-54.43)"/>
  <polygon class="cls-3" points="2231.51 1601.39 2231.39 1603.53 2230.14 1601.74 2227.92 1602.29 2229.37 1600.63 2228.13 1598.83 2230.27 1599.6 2231.71 1597.94 2231.59 1600.08 2233.73 1600.84 2231.51 1601.39"/>
  <polygon class="cls-5" points="125.48 1952.62 125.56 1952.04 125.83 1952.59 126.41 1952.53 126 1952.93 126.27 1953.48 125.75 1953.17 125.34 1953.58 125.42 1952.99 124.9 1952.68 125.48 1952.62"/>
  <polygon class="cls-2" points="284.23 2095.2 283.32 2094.17 284.63 2094.52 285.27 2093.41 285.44 2094.73 286.74 2095.07 285.54 2095.55 285.7 2096.87 284.79 2095.84 283.59 2096.32 284.23 2095.2"/>
  <polygon class="cls-3" points="189.44 1821.07 189.31 1820.45 189.76 1820.89 190.28 1820.59 190.04 1821.16 190.5 1821.6 189.9 1821.51 189.66 1822.08 189.53 1821.46 188.93 1821.38 189.44 1821.07"/>
  <polygon class="cls-3" points="98.01 2070.22 98.81 2070.12 98.23 2070.64 98.59 2071.32 97.87 2070.97 97.29 2071.5 97.43 2070.75 96.71 2070.4 97.51 2070.29 97.65 2069.55 98.01 2070.22"/>
  <ellipse class="cls-3" cx="88.4" cy="1830.74" rx=".51" ry=".48" transform="translate(-1605.6 1130.89) rotate(-64.79)"/>
  <ellipse class="cls-1" cx="333.91" cy="1928.61" rx="1.47" ry="1.37" transform="translate(-1187.57 697.29) rotate(-41.19)"/>
  <ellipse class="cls-3" cx="179.32" cy="1968.6" rx=".55" ry=".51" transform="translate(-1700.48 1357.15) rotate(-66.78)"/>
  <polygon class="cls-3" points="488.14 1906.85 489.36 1907.24 488.15 1907.69 488.17 1909.05 487.41 1907.97 486.2 1908.43 486.94 1907.3 486.18 1906.22 487.39 1906.61 488.13 1905.49 488.14 1906.85"/>
  <polygon class="cls-3" points="710.22 2017.98 711.27 2021.67 708.17 2019.45 704.85 2021.82 706.25 2018.07 703.14 2015.85 707.11 2015.76 708.51 2012.01 709.56 2015.7 713.53 2015.61 710.22 2017.98"/>
  <polygon class="cls-4" points="557.22 1840.85 558.49 1842.29 556.69 1841.88 555.84 1843.56 555.58 1841.63 553.78 1841.22 555.42 1840.44 555.16 1838.51 556.43 1839.96 558.07 1839.18 557.22 1840.85"/>
  <polygon class="cls-2" points="483.65 2027.81 482.27 2027.31 483.74 2026.89 483.89 2025.41 484.65 2026.63 486.12 2026.22 485.12 2027.39 485.88 2028.62 484.5 2028.12 483.5 2029.3 483.65 2027.81"/>
  <ellipse class="cls-4" cx="456.73" cy="1822.29" rx=".66" ry=".61" transform="translate(-1406.67 1583.36) rotate(-68.62)"/>
  <ellipse class="cls-3" cx="657.84" cy="1868.14" rx=".49" ry=".53" transform="translate(-1322.68 1853.21) rotate(-70.17)"/>
  <path class="cls-4" d="M543.71,1954.75c-.32-1.08-1.47-1.64-2.58-1.24-1.11.39-1.75,1.58-1.44,2.66s1.47,1.64,2.58,1.24c1.11-.39,1.75-1.58,1.44-2.66Z"/>
  <polygon class="cls-3" points="639.49 1958.12 639.6 1959.52 638.63 1958.48 637.26 1959.06 638.04 1957.84 637.07 1956.81 638.52 1957.09 639.3 1955.87 639.42 1957.26 640.86 1957.54 639.49 1958.12"/>
  <polygon class="cls-5" points="831.8 1947.73 831.3 1947.4 831.88 1947.39 832.01 1946.84 832.24 1947.38 832.82 1947.37 832.38 1947.71 832.61 1948.25 832.11 1947.92 831.67 1948.27 831.8 1947.73"/>
  <polygon class="cls-2" points="1040.38 2057.35 1039.53 2057.89 1039.86 2056.97 1039.03 2056.35 1040.07 2056.4 1040.41 2055.48 1040.72 2056.43 1041.76 2056.48 1040.91 2057.02 1041.22 2057.97 1040.38 2057.35"/>
  <polygon class="cls-3" points="947.28 1851.86 947.36 1852.38 946.98 1852.03 946.5 1852.29 946.75 1851.81 946.37 1851.46 946.9 1851.51 947.15 1851.03 947.23 1851.54 947.76 1851.59 947.28 1851.86"/>
  <polygon class="cls-3" points="857.8 2098.39 859.31 2097.83 858.36 2099.21 859.26 2100.54 857.77 2100.06 856.82 2101.43 856.85 2099.76 855.35 2099.28 856.87 2098.73 856.89 2097.06 857.8 2098.39"/>
  <path class="cls-3" d="M830.63,1816.66c-.14.31-.52.46-.83.33s-.46-.47-.31-.78.52-.46.83-.33.46.47.31.78Z"/>
  <path class="cls-1" d="M1086.14,1883.53c-.4-1.75-2.23-2.9-4.09-2.58-1.86.33-3.03,2.01-2.63,3.76s2.23,2.9,4.09,2.58c1.86-.33,3.03-2.01,2.63-3.76Z"/>
  <path class="cls-3" d="M980.62,1963.15c-.21-.29-.6-.34-.86-.12s-.31.64-.1.92.6.34.86.12.31-.64.1-.92Z"/>
  <polygon class="cls-3" points="1285.28 1930.36 1285.61 1930.69 1285.15 1930.63 1284.93 1931.08 1284.86 1930.6 1284.4 1930.53 1284.82 1930.3 1284.75 1929.81 1285.08 1930.15 1285.51 1929.91 1285.28 1930.36"/>
  <polygon class="cls-3" points="1437.65 2024.28 1437.2 2024.33 1437.56 2024.02 1437.4 2023.61 1437.77 2023.83 1438.13 2023.52 1438.01 2023.97 1438.38 2024.19 1437.93 2024.25 1437.81 2024.69 1437.65 2024.28"/>
  <polygon class="cls-4" points="1385.84 1818.99 1387.33 1818.42 1386.48 1819.69 1387.52 1820.83 1385.96 1820.48 1385.12 1821.75 1385 1820.26 1383.45 1819.91 1384.93 1819.34 1384.81 1817.86 1385.84 1818.99"/>
  <polygon class="cls-2" points="1279.52 2063.94 1279.69 2064.23 1279.38 2064.11 1279.16 2064.39 1279.19 2064.03 1278.88 2063.91 1279.21 2063.82 1279.24 2063.46 1279.41 2063.76 1279.74 2063.66 1279.52 2063.94"/>
  <path class="cls-4" d="M1199.92,1844.54c-2.24.91-4.68-.09-5.46-2.22-.78-2.13.41-4.6,2.65-5.5s4.68.09,5.46,2.22c.78,2.13-.41,4.6-2.65,5.5Z"/>
  <path class="cls-3" d="M1454.9,1858.18c.7,1.42,2.51,2.02,4.05,1.33s2.22-2.4,1.52-3.82-2.51-2.02-4.05-1.33-2.22,2.4-1.52,3.82Z"/>
  <ellipse class="cls-4" cx="1419.36" cy="1992.84" rx="1.3" ry="1.4" transform="translate(-1026.67 2047.26) rotate(-55.81)"/>
  <polygon class="cls-3" points="1431.92 1953.16 1432.23 1953.05 1432.04 1953.33 1432.23 1953.62 1431.92 1953.51 1431.73 1953.8 1431.73 1953.45 1431.41 1953.34 1431.73 1953.23 1431.73 1952.88 1431.92 1953.16"/>
  <polygon class="cls-5" points="1674.45 1957.24 1676.03 1958.45 1674.01 1958.48 1673.31 1960.5 1672.77 1958.5 1670.75 1958.53 1672.43 1957.27 1671.89 1955.27 1673.47 1956.49 1675.15 1955.22 1674.45 1957.24"/>
  <polygon class="cls-2" points="1834.1 2058.79 1835 2058.51 1834.4 2059.27 1834.89 2060.05 1834.03 2059.75 1833.44 2060.51 1833.5 2059.56 1832.65 2059.25 1833.55 2058.97 1833.61 2058.01 1834.1 2058.79"/>
  <polygon class="cls-3" points="1747.62 1900.79 1756.85 1899.64 1750.3 1905.7 1754.63 1913.64 1746.25 1909.45 1739.69 1915.51 1741.07 1906.86 1732.68 1902.66 1741.91 1901.51 1743.29 1892.85 1747.62 1900.79"/>
  <polygon class="cls-3" points="1664.49 2105.27 1667.65 2099.75 1668.39 2105.82 1674.71 2106.71 1668.85 2109.57 1669.59 2115.64 1665.23 2111.34 1659.37 2114.2 1662.53 2108.68 1658.17 2104.38 1664.49 2105.27"/>
  <path class="cls-3" d="M1581.17,1847.26c-.7-1.15-.34-2.57.8-3.17s2.63-.17,3.33.98.34,2.57-.8,3.17-2.63.17-3.33-.98Z"/>
  <path class="cls-1" d="M1868.91,1895.13c-.98.25-1.64,1.24-1.46,2.22s1.12,1.56,2.1,1.31,1.64-1.24,1.46-2.22-1.12-1.56-2.1-1.31Z"/>
  <ellipse class="cls-3" cx="1763.88" cy="1967.38" rx="1.12" ry="1.04" transform="translate(-197.47 196.8) rotate(-6.05)"/>
  <polygon class="cls-3" points="2025.73 1937.94 2023.4 1937.8 2025.27 1936.51 2024.52 1934.2 2026.43 1935.71 2028.3 1934.42 2027.6 1936.64 2029.51 1938.15 2027.17 1938.02 2026.48 1940.24 2025.73 1937.94"/>
  <polygon class="cls-3" points="2207.39 2060.09 2208.95 2056.5 2209.67 2060.24 2213.36 2060.47 2210.12 2062.55 2210.83 2066.28 2208.11 2063.83 2204.86 2065.91 2206.43 2062.31 2203.7 2059.86 2207.39 2060.09"/>
  <polygon class="cls-4" points="2108.52 1839.64 2109.78 1837.7 2109.88 1840.11 2112.08 1840.86 2109.94 1841.59 2110.04 1844 2108.62 1842.05 2106.47 1842.78 2107.74 1840.84 2106.32 1838.88 2108.52 1839.64"/>
  <polygon class="cls-2" points="2032.01 2049.02 2030.75 2051.59 2030.3 2048.88 2027.54 2048.64 2030.03 2047.2 2029.58 2044.48 2031.56 2046.3 2034.04 2044.85 2032.78 2047.43 2034.76 2049.25 2032.01 2049.02"/>
  <path class="cls-4" d="M2011.24,1777.05c-.57-.31-.82-1.03-.56-1.61s.94-.79,1.52-.48.82,1.03.56,1.61-.94.79-1.52.48Z"/>
  <ellipse class="cls-3" cx="2229.71" cy="1870.81" rx=".59" ry=".63" transform="translate(-640.12 1385.39) rotate(-30.4)"/>
  <ellipse class="cls-4" cx="2071.94" cy="1960.32" rx=".99" ry="1.06" transform="translate(-58.19 3857.24) rotate(-85.1)"/>
  <polygon class="cls-3" points="2118.92 1979.33 2118.84 1980.23 2118.39 1979.49 2117.53 1979.74 2118.11 1979.03 2117.67 1978.29 2118.47 1978.59 2119.06 1977.88 2118.97 1978.78 2119.78 1979.08 2118.92 1979.33"/>
  <polygon class="cls-5" points="108.33 2257.66 108.69 2255.43 109.8 2257.44 112.19 2257.08 110.49 2258.67 111.61 2260.67 109.45 2259.66 107.76 2261.26 108.11 2259.03 105.95 2258.02 108.33 2257.66"/>
  <polygon class="cls-2" points="303.59 2394.84 302.67 2394.65 303.49 2394.29 303.34 2393.39 304 2394.06 304.83 2393.7 304.41 2394.48 305.08 2395.15 304.16 2394.96 303.74 2395.74 303.59 2394.84"/>
  <polygon class="cls-3" points="190.37 2192.49 190.14 2192.27 190.46 2192.33 190.62 2192.06 190.66 2192.36 190.98 2192.42 190.69 2192.55 190.73 2192.85 190.5 2192.63 190.21 2192.76 190.37 2192.49"/>
  <polygon class="cls-3" points="108.82 2397.04 107.82 2397.82 108.12 2396.58 106.98 2395.84 108.3 2395.81 108.6 2394.57 109.12 2395.8 110.44 2395.77 109.44 2396.55 109.96 2397.78 108.82 2397.04"/>
  <ellipse class="cls-3" cx="68.16" cy="2198.11" rx=".5" ry=".47" transform="translate(-1863.79 1147.45) rotate(-59.69)"/>
  <ellipse class="cls-1" cx="300" cy="2275.86" rx=".86" ry=".8" transform="translate(-1817.29 1388.93) rotate(-59.76)"/>
  <ellipse class="cls-3" cx="159.78" cy="2329.3" rx=".34" ry=".37" transform="translate(-756.39 181.79) rotate(-19.18)"/>
  <polygon class="cls-3" points="481.81 2273.77 481.69 2274.14 481.58 2273.77 481.23 2273.77 481.52 2273.54 481.41 2273.18 481.7 2273.41 481.99 2273.18 481.88 2273.55 482.17 2273.78 481.81 2273.77"/>
  <polygon class="cls-3" points="690.88 2369.36 692.29 2374.31 688.25 2371.34 683.98 2374.56 685.75 2369.51 681.71 2366.55 686.84 2366.4 688.61 2361.35 690.02 2366.3 695.15 2366.14 690.88 2369.36"/>
  <polygon class="cls-4" points="565.21 2198.84 566.2 2200.1 564.71 2199.71 563.89 2201.11 563.79 2199.47 562.31 2199.07 563.73 2198.45 563.63 2196.81 564.61 2198.07 566.03 2197.45 565.21 2198.84"/>
  <polygon class="cls-2" points="560.1 2405.01 559.26 2405.65 559.6 2404.62 558.8 2403.99 559.82 2403.98 560.16 2402.95 560.44 2403.98 561.46 2403.97 560.62 2404.62 560.91 2405.64 560.1 2405.01"/>
  <ellipse class="cls-4" cx="435.03" cy="2136.92" rx=".22" ry=".23" transform="translate(-236.37 62.1) rotate(-6.42)"/>
  <ellipse class="cls-3" cx="723.3" cy="2194.24" rx=".55" ry=".59" transform="translate(-1195.12 906.79) rotate(-37.89)"/>
  <ellipse class="cls-4" cx="514.32" cy="2338.54" rx=".54" ry=".58" transform="translate(-604.19 221.41) rotate(-15.44)"/>
  <polygon class="cls-3" points="595.79 2311.76 597.22 2316.01 593.59 2313.23 590.03 2315.61 591.34 2311.52 587.7 2308.74 592.15 2308.98 593.46 2304.89 594.9 2309.13 599.35 2309.38 595.79 2311.76"/>
  <polygon class="cls-5" points="856.18 2309.49 854.03 2307.1 857.05 2307.83 858.47 2305.15 858.92 2308.28 861.94 2309 859.2 2310.21 859.65 2313.34 857.5 2310.96 854.76 2312.17 856.18 2309.49"/>
  <polygon class="cls-2" points="1074.29 2409.59 1076.29 2406.79 1076.44 2410.31 1079.91 2411.48 1076.53 2412.48 1076.68 2416 1074.44 2413.1 1071.05 2414.11 1073.05 2411.31 1070.81 2408.41 1074.29 2409.59"/>
  <polygon class="cls-3" points="945.3 2202.4 945.82 2203.27 944.85 2202.9 944.14 2203.7 944.26 2202.67 943.3 2202.3 944.34 2202.03 944.46 2201 944.98 2201.87 946.02 2201.6 945.3 2202.4"/>
  <polygon class="cls-3" points="872.45 2388.23 872.92 2387.82 872.77 2388.4 873.3 2388.69 872.68 2388.77 872.53 2389.35 872.3 2388.81 871.68 2388.89 872.15 2388.48 871.92 2387.94 872.45 2388.23"/>
  <ellipse class="cls-3" cx="804.12" cy="2189.22" rx=".87" ry=".93" transform="translate(-812.48 508.18) rotate(-23.71)"/>
  <ellipse class="cls-1" cx="1117.6" cy="2217.73" rx=".44" ry=".47" transform="translate(-344.77 210.54) rotate(-9.33)"/>
  <path class="cls-3" d="M893.11,2298.34c-.26.19-.33.56-.16.82s.51.32.77.14.33-.56.16-.82-.51-.32-.77-.14Z"/>
  <polygon class="cls-3" points="1312.54 2224.42 1313.17 2224.42 1312.63 2224.8 1312.78 2225.41 1312.3 2225.03 1311.76 2225.4 1312 2224.79 1311.52 2224.41 1312.15 2224.42 1312.39 2223.81 1312.54 2224.42"/>
  <polygon class="cls-3" points="1446.39 2393.41 1446.5 2395.64 1445.05 2393.97 1442.87 2394.88 1444.15 2392.95 1442.7 2391.28 1444.94 2391.75 1446.22 2389.82 1446.33 2392.04 1448.57 2392.51 1446.39 2393.41"/>
  <polygon class="cls-4" points="1368.68 2218.69 1364.69 2221.1 1366.31 2216.81 1362.47 2213.77 1367.31 2214.16 1368.93 2209.88 1370.3 2214.41 1375.14 2214.8 1371.15 2217.2 1372.52 2221.73 1368.68 2218.69"/>
  <polygon class="cls-2" points="1288.87 2394.68 1288.86 2394.31 1289.1 2394.6 1289.48 2394.48 1289.25 2394.79 1289.5 2395.08 1289.11 2394.98 1288.88 2395.29 1288.87 2394.91 1288.49 2394.81 1288.87 2394.68"/>
  <ellipse class="cls-4" cx="1187.58" cy="2176.75" rx=".79" ry=".84" transform="translate(-325.93 212.6) rotate(-9)"/>
  <ellipse class="cls-3" cx="1494.96" cy="2214.26" rx=".19" ry=".18" transform="translate(-960.56 3267.01) rotate(-79.18)"/>
  <ellipse class="cls-4" cx="1309.25" cy="2324.58" rx=".53" ry=".57" transform="translate(-1336.35 1980.22) rotate(-53.19)"/>
  <polygon class="cls-3" points="1439.03 2315.45 1442.21 2316.28 1439.19 2317.35 1439.46 2320.43 1437.33 2318.02 1434.31 2319.09 1436.01 2316.53 1433.88 2314.11 1437.06 2314.94 1438.76 2312.37 1439.03 2315.45"/>
  <polygon class="cls-5" points="1680.45 2309.85 1680.69 2308.59 1681.27 2309.71 1682.6 2309.49 1681.63 2310.41 1682.21 2311.53 1681.03 2310.98 1680.05 2311.9 1680.3 2310.63 1679.11 2310.08 1680.45 2309.85"/>
  <polygon class="cls-2" points="1801.53 2409.65 1801.45 2408.6 1802.12 2409.37 1803.07 2408.9 1802.53 2409.84 1803.2 2410.6 1802.19 2410.42 1801.65 2411.36 1801.58 2410.3 1800.57 2410.12 1801.53 2409.65"/>
  <polygon class="cls-3" points="1728.68 2246.17 1730.41 2250.67 1726.2 2247.92 1722.19 2250.75 1723.61 2246.22 1719.4 2243.48 1724.48 2243.43 1725.89 2238.9 1727.61 2243.39 1732.69 2243.34 1728.68 2246.17"/>
  <polygon class="cls-3" points="1638.35 2418.21 1637.66 2417.2 1638.86 2417.59 1639.68 2416.57 1639.6 2417.82 1640.8 2418.21 1639.55 2418.6 1639.47 2419.85 1638.78 2418.84 1637.53 2419.23 1638.35 2418.21"/>
  <ellipse class="cls-3" cx="1591.82" cy="2184.27" rx=".57" ry=".53" transform="translate(-1026.25 1512.98) rotate(-39.54)"/>
  <path class="cls-1" d="M1895.72,2267.46c-.37-1.15-1.54-1.76-2.61-1.36s-1.64,1.65-1.27,2.8,1.54,1.76,2.61,1.36,1.64-1.65,1.27-2.8Z"/>
  <path class="cls-3" d="M1655.45,2328.18c-1.08,1.45-.83,3.59.56,4.78,1.39,1.19,3.39.99,4.47-.46,1.08-1.45.83-3.59-.56-4.78-1.39-1.19-3.39-.99-4.47.46Z"/>
  <polygon class="cls-3" points="2061.14 2310.04 2060.54 2306.41 2063.02 2308.93 2066.07 2307.14 2064.56 2310.49 2067.04 2313.01 2063.62 2312.56 2062.11 2315.91 2061.51 2312.28 2058.09 2311.83 2061.14 2310.04"/>
  <polygon class="cls-3" points="2257.8 2373.97 2258.36 2371.89 2259.05 2373.9 2261.07 2373.78 2259.47 2375.14 2260.15 2377.15 2258.48 2375.99 2256.88 2377.35 2257.45 2375.26 2255.78 2374.09 2257.8 2373.97"/>
  <polygon class="cls-4" points="2097.06 2206.77 2095.61 2208.67 2095.58 2206.24 2093.17 2205.37 2095.56 2204.74 2095.52 2202.31 2097.03 2204.34 2099.41 2203.7 2097.96 2205.6 2099.47 2207.63 2097.06 2206.77"/>
  <polygon class="cls-2" points="2074.35 2384.69 2076.33 2387.33 2073.17 2386.23 2071.27 2388.72 2071.22 2385.54 2068.06 2384.44 2071.18 2383.58 2071.13 2380.41 2073.12 2383.05 2076.24 2382.2 2074.35 2384.69"/>
  <ellipse class="cls-4" cx="1950.65" cy="2160.79" rx=".75" ry=".7" transform="translate(-706.37 971.56) rotate(-23.81)"/>
  <ellipse class="cls-3" cx="2271.89" cy="2225.52" rx=".6" ry=".64" transform="translate(-454.32 3863.26) rotate(-75.4)"/>
  <ellipse class="cls-4" cx="2099.85" cy="2312.42" rx=".17" ry=".18" transform="translate(-311.74 327.25) rotate(-8.3)"/>
  <polygon class="cls-3" points="2196.1 2317.8 2196.43 2317.33 2196.43 2317.88 2196.97 2318.02 2196.43 2318.22 2196.43 2318.78 2196.1 2318.35 2195.56 2318.56 2195.89 2318.09 2195.56 2317.66 2196.1 2317.8"/>
</svg>