<?xml version="1.0" encoding="UTF-8"?>
<svg xmlns="http://www.w3.org/2000/svg" viewBox="0 0 2804.59 1435.21">
  <defs>
    <style>
      .cls-1 {
        fill: #0f5b90;
      }

      .cls-2 {
        fill: #0f8eae;
      }

      .cls-3 {
        fill: #8ce7ff;
      }
    </style>
  </defs>
  <g id="Layer_2" data-name="Layer 2">
    <g>
      <path class="cls-1" d="M1925.73,1044.42v-107.48h-1001.61v104.05c-2.58,22.43,5.93,46.25,28.56,61.67l434.87,296.27c22.46,15.3,51.99,15.3,74.45,0l434.87-296.27c21.48-14.63,30.23-36.84,28.86-58.23Z"/>
      <path class="cls-1" d="M1950.73,1044.42v-107.48c0-13.51-11.45-25-25-25h-960.89c-13,0-26.02-.15-39.02,0-.57,0-1.13,0-1.7,0-13.51,0-25,11.45-25,25v100.26c0,3.54-.38,7.02-.44,10.55-.22,14.46,3.4,28.26,9.55,41.23,8.71,18.38,24.45,30.23,40.68,41.29,12.48,8.5,24.96,17,37.44,25.5,43.36,29.54,86.72,59.08,130.08,88.62,49.4,33.65,98.8,67.31,148.19,100.96,33.1,22.55,66.19,45.1,99.29,67.65,12.6,8.58,24.85,16.69,40.25,20.01,24.18,5.22,49.93,1.2,70.65-12.65,2.02-1.35,4.03-2.74,6.04-4.11,30.16-20.55,60.32-41.09,90.47-61.64,48.75-33.22,97.51-66.43,146.26-99.65,45.01-30.66,90.02-61.33,135.03-91.99,14.17-9.66,28.35-19.31,42.52-28.97,8.74-5.95,17.79-11.69,25.82-18.59,20.13-17.3,31.18-44.62,29.76-70.99-.7-13.04-11-25.63-25-25-12.94.58-25.75,11.01-25,25,.15,2.74.18,5.48.02,8.22-.08,1.36-.34,2.75-.37,4.11.12-6.52.7-4.44.26-2.56-.63,2.71-1.19,5.41-2.05,8.06-.4,1.23-1.24,2.68-1.43,3.95l1.41-3.38c-.39.86-.8,1.71-1.23,2.56-1.32,2.59-2.9,4.97-4.45,7.42-2.71,4.29,3.04-3.48.78-.94-.84.94-1.62,1.92-2.47,2.84-.53.57-6.69,6.54-6.8,6.39-.16-.21,4.37-3.16,1.2-.96-.47.33-.91.64-1.37.96-1.59,1.1-3.2,2.18-4.79,3.27-10.44,7.11-20.88,14.23-31.32,21.34-40.84,27.82-81.67,55.64-122.51,83.47-49.34,33.62-98.69,67.24-148.03,100.85-36.11,24.6-72.21,49.2-108.32,73.8-6.56,4.47-13.08,8.99-19.67,13.4-.52.35-1.03.69-1.56,1.04-2.27,1.46-4.65,2.65-7.01,3.95-4.88,2.68,5.4-1.73.13-.02-1.75.57-3.47,1.2-5.25,1.7-1.26.35-2.53.67-3.81.95l-1.54.31c-2.72.46-2.05.4,2.01-.18-2.5-.47-5.95.48-8.56.45-1.3-.02-2.6-.06-3.9-.16l-1.56-.13c-2.74-.3-2.07-.21,2,.29-.73-.6-3.64-.7-4.6-.94-1.53-.37-3.04-.79-4.54-1.27-.54-.17-4.07-1.81-4.46-1.6l3.05,1.27c-.97-.44-1.93-.91-2.87-1.4-2.4-1.24-4.69-2.63-6.94-4.13-.1-.07-.2-.14-.3-.2-.73-.49-1.46-.99-2.19-1.49-26.19-17.85-52.39-35.69-78.58-53.54-46.97-32-93.94-64-140.91-96-46.32-31.56-92.65-63.12-138.97-94.68-24.25-16.52-48.53-32.99-72.74-49.56-.39-.27-.79-.53-1.18-.8,1.68,1.16-2.49-1.75-2-1.41-2.91-1.97,4.55,4.1.69.45-2.24-2.11-4.5-4.12-6.55-6.42-.44-.5-3.54-4.38-.87-.9s-.24-.44-.61-1.01c-1.65-2.46-2.85-6.64-4.86-8.67.26.26,2.21,5.94.9,2.11-.45-1.31-.94-2.6-1.35-3.93-.81-2.64-1.36-5.31-1.91-8-.45-2.16.59-3.06.32,2.59.06-1.31-.25-2.75-.31-4.07-.13-2.71-.09-5.43.12-8.13s.26-5.15.26-7.78c0-26.34,0-52.68,0-79.02,0-6.65,0-13.29,0-19.94l-25,25h960.89c13,0,26.02.23,39.02,0,.57,0,1.13,0,1.7,0-8.33-8.33-16.67-16.67-25-25v107.48c0,13.08,11.5,25.6,25,25s25-10.98,25-25Z"/>
    </g>
    <g>
      <rect class="cls-1" x="923.96" y="332.7" width="1001.61" height="222.16" rx="62.35" ry="62.35"/>
      <path class="cls-1" d="M1863.22,529.87c-11.42,0-22.84,0-34.26,0-30.2,0-60.4,0-90.6,0-43.29,0-86.59,0-129.88,0-50.25,0-100.5,0-150.76,0s-102.98,0-154.47,0h-310.36c-1.8,0-3.61,0-5.41,0-.36,0-.72,0-1.08,0-.5,0-.96,0-1.49-.02-1.15-.03-2.3-.09-3.45-.17-2.42-.19-4.21-1.46,1.91.35-2.12-.63-4.42-.8-6.57-1.38s-4.22-1.66-6.29-2.05c4.96.93,4.36,1.99,2.34.99-1.17-.58-2.35-1.13-3.51-1.75-1.53-.82-3.02-1.71-4.47-2.66-1.05-.69-2.09-1.65-3.19-2.23l3.02,2.32c-.67-.54-1.33-1.1-1.98-1.67-1.46-1.29-2.85-2.64-4.18-4.05-1.86-1.98-4.27-6.64-.67-.39-2.18-3.78-4.67-7.23-6.64-11.17-2.22-4.42,1.98,5.85.52,1.11-.26-.84-.58-1.67-.85-2.51-.67-2.12-1.22-4.28-1.65-6.46-.17-.88-.28-1.78-.47-2.66,1.49,6.79.49,4.41.4,2.59s-.22-3.71-.24-5.58,0-3.56,0-5.35c0-22.56,0-45.12,0-67.68,0-7.82-.03-15.63,0-23.45,0-.78,0-1.56.02-2.34.03-1.36.78-8.25.09-3.52s.04.15.2-.68c.26-1.31.57-2.62.91-3.91.51-1.91,1.35-3.77,1.82-5.68.77-3.13-2.87,5.96-.75,1.73.39-.78.75-1.58,1.14-2.35.99-1.93,2.08-3.81,3.27-5.63.47-.73.99-1.42,1.46-2.14,2.53-3.83-4.23,4.63-.3.48,1.34-1.41,2.6-2.87,4.01-4.22.78-.75,1.61-1.44,2.39-2.18,1.61-1.53,3.95-2.04-1.53,1.07,3.79-2.15,7.24-4.67,11.17-6.64,3.52-1.76-2.06.95-2.34.99,1.17-.14,2.6-.95,3.74-1.31,1.7-.53,3.41-.99,5.15-1.38,1.26-.28,2.76-.33,3.97-.75-.29.1-6.67.65-2.59.4,1.85-.11,3.67-.22,5.53-.24.81,0,1.62,0,2.44,0h17.61c26.27,0,52.55,0,78.82,0,40.56,0,81.13,0,121.69,0,49.07,0,98.13,0,147.2,0h155.18c48.54,0,97.08,0,145.63,0h118.55c24.65,0,49.29,0,73.94,0,4.93,0,9.87-.01,14.8,0,.33,0,.65,0,.98,0,.95,0,1.9.02,2.85.06,1.28.06,2.84.44,4.11.31-.28.03-6.6-1.12-2.62-.32,2.41.49,4.79,1,7.15,1.71s7.47,3.64.84-.02c1.9,1.05,3.94,1.84,5.84,2.92,1.7.96,3.3,2.07,4.94,3.12,2.03,1.3,2.49,3.2-1.44-1.18.84.94,2.01,1.69,2.94,2.54,1.59,1.46,3.1,3,4.53,4.62.54.61,1.08,1.44,1.67,1.98-4.01-3.59-2.72-3.72-1.55-1.97s2.42,3.58,3.49,5.48c.43.76.84,1.52,1.24,2.3s2.97,6.12.92,1.78.58,2.03.93,3.24c.63,2.16,1.05,4.32,1.52,6.52s-.58,3.07-.32-2.62c-.05,1.1.22,2.31.28,3.42.07,1.2.09,2.39.1,3.59.02,2.01,0,4.02,0,6.03,0,10.25,0,20.5,0,30.75,0,19.94.07,39.88,0,59.82,0,1.17,0,2.34-.06,3.52-.04.92-.14,1.83-.18,2.75-.22,5.13,1.27-6.24.18-1.26-.38,1.75-.7,3.5-1.16,5.23-.55,2.06-1.68,4.21-2.05,6.29.85-4.83,2.01-4.4.99-2.34-.58,1.17-1.13,2.35-1.75,3.51-.82,1.53-1.71,3.02-2.66,4.47-.69,1.05-1.65,2.09-2.23,3.19.14-.28,4.11-4.84,1.49-2.02-1.47,1.59-2.86,3.21-4.43,4.71-.93.9-6.02,4.99-2.37,2.27s-1.79,1.15-2.78,1.77c-1.84,1.15-3.75,2.2-5.7,3.15-.77.38-1.64.68-2.38,1.1,5.85-3.27,3.71-1.44,1.68-.84-1.92.56-3.79,1.23-5.73,1.7-1.09.27-2.18.5-3.28.7-2.54.48-4.01-.52,1.96-.19-2.24-.12-4.63.35-6.88.38-13.07.14-25.61,11.4-25,25s10.99,25.15,25,25c47.49-.52,86.63-39.03,87.34-86.65.27-18.29,0-36.6,0-54.89,0-11.13,0-22.26,0-33.39,0-10.16-.13-20.03-2.37-30.08-8.74-39.23-45.55-66.81-85.13-67.15-13.17-.11-26.35,0-39.52,0-31.95,0-63.9,0-95.85,0-44.82,0-89.64,0-134.47,0-51.49,0-102.98,0-154.48,0s-104.07,0-156.1,0h-139.34c-34.73,0-69.46,0-104.19,0-16.89,0-33.78,0-50.66,0-24.2,0-47.89,8.86-64.82,26.51-15.72,16.38-24.46,38.17-24.68,60.85-.06,5.9,0,11.81,0,17.71,0,23.59,0,47.19,0,70.78,0,10.27.22,20.36,2.67,30.46,5.34,21.95,20.06,41.15,39.1,53.03,21.86,13.64,45.3,12.82,69.55,12.82h84.32c42.16,0,84.33,0,126.49,0,50.6,0,101.2,0,151.8,0,52.3,0,104.6,0,156.9,0,48.37,0,96.73,0,145.1,0,38.14,0,76.28,0,114.42,0,21.79,0,43.57,0,65.36,0h8.55c13.08,0,25.6-11.5,25-25-.61-13.55-10.98-25-25-25Z"/>
    </g>
    <g>
      <path class="cls-1" d="M2779.5,751.53v-85.74h-146.48l-406.66-106.65c-41.91-10.99-82.88,20.63-82.88,63.95v264.31c0,43.32,40.98,74.94,82.89,63.95l503.9-132.16c34.36-9.01,50.77-38.8,49.23-67.66Z"/>
      <path class="cls-1" d="M2804.5,751.53v-85.74c0-13.51-11.45-25-25-25h-141.82c-1.28,0-2.59-.09-3.86,0-3.51.25,6.45,1.22,5.76.87-3.07-1.56-7.44-1.95-10.74-2.82-8.84-2.32-17.67-4.63-26.51-6.95-28.45-7.46-56.9-14.92-85.35-22.38-35.4-9.28-70.79-18.57-106.19-27.85-33.37-8.75-66.75-17.5-100.12-26.26-21.92-5.75-43.85-11.5-65.77-17.25-3.89-1.02-7.78-2.07-11.68-3.06-25.74-6.55-54.54-2.37-76.1,13.68-23.96,17.83-38.39,44.35-38.62,74.5-.04,5.71,0,11.43,0,17.15,0,30.33,0,60.65,0,90.98,0,35.32,0,70.65,0,105.97,0,17.58-.67,35.3.06,52.87,1.32,31.76,18.98,61.87,47.24,77.05,20.92,11.23,44.89,13.94,67.85,8,11.83-3.06,23.64-6.2,35.46-9.3,25.86-6.78,51.72-13.57,77.59-20.35,33.73-8.85,67.46-17.69,101.19-26.54,35.92-9.42,71.84-18.84,107.76-28.26,31.85-8.35,63.7-16.71,95.55-25.06,22.08-5.79,44.16-11.58,66.25-17.37,17.09-4.48,34.67-8.19,49.22-18.94,24.71-18.25,39.22-46.97,37.85-77.93-.58-13.05-11.09-25.62-25-25-13.05.58-25.62,11.01-25,25,.12,2.72.13,5.44-.05,8.16-.05.83-.2,1.67-.21,2.5-.03,2.78.47-4.11.51-3.53.12,1.53-.58,3.47-.91,4.94-.59,2.66-1.34,5.29-2.25,7.86-.85,2.42-3.26,5.04.41-.7-.78,1.22-1.28,2.69-1.97,3.97-1.42,2.65-3.16,5.01-4.76,7.54-1.33,2.12,2.12-2.66,1.94-2.52-.48.38-.83,1.04-1.25,1.48-1.19,1.26-2.33,2.57-3.58,3.78-1.11,1.08-2.28,2.06-3.42,3.1-3.13,2.84,4.41-2.94.8-.64-2.95,1.88-5.81,3.74-8.96,5.27-.62.3-1.35.55-1.94.91-.13.08,5.17-1.97,2.62-1.12-1.65.54-3.26,1.2-4.93,1.71-1,.3-2,.58-3,.85-.27.07-.54.14-.82.21-1.42.38-2.84.74-4.26,1.12-15.88,4.17-31.76,8.33-47.64,12.5-27.92,7.32-55.85,14.65-83.77,21.97-34.28,8.99-68.56,17.98-102.84,26.97-34.95,9.17-69.9,18.33-104.85,27.5-29.93,7.85-59.86,15.7-89.79,23.55-19.23,5.04-38.45,10.08-57.68,15.13-3.81,1-7.63,2.01-11.44,3-.24.06-.48.13-.72.19-1.38.35-2.77.68-4.17.96-.69.13-1.38.23-2.06.37-3.16.63,5.73-.55,2.53-.35-1.59.1-3.17.27-4.77.31-2.78.08-6.71.47-9.36-.41-.47-.16,6.07,1.14,3.37.42-.63-.17-1.31-.23-1.94-.35-1.71-.34-3.41-.75-5.09-1.23-1.46-.42-2.89-.92-4.34-1.4-.59-.19-1.22-.57-1.82-.69-.24-.05,5.22,2.47,2.99,1.25-2.85-1.55-5.76-2.86-8.51-4.62-1.09-.7-2.13-1.46-3.19-2.18-3.42-2.34,4.35,3.82.52.3-2.22-2.05-4.41-4.09-6.4-6.37-.57-.65-1.08-1.35-1.67-1.98-1.72-1.84,2.02,2.7,1.93,2.5-.5-1.12-1.54-2.18-2.21-3.21-1.79-2.78-3.05-5.78-4.69-8.62-1.24-2.17,1.26,3.08,1.24,2.93-.11-.75-.69-1.82-.92-2.5-.44-1.27-.83-2.55-1.19-3.84-.42-1.52-.78-3.06-1.09-4.61-.13-.67-.25-1.34-.37-2.02-.65-3.44.37,1.83.33,2.54.13-2.42-.35-4.98-.36-7.43-.04-6.09,0-12.18,0-18.26,0-30.04,0-60.09,0-90.13,0-34.76,0-69.52,0-104.27,0-17.07-.14-34.15,0-51.23,0-.95.02-1.9.06-2.85.05-1.11.75-6.92.03-2.24s.11-.4.31-1.42c.35-1.77.78-3.52,1.28-5.26.43-1.5.98-2.96,1.45-4.45,1.29-4.08-2.41,4.88-.49,1.08,1.48-2.94,2.96-5.81,4.78-8.57.57-.86,3.38-4.58.68-1.17-2.84,3.59.64-.7,1.34-1.47,2.02-2.26,4.25-4.25,6.46-6.31,3.04-2.82-4.79,3.27-.48.35,1.25-.85,2.48-1.7,3.76-2.49,2.57-1.58,5.47-2.63,8.01-4.2.12-.08-5.36,1.85-2.97,1.29.61-.14,1.24-.47,1.83-.67,1.44-.5,2.89-.95,4.36-1.35s2.96-.76,4.46-1.06c.64-.13,1.32-.19,1.94-.35,2.68-.71-6.82.55-2.05.28,2.92-.16,5.79-.36,8.72-.25,1.37.05,2.72.2,4.09.28,3.2.2-5.69-.98-2.53-.35.92.18,1.84.32,2.75.51,1.79.37,3.55.83,5.32,1.3,15.45,4.03,30.89,8.1,46.34,12.15,29.68,7.78,59.35,15.57,89.03,23.35,35.17,9.22,70.34,18.45,105.51,27.67,31.93,8.37,63.86,16.75,95.79,25.12l59.86,15.7c4.96,1.3,9.76,2.79,14.93,3.06,7.83.42,15.8,0,23.63,0,33.69,0,67.38,0,101.06,0h21.78c-8.33-8.33-16.67-16.67-25-25v85.74c0,13.08,11.5,25.6,25,25s25-10.98,25-25Z"/>
    </g>
    <g>
      <path class="cls-1" d="M25.23,740.2v-85.74h146.48s406.66-106.65,406.66-106.65c41.91-10.99,82.88,20.63,82.88,63.95v264.31c0,43.32-40.98,74.94-82.89,63.95l-503.9-132.16c-34.36-9.01-50.77-38.8-49.23-67.66Z"/>
      <path class="cls-1" d="M50.23,740.2c0-25.01,0-50.02,0-75.03,0-3.57,0-7.14,0-10.71l-25,25c24.58,0,49.16,0,73.74,0,16.87,0,33.73,0,50.6,0,9.36,0,19.54,1.06,28.79-.89,11.1-2.34,22.08-5.79,33.05-8.67,27.22-7.14,54.44-14.28,81.66-21.42,34.69-9.1,69.38-18.2,104.07-27.29l100.28-26.3c23.43-6.14,46.85-12.29,70.28-18.43,5.22-1.37,10.44-2.75,15.66-4.11,2.38-.62,4.76-1.15,7.17-1.64,4.18-.85-6.06.56-.48.11,1.58-.13,3.17-.2,4.75-.21,1.34,0,2.69.02,4.03.1.89.05,1.77.15,2.66.2,3.57.21-2.22-.46-2.7-.39,2.42-.32,5.98,1.19,8.31,1.88,1.46.43,2.88.97,4.32,1.44.82.27,3.11,1.28-.58-.3-4.22-1.81-.11,0,.56.33,2.51,1.23,4.95,2.62,7.29,4.15,1.24.82,2.42,1.85,3.69,2.6.18.11-4.28-3.69-2.54-1.9.59.61,1.32,1.12,1.95,1.69,2.08,1.87,4.04,3.88,5.86,6,.53.61,1.06,1.42,1.65,2,.09.08-3.08-4.62-1.96-2.47.79,1.51,1.98,2.88,2.87,4.35,1.47,2.43,2.45,5.17,3.93,7.56-.18-.29-2.21-6.02-1.04-2.28.2.63.45,1.26.66,1.89.5,1.49.94,2.99,1.33,4.51s.72,3.09,1,4.65c.97,5.42-.33-4.9-.08-.48.11,1.9.22,3.78.23,5.69.04,5.16,0,10.32,0,15.48,0,29.13,0,58.26,0,87.38,0,35.08,0,70.15,0,105.23,0,18.63.13,37.26,0,55.89,0,.09,0,.19,0,.28-.01,1.18-.03,2.36-.1,3.54-.05.93-.17,1.86-.2,2.79-.1,3.14.97-5.58.38-2.53-.56,2.89-1.1,5.76-1.95,8.6-.44,1.47-1.18,2.93-1.5,4.42-.52,2.39,1.32-2.98,1.27-2.91-.56.92-.92,2.01-1.4,2.98-1.27,2.53-2.69,4.98-4.28,7.33-.36.53-.8,1.05-1.12,1.6-1.25,2.16,2.1-2.61,1.96-2.47-1.22,1.16-2.22,2.68-3.37,3.92-1.96,2.11-4.85,3.93-6.58,6.18-.15.19,4.63-3.31,2.52-1.93-.54.35-1.04.76-1.57,1.13-1.41.98-2.86,1.91-4.34,2.79-1.11.65-2.25,1.28-3.4,1.87-.84.43-5.98,2.74-1.72.91s-.75.19-1.88.56c-1.65.54-3.33,1.02-5.02,1.43-1.28.31-2.57.52-3.86.81-4.1.92,6.59-.53.74-.12-3.14.22-6.27.31-9.42.12-.68-.04-1.36-.11-2.04-.15-4.08-.25,2.24.32,2.54.39-1.34-.35-2.77-.47-4.13-.77-.95-.21-1.89-.44-2.84-.68-.27-.07-.54-.14-.8-.21-12.01-3.11-24-6.29-36-9.44-25.46-6.68-50.92-13.35-76.38-20.03-33.23-8.72-66.46-17.43-99.69-26.15-35.31-9.26-70.63-18.52-105.94-27.78-31.71-8.32-63.42-16.63-95.13-24.95-22.42-5.88-44.84-11.76-67.27-17.64l-17.8-4.67c-1.37-.36-2.74-.71-4.11-1.08-.22-.06-.45-.12-.67-.18-1.72-.47-3.43-.97-5.12-1.54-.94-.32-5.7-2.21-1.82-.58s-1.66-.89-2.8-1.51c-2.62-1.42-4.96-3.34-7.54-4.77.3.16,4.79,4.06,1.9,1.43-.49-.45-1.01-.86-1.5-1.3-1.14-1.02-2.25-2.08-3.31-3.18-.9-.94-1.73-1.94-2.62-2.89-2.76-2.95,3.47,5.14.37.49-1.53-2.3-3.02-4.6-4.31-7.06-.51-.96-2.67-5.93-.9-1.58s0-.14-.35-1.12c-.91-2.57-1.66-5.2-2.25-7.86-.32-1.43-.5-2.89-.81-4.32-.59-2.68.74,4.01.48,3.53-.24-.45-.18-1.9-.23-2.5-.21-2.93-.22-5.86-.09-8.79.58-13.08-11.91-25.59-25-25-14.04.63-24.38,10.98-25,25-1.4,31.61,13.79,61.07,39.48,79.13,9.46,6.65,20.52,10.65,31.65,13.57,15.09,3.96,30.18,7.91,45.26,11.87,27.95,7.33,55.89,14.66,83.84,21.99,34.61,9.08,69.23,18.16,103.84,27.23,35.46,9.3,70.92,18.6,106.38,27.9,30.5,8,61,16,91.5,24,19.33,5.07,38.65,10.14,57.98,15.21,3.69.97,7.37,1.96,11.07,2.9,23.6,6.04,48.84,3.11,69.96-9.31,27.77-16.33,44.77-46.51,45.05-78.62.04-4.76,0-9.53,0-14.29,0-29.38,0-58.75,0-88.13,0-35.65,0-71.31,0-106.96,0-18.28.15-36.57,0-54.84-.25-30.88-15.56-58.38-40.71-75.92-21.36-14.9-49.2-18.48-74.13-12.14-13.16,3.35-26.28,6.89-39.42,10.34-29.01,7.61-58.01,15.21-87.02,22.82-35.48,9.31-70.97,18.61-106.45,27.92-33.09,8.68-66.19,17.36-99.28,26.04-21.28,5.58-42.56,11.16-63.84,16.74-3.15.83-7.37,1.2-10.29,2.7.06-.03,9.54-.68,5.45-.88-1.42-.07-2.87,0-4.29,0h-16.33c-34.06,0-68.13,0-102.19,0-7.51,0-15.01,0-22.52,0-13.51,0-25,11.45-25,25,0,25.01,0,50.02,0,75.03,0,3.57,0,7.14,0,10.71,0,13.08,11.5,25.6,25,25s25-10.98,25-25Z"/>
    </g>
  </g>
  <g id="Layer_1" data-name="Layer 1">
    <g>
      <path class="cls-2" d="M1461.99,36.28l434.87,296.27c53.77,36.64,27.84,120.75-37.22,120.75h-869.74c-65.07,0-91-84.11-37.22-120.75L1387.54,36.28c22.46-15.3,51.99-15.3,74.45,0Z"/>
      <path class="cls-1" d="M1449.37,57.87c15.08,10.27,30.15,20.54,45.23,30.81,35.95,24.49,71.9,48.98,107.85,73.48,42.77,29.14,85.55,58.28,128.32,87.43,35.9,24.46,71.81,48.92,107.71,73.38,15.25,10.39,30.58,20.67,45.75,31.17,1.93,1.33,5.34,5.13-.25-.34,1.1,1.08,2.38,1.99,3.52,3.04,1.38,1.28,2.72,2.62,3.99,4.01.62.68,1.21,1.4,1.82,2.09,3.53,3.94-3.29-4.75-.9-1.18,1.78,2.66,3.51,5.31,4.96,8.17.39.77.72,1.59,1.13,2.35,1.43,2.68-2.53-6.56-1.11-2.63.58,1.61,1.18,3.22,1.67,4.86s.91,3.28,1.26,4.94c.51,2.4.7,8.65.09-.64.22,3.37.52,6.68.4,10.07-.06,1.68-.21,3.34-.36,5.02-.33,3.65,1.3-7.58.07-1.18-.66,3.45-1.59,6.86-2.77,10.17-.23.63-.47,1.25-.7,1.88-1.41,3.87,2.53-5.42,1.16-2.73-.68,1.34-1.28,2.73-1.99,4.06-.79,1.48-1.63,2.93-2.52,4.35-.75,1.2-4.62,6.45-1.5,2.43s-.42.42-1.26,1.37c-1.13,1.26-2.3,2.48-3.53,3.65s-2.53,2.27-3.82,3.37c-1.42,1.21-3.43,1.85,2.63-2.02-.87.55-1.68,1.2-2.54,1.77-.98.65-9.16,4.51-9.18,5.04,0-.13,6.39-2.48,3.01-1.29-.85.3-1.69.63-2.54.92-1.91.65-3.85,1.2-5.82,1.67-.95.23-4.94,1.56-5.55,1.07-.16-.13,7.17-.72,3.2-.47-.78.05-1.56.14-2.35.19-1.63.11-3.25.14-4.88.16-12.56.09-25.12,0-37.68,0-31.66,0-63.31,0-94.97,0-44.57,0-89.14,0-133.71,0-51.15,0-102.29,0-153.44,0-51.73,0-103.46,0-155.18,0-46.33,0-92.65,0-138.98,0-34.58,0-69.17,0-103.75,0-16.65,0-33.3,0-49.94,0-1.88,0-3.75,0-5.62-.09-1.26-.06-7.71-.79-2.52-.09s-1-.24-2.28-.53c-1.8-.4-3.59-.87-5.35-1.41-1.17-.36-7.91-3-3.09-.97s-.66-.41-1.8-1.01c-1.54-.81-3.04-1.69-4.51-2.63-1.9-1.22-6.69-5.45.02.33-1.29-1.11-2.63-2.16-3.88-3.32s-2.44-2.35-3.59-3.59c-.89-.97-2.18-3.19-3.28-3.85-.02,0,4.02,5.52,2.09,2.64-.47-.7-.96-1.37-1.43-2.08-1.02-1.54-1.98-3.12-2.87-4.73-.81-1.47-1.53-2.98-2.26-4.49-1.55-3.19,2.61,6.86.42.86-1.21-3.3-2.16-6.7-2.85-10.15-.13-.66-.24-1.32-.37-1.98-.8-4.11.63,6.24.39,3.16-.12-1.51-.3-3-.38-4.51-.18-3.56.1-7.03.3-10.58.18-3.09-1.2,7.27-.42,3.13.13-.67.23-1.33.36-2,.33-1.67.72-3.32,1.18-4.96s.99-3.28,1.58-4.88c2.01-5.43-2.65,5.53-.07.25,1.56-3.2,3.44-6.16,5.43-9.1s-4.23,5.09-.54.76c1.46-1.71,3-3.34,4.62-4.89,1.13-1.08,2.91-3.36,4.35-3.82.04-.01-5.45,3.94-2.23,1.74.66-.46,1.32-.94,1.98-1.4.08-.05.15-.1.23-.16,1.59-1.09,3.18-2.17,4.78-3.25l25.99-17.71c33.16-22.59,66.32-45.18,99.48-67.78,42.4-28.89,84.8-57.78,127.2-86.66,38.34-26.12,76.68-52.24,115.02-78.36,20.11-13.7,40.22-27.4,60.33-41.1.53-.36,1.05-.72,1.58-1.08.08-.05.16-.11.24-.17,1.35-.9,2.72-1.78,4.12-2.59.93-.54,1.87-1.05,2.82-1.54l1.43-.72c2.45-1.13,1.91-.93-1.61.59.7.42,4.94-1.76,5.97-2.06,2.49-.72,5.2-.95,7.64-1.74-5.58,1.82-3.64.42-1.22.22,1.3-.11,2.59-.18,3.89-.21,2.34-.05,4.68.02,7.01.21s4.35,1.6-1.22-.22c.93.3,2.1.38,3.08.59,2.56.55,5.09,1.26,7.57,2.11.8.27,5.42,1.21,1.44.47-3.72-.69.33.24,1.35.76,2.4,1.24,4.69,2.64,6.94,4.13,10.92,7.25,28.14,2.5,34.2-8.97,6.63-12.55,2.69-26.47-8.97-34.2-30.29-20.1-71.12-19.38-101.06.94-6.68,4.53-13.34,9.09-20,13.63-31.23,21.28-62.46,42.55-93.69,63.83-42.77,29.14-85.54,58.28-128.31,87.42-39.93,27.2-79.85,54.4-119.78,81.6-22.66,15.44-45.32,30.87-67.98,46.31-1.24.84-2.48,1.67-3.71,2.52-16.18,11.2-27.92,25.28-35.38,43.48-13.23,32.26-4.01,70.74,19.23,95.92,17.18,18.62,42.05,27.9,67.08,27.95,5.16,0,10.32,0,15.48,0,25.91,0,51.83,0,77.74,0,41.36,0,82.72,0,124.09,0,50.4,0,100.8,0,151.2,0,53.02,0,106.05,0,159.07,0,49.24,0,98.47,0,147.71,0,39.04,0,78.08,0,117.11,0,22.43,0,44.86,0,67.28,0,3.79,0,7.59.08,11.37-.04,38.84-1.27,70.96-25.78,83.91-62.09,11.82-33.15,1.88-73.13-24.83-96.23-6.84-5.91-14.39-10.84-21.84-15.91-26.88-18.32-53.77-36.63-80.65-54.95-41.51-28.28-83.03-56.57-124.54-84.85-41.74-28.44-83.48-56.87-125.22-85.31-27.56-18.78-55.13-37.56-82.69-56.34-3.86-2.63-7.73-5.26-11.59-7.9-10.84-7.38-28.2-2.4-34.2,8.97-6.7,12.67-2.6,26.33,8.97,34.2Z"/>
    </g>
    <g>
      <path class="cls-2" d="M1387.54,1287.24l-434.87-296.27c-53.77-36.64-27.84-120.75,37.22-120.75h869.74c65.07,0,91,84.11,37.22,120.75l-434.87,296.27c-22.46,15.3-51.99,15.3-74.45,0Z"/>
      <path class="cls-1" d="M1400.16,1265.65c-15.08-10.27-30.15-20.54-45.23-30.81-35.95-24.49-71.9-48.98-107.85-73.48-42.77-29.14-85.55-58.28-128.32-87.43-35.9-24.46-71.81-48.92-107.71-73.38-15.25-10.39-30.58-20.67-45.75-31.17-1.93-1.33-5.34-5.13.25.34-1.1-1.08-2.38-1.99-3.52-3.04-1.38-1.28-2.72-2.62-3.99-4.01-.62-.68-1.21-1.4-1.82-2.09-3.53-3.94,3.29,4.75.9,1.18-1.78-2.66-3.51-5.31-4.96-8.17-.39-.77-.72-1.59-1.13-2.35-1.43-2.68,2.53,6.56,1.11,2.63-.58-1.61-1.18-3.22-1.67-4.86s-.91-3.28-1.26-4.94c-.51-2.4-.7-8.65-.09.64-.22-3.37-.52-6.68-.4-10.07.06-1.68.21-3.34.36-5.02.33-3.65-1.3,7.58-.07,1.18.66-3.45,1.59-6.86,2.77-10.17.23-.63.47-1.25.7-1.88,1.41-3.87-2.53,5.42-1.16,2.73.68-1.34,1.28-2.73,1.99-4.06.79-1.48,1.63-2.93,2.52-4.35.75-1.2,4.62-6.45,1.5-2.43s.42-.42,1.26-1.37c1.13-1.26,2.3-2.48,3.53-3.65s2.53-2.27,3.82-3.37c1.42-1.21,3.43-1.85-2.63,2.02.87-.55,1.68-1.2,2.54-1.77.98-.65,9.16-4.51,9.18-5.04,0,.13-6.39,2.48-3.01,1.29.85-.3,1.69-.63,2.54-.92,1.91-.65,3.85-1.2,5.82-1.67.95-.23,4.94-1.56,5.55-1.07.16.13-7.17.72-3.2.47.78-.05,1.56-.14,2.35-.19,1.63-.11,3.25-.14,4.88-.16,12.56-.09,25.12,0,37.68,0,31.66,0,63.31,0,94.97,0,44.57,0,89.14,0,133.71,0,51.15,0,102.29,0,153.44,0,51.73,0,103.46,0,155.18,0,46.33,0,92.65,0,138.98,0,34.58,0,69.17,0,103.75,0,16.65,0,33.3,0,49.94,0,1.88,0,3.75,0,5.62.09,1.26.06,7.71.79,2.52.09s1,.24,2.28.53c1.8.4,3.59.87,5.35,1.41,1.17.36,7.91,3,3.09.97s.66.41,1.8,1.01c1.54.81,3.04,1.69,4.51,2.63,1.9,1.22,6.69,5.45-.02-.33,1.29,1.11,2.63,2.16,3.88,3.32s2.44,2.35,3.59,3.59c.89.97,2.18,3.19,3.28,3.85.02,0-4.02-5.52-2.09-2.64.47.7.96,1.37,1.43,2.08,1.02,1.54,1.98,3.12,2.87,4.73.81,1.47,1.53,2.98,2.26,4.49,1.55,3.19-2.61-6.86-.42-.86,1.21,3.3,2.16,6.7,2.85,10.15.13.66.24,1.32.37,1.98.8,4.11-.63-6.24-.39-3.16.12,1.51.3,3,.38,4.51.18,3.56-.1,7.03-.3,10.58-.18,3.09,1.2-7.27.42-3.13-.13.67-.23,1.33-.36,2-.33,1.67-.72,3.32-1.18,4.96s-.99,3.28-1.58,4.88c-2.01,5.43,2.65-5.53.07-.25-1.56,3.2-3.44,6.16-5.43,9.1s4.23-5.09.54-.76c-1.46,1.71-3,3.34-4.62,4.89-1.13,1.08-2.91,3.36-4.35,3.82-.04.01,5.45-3.94,2.23-1.74-.66.46-1.32.94-1.98,1.4-.08.05-.15.1-.23.16-1.59,1.09-3.18,2.17-4.78,3.25-8.66,5.9-17.33,11.81-25.99,17.71-33.16,22.59-66.32,45.18-99.48,67.78-42.4,28.89-84.8,57.78-127.2,86.66-38.34,26.12-76.68,52.24-115.02,78.36-20.11,13.7-40.22,27.4-60.33,41.1-.53.36-1.05.72-1.58,1.08-.08.05-.16.11-.24.17-1.35.9-2.72,1.78-4.12,2.59-.93.54-1.87,1.05-2.82,1.54l-1.43.72c-2.45,1.13-1.91.93,1.61-.59-.7-.42-4.94,1.76-5.97,2.06-2.48.72-5.2.95-7.64,1.74,5.58-1.82,3.64-.42,1.22-.22-1.3.11-2.59.18-3.89.21-2.34.05-4.68-.02-7.01-.21s-4.35-1.6,1.22.22c-.93-.3-2.1-.38-3.08-.59-2.56-.55-5.09-1.26-7.57-2.11-.8-.27-5.42-1.21-1.44-.47,3.72.69-.33-.24-1.35-.76-2.4-1.24-4.69-2.64-6.94-4.13-10.92-7.25-28.14-2.5-34.2,8.97-6.63,12.55-2.69,26.47,8.97,34.2,30.29,20.1,71.12,19.38,101.06-.94,6.68-4.53,13.34-9.09,20-13.63,31.23-21.28,62.46-42.55,93.69-63.83,42.77-29.14,85.54-58.28,128.31-87.42,39.93-27.2,79.85-54.4,119.78-81.6,22.66-15.44,45.32-30.87,67.98-46.31,1.24-.84,2.48-1.67,3.71-2.52,16.18-11.2,27.92-25.28,35.38-43.48,13.23-32.26,4.01-70.74-19.23-95.92-17.18-18.62-42.05-27.9-67.08-27.95-5.16,0-10.32,0-15.48,0-25.91,0-51.83,0-77.74,0-41.36,0-82.72,0-124.09,0-50.4,0-100.8,0-151.2,0-53.02,0-106.05,0-159.07,0-49.24,0-98.47,0-147.71,0-39.04,0-78.08,0-117.11,0-22.43,0-44.86,0-67.28,0-3.79,0-7.59-.08-11.37.04-38.84,1.27-70.96,25.78-83.91,62.09-11.82,33.15-1.88,73.13,24.83,96.23,6.84,5.91,14.39,10.84,21.84,15.91,26.88,18.32,53.77,36.63,80.65,54.95,41.51,28.28,83.03,56.57,124.54,84.85,41.74,28.44,83.48,56.87,125.22,85.31,27.56,18.78,55.13,37.56,82.69,56.34,3.86,2.63,7.73,5.26,11.59,7.9,10.84,7.38,28.2,2.4,34.2-8.97,6.7-12.67,2.6-26.33-8.97-34.2Z"/>
    </g>
    <g>
      <path class="cls-2" d="M74.31,596.8l503.9-132.15c41.91-10.99,82.88,20.62,82.88,63.95v264.31c0,43.32-40.97,74.94-82.88,63.95l-503.91-132.15c-65.79-17.25-65.79-110.64,0-127.9Z"/>
      <path class="cls-1" d="M80.96,620.9c9.35-2.45,18.7-4.9,28.05-7.36,24.1-6.32,48.2-12.64,72.3-18.96,32.77-8.59,65.54-17.19,98.32-25.78,35.84-9.4,71.68-18.8,107.51-28.2,32.72-8.58,65.44-17.16,98.16-25.74,24-6.29,47.99-12.59,71.99-18.88,9.64-2.53,19.26-5.27,28.96-7.58,1.6-.38,3.22-.63,4.82-.97,2.68-.57-3.51.41-3.21.42.67,0,1.38-.14,2.05-.19,3.36-.27,6.75-.28,10.11-.03.66.05,1.33.17,1.99.18,2.81.07-3.87-.4-3.36-.46,1.28-.15,3.25.59,4.52.88,3.14.72,6.22,2.29,9.33,2.9.18.04-5.14-2.51-2.99-1.25.55.32,1.19.54,1.76.82,1.36.66,2.69,1.37,3.99,2.12s2.59,1.54,3.84,2.38c.54.36,1.06.74,1.59,1.1,3.41,2.31-.6-.07-1.47-1.17,1.65,2.1,4.27,3.74,6.14,5.71,1.04,1.1,2,2.25,3,3.38.55.62,2.1,2.59-.35-.49-2.7-3.41-.24-.21.33.63,1.58,2.35,3.01,4.8,4.28,7.33.29.59.56,1.19.86,1.78,1.78,3.51-.92-2.03-.97-2.32.24,1.63,1.26,3.45,1.74,5.04.85,2.83,1.38,5.7,1.95,8.6.52,2.67-.43-3.53-.44-3.22-.05.86.18,1.9.23,2.78.09,1.42.12,2.83.13,4.25.01,1.34,0,2.68,0,4.02,0,23.95,0,47.9,0,71.86,0,36.29,0,72.58,0,108.87,0,24.79,0,49.59,0,74.38,0,1.68.01,3.37,0,5.05,0,.99-.02,1.98-.06,2.96-.05,1.11-.75,6.92-.03,2.24s-.22.99-.45,2.09c-.65,3.09-1.65,6.03-2.6,9.04-1.24,3.93,2.79-5.58.21-.49-.69,1.37-1.36,2.74-2.11,4.08s-1.55,2.62-2.38,3.89c-.36.54-.75,1.07-1.1,1.61-2.07,3.25,1.35-1.73,1.58-1.94-2.16,2.07-3.91,4.59-6.09,6.68-1.08,1.03-2.33,1.94-3.37,3.01-1.74,1.79,2.72-2.01,2.54-1.9-.71.42-1.4,1.04-2.09,1.52-2.47,1.72-5.06,3.28-7.74,4.65-1.04.53-5.82,2.67-1.72.91s-.75.19-1.88.56c-2.92.96-5.89,1.58-8.88,2.24-4.22.92,6.15-.52.74-.12-1.56.11-3.11.21-4.68.23-1.35.02-2.71,0-4.06-.07-.91-.04-1.82-.15-2.73-.19-3.47-.16,1.82.14,2.54.39-3.93-1.37-8.9-1.96-13.04-3.04-6.52-1.71-13.05-3.42-19.57-5.13-23.57-6.18-47.14-12.36-70.71-18.54-32.51-8.52-65.01-17.05-97.52-25.57-35.83-9.4-71.67-18.8-107.5-28.19-33.11-8.68-66.22-17.37-99.33-26.05-24.39-6.4-48.77-12.79-73.16-19.19-9.98-2.62-19.98-5.16-29.93-7.85-.96-.26-1.91-.52-2.86-.81-1.28-.39-2.56-.81-3.82-1.28-.37-.14-1.99-.59-2.11-.81,0,.01,5.99,2.74,2.91,1.2-2.1-1.05-4.2-2.07-6.22-3.27-1.06-.63-2.1-1.29-3.12-1.98-.43-.29-.85-.6-1.28-.89-3.52-2.38,2.08,1.2,2.17,1.73-.18-1.06-4-3.48-4.92-4.39-1.31-1.3-4.44-3.78-4.98-5.57.38,1.24,3.86,5.38,1.56,1.9-.63-.95-1.28-1.89-1.88-2.87-1.28-2.08-2.39-4.23-3.48-6.42-2.02-4.07.4,2.17.97,2.41-.41-.18-1.01-2.68-1.18-3.18-.78-2.29-1.44-4.61-1.98-6.97-.21-.94-.39-1.89-.58-2.84.03.15-.36-1.89-.32-1.9.16-.06.68,6.18.57,4.25-.13-2.41-.44-4.79-.48-7.22-.03-2.09.04-4.18.2-6.27.03-.44.14-3.33.34-3.36.25-.04-1.03,6.17-.55,4.26.19-.77.27-1.6.42-2.38.41-2.05.91-4.09,1.5-6.1.82-2.78,4.53-9.91.29-1.76,1.97-3.79,3.8-7.48,6.16-11.06.08-.12.88-1.48,1.15-1.6.59-.26-4.05,4.86-2.4,3.11.79-.84,1.48-1.79,2.25-2.65,1.46-1.62,3-3.16,4.62-4.61.35-.32,2.63-1.8,2.72-2.31.02-.1-4.73,3.46-3.01,2.34.58-.38,1.12-.81,1.69-1.21,1.89-1.3,3.85-2.5,5.87-3.59,1.12-.6,2.27-1.14,3.4-1.71,4.44-2.26-4.96,1.8-1.37.56,2.56-.88,5.09-1.77,7.71-2.47,12.62-3.41,21.61-17.94,17.46-30.75s-17.23-21.12-30.75-17.46c-24.18,6.54-46.3,22.74-57.45,45.54-10.57,21.61-13.5,46.92-6.12,70.07s24.4,44.37,47.3,54.45c7.04,3.1,14.04,5.47,21.4,7.4,16.61,4.36,33.22,8.71,49.83,13.07,29.38,7.71,58.77,15.41,88.15,23.12,35.63,9.35,71.27,18.69,106.9,28.04,35.74,9.37,71.49,18.75,107.23,28.12,29.71,7.79,59.43,15.59,89.14,23.38,17.16,4.5,34.32,9,51.48,13.5,5.86,1.54,11.56,2.84,17.62,3.66,32.35,4.35,64.23-9.23,84.11-34.96,12.9-16.69,18.83-36.74,18.83-57.72,0-8.44,0-16.88,0-25.31,0-33.26,0-66.53,0-99.79,0-34.25,0-68.5,0-102.75,0-9.72,0-19.44,0-29.17,0-16.86-3.01-32.96-10.92-48.03-14.94-28.46-45.4-46.36-77.16-47.77-10.33-.46-20.59,1.49-30.55,4.1-16.02,4.2-32.03,8.4-48.05,12.6-28.86,7.57-57.71,15.14-86.57,22.7-35.49,9.31-70.97,18.61-106.46,27.92-36.02,9.45-72.04,18.89-108.05,28.34-29.97,7.86-59.94,15.72-89.9,23.58-17.84,4.68-35.67,9.35-53.51,14.03-2.42.63-4.84,1.27-7.25,1.9-12.65,3.32-21.58,18.01-17.46,30.75s17.2,21.02,30.75,17.46Z"/>
    </g>
    <g>
      <path class="cls-2" d="M2730.03,728.01l-503.9,132.16c-41.91,10.99-82.88-20.62-82.88-63.95v-264.31c0-43.32,40.97-74.94,82.88-63.95l503.91,132.15c65.79,17.25,65.79,110.64,0,127.9Z"/>
      <path class="cls-1" d="M2723.38,703.91c-9.35,2.45-18.7,4.9-28.05,7.36-24.1,6.32-48.2,12.64-72.3,18.96-32.77,8.6-65.54,17.19-98.32,25.79-35.84,9.4-71.68,18.8-107.51,28.2-32.72,8.58-65.44,17.16-98.16,25.74-24,6.29-47.99,12.59-71.99,18.88-9.64,2.53-19.26,5.27-28.96,7.58-1.6.38-3.22.63-4.82.97-2.68.57,3.51-.41,3.21-.42-.67,0-1.38.14-2.05.19-3.36.27-6.75.28-10.11.03-.66-.05-1.33-.17-1.99-.18-2.81-.07,3.87.4,3.36.46-1.28.15-3.25-.59-4.52-.88-3.14-.72-6.22-2.29-9.33-2.9-.18-.04,5.14,2.51,2.99,1.25-.55-.32-1.19-.54-1.76-.82-1.36-.66-2.69-1.37-3.99-2.12s-2.59-1.54-3.84-2.38c-.54-.36-1.06-.74-1.59-1.1-3.41-2.31.6.07,1.47,1.17-1.65-2.1-4.27-3.74-6.14-5.71-1.04-1.1-2-2.25-3-3.38-.55-.62-2.1-2.59.35.49,2.7,3.41.24.21-.33-.63-1.58-2.35-3.01-4.8-4.28-7.33-.29-.59-.56-1.19-.86-1.78-1.78-3.51.92,2.03.97,2.32-.24-1.63-1.26-3.45-1.74-5.04-.85-2.83-1.38-5.7-1.95-8.6-.52-2.67.43,3.53.44,3.22.05-.86-.18-1.9-.23-2.78-.09-1.42-.12-2.83-.13-4.25-.01-1.34,0-2.68,0-4.02,0-23.95,0-47.9,0-71.86,0-36.29,0-72.58,0-108.87,0-24.79,0-49.59,0-74.38,0-1.68-.01-3.37,0-5.05,0-.99.02-1.98.06-2.96.05-1.11.75-6.92.03-2.24s.22-.99.45-2.09c.65-3.09,1.65-6.03,2.6-9.04,1.24-3.93-2.79,5.58-.21.49.69-1.37,1.36-2.74,2.11-4.08s1.55-2.62,2.38-3.89c.36-.54.75-1.07,1.1-1.61,2.07-3.25-1.35,1.73-1.58,1.94,2.16-2.07,3.91-4.59,6.09-6.68,1.08-1.03,2.33-1.94,3.37-3.01,1.74-1.79-2.72,2.01-2.54,1.9.71-.42,1.4-1.04,2.09-1.52,2.47-1.72,5.06-3.28,7.74-4.65,1.04-.53,5.82-2.67,1.72-.91s.75-.19,1.88-.56c2.92-.96,5.89-1.58,8.88-2.24,4.22-.92-6.15.52-.74.12,1.56-.11,3.11-.21,4.68-.23,1.35-.02,2.71,0,4.06.07.91.04,1.82.15,2.73.19,3.47.16-1.82-.14-2.54-.39,3.93,1.37,8.9,1.96,13.04,3.04,6.52,1.71,13.05,3.42,19.57,5.13,23.57,6.18,47.14,12.36,70.71,18.54,32.51,8.52,65.01,17.05,97.52,25.57,35.83,9.4,71.67,18.8,107.5,28.19,33.11,8.68,66.22,17.37,99.33,26.05,24.39,6.4,48.77,12.79,73.16,19.19,9.98,2.62,19.98,5.16,29.94,7.85.96.26,1.91.52,2.86.81,1.28.39,2.56.81,3.82,1.28.37.14,1.99.59,2.11.81,0-.01-5.99-2.74-2.91-1.2,2.1,1.05,4.2,2.07,6.22,3.27,1.06.63,2.1,1.29,3.12,1.98.43.29.85.6,1.28.89,3.52,2.38-2.08-1.2-2.17-1.73.18,1.06,4,3.48,4.92,4.39,1.31,1.3,4.44,3.78,4.98,5.57-.38-1.24-3.86-5.38-1.56-1.9.63.95,1.28,1.89,1.88,2.87,1.28,2.08,2.39,4.23,3.48,6.42,2.02,4.07-.4-2.17-.97-2.41.41.18,1.01,2.68,1.18,3.18.78,2.29,1.44,4.61,1.98,6.97.21.94.39,1.89.58,2.84-.03-.15.36,1.89.32,1.9-.16.06-.68-6.18-.57-4.25.13,2.41.44,4.79.48,7.22.03,2.09-.04,4.18-.2,6.27-.03.44-.14,3.33-.34,3.36-.25.04,1.03-6.17.55-4.26-.19.77-.27,1.6-.42,2.38-.41,2.05-.91,4.09-1.5,6.1-.82,2.78-4.53,9.91-.28,1.76-1.97,3.79-3.8,7.48-6.16,11.06-.08.12-.88,1.48-1.15,1.6-.59.26,4.05-4.86,2.4-3.11-.79.84-1.48,1.79-2.25,2.65-1.46,1.62-3,3.16-4.62,4.61-.35.32-2.63,1.8-2.72,2.31-.02.1,4.73-3.46,3.01-2.34-.58.38-1.12.81-1.69,1.21-1.89,1.3-3.85,2.5-5.87,3.59-1.12.6-2.27,1.14-3.4,1.71-4.44,2.26,4.96-1.8,1.37-.56-2.56.88-5.09,1.77-7.71,2.47-12.62,3.41-21.61,17.94-17.46,30.75,4.19,12.94,17.23,21.12,30.75,17.46,24.18-6.54,46.3-22.74,57.45-45.54,10.57-21.61,13.5-46.92,6.12-70.07s-24.4-44.37-47.3-54.45c-7.04-3.1-14.04-5.47-21.4-7.4-16.61-4.36-33.22-8.71-49.83-13.07-29.38-7.71-58.77-15.41-88.15-23.12-35.63-9.34-71.27-18.69-106.9-28.03-35.74-9.37-71.49-18.75-107.23-28.12-29.71-7.79-59.43-15.59-89.14-23.38-17.16-4.5-34.32-9-51.48-13.5-5.86-1.54-11.56-2.84-17.62-3.66-32.35-4.35-64.23,9.23-84.11,34.96-12.9,16.69-18.83,36.74-18.83,57.72,0,8.44,0,16.88,0,25.31,0,33.26,0,66.53,0,99.79,0,34.25,0,68.5,0,102.75,0,9.72,0,19.44,0,29.17,0,16.86,3.01,32.96,10.92,48.03,14.94,28.46,45.4,46.36,77.16,47.77,10.33.46,20.59-1.49,30.55-4.1l48.05-12.6c28.86-7.57,57.71-15.14,86.57-22.7,35.49-9.31,70.97-18.61,106.46-27.92,36.02-9.45,72.04-18.89,108.05-28.34,29.97-7.86,59.94-15.72,89.9-23.58,17.83-4.68,35.67-9.35,53.5-14.03,2.42-.63,4.84-1.27,7.25-1.9,12.65-3.32,21.58-18.01,17.46-30.75-4.21-13.02-17.2-21.02-30.75-17.46Z"/>
    </g>
  </g>
  <g id="Layer_3" data-name="Layer 3">
    <path class="cls-3" d="M1283.05,190.96c-5.75-9.57,61.47-55.77,84.68-70.9,27.12-17.68,41.1-23.39,57.47-22.76,17.15.67,29.9,8.03,51.38,22.84,41.8,28.82,94.77,66.48,89.95,74.35-5.11,8.34-60.41-40.81-142.39-41.34-80.98-.52-135.7,46.75-141.08,37.8Z"/>
    <rect class="cls-3" x="140.62" y="567.9" width="419.37" height="18.57" rx="9.28" ry="9.28" transform="translate(-130.16 102.83) rotate(-14.11)"/>
    <rect class="cls-3" x="2251.86" y="579.08" width="419.37" height="18.57" rx="9.28" ry="9.28" transform="translate(4705.34 1759.15) rotate(-165.89)"/>
    <rect class="cls-3" x="1051.31" y="916.09" width="746.91" height="28.81" rx="14.41" ry="14.41" transform="translate(2849.54 1861) rotate(-180)"/>
  </g>
</svg>