<?xml version="1.0" encoding="UTF-8"?>
<svg xmlns="http://www.w3.org/2000/svg" viewBox="0 0 1695.85 1804.54">
  <defs>
    <style>
      .cls-1 {
        fill: #4d4d4d;
      }

      .cls-2 {
        fill: #ccc;
      }

      .cls-3 {
        fill: #edd4ff;
      }

      .cls-4 {
        fill: #c73484;
      }

      .cls-5 {
        fill: #7a195a;
      }

      .cls-6 {
        fill: #fff;
        stroke: #fff;
        stroke-miterlimit: 10;
      }
    </style>
  </defs>
  <g id="Layer_3" data-name="Layer 3">
    <g>
      <ellipse class="cls-4" cx="719.57" cy="1618.65" rx="487.66" ry="160.81"/>
      <path class="cls-5" d="M1182.23,1618.65c-.01,2.09-.21,4.14-.36,6.23-.24,3.5,1.28-7.61.55-4.17-.09.41-.13.83-.21,1.23-.26,1.23-.5,2.46-.81,3.68-.53,2.07-1.21,4.07-1.9,6.09-.14.41-.32.8-.46,1.21-1.09,3.21,2.81-6.31,1.65-3.86-.52,1.09-1,2.21-1.54,3.3-2.19,4.39-4.89,8.38-7.71,12.38-1.77,2.51,2.95-3.6,2.57-3.32-.52.39-.98,1.23-1.39,1.73-.8.97-1.61,1.93-2.45,2.87-1.72,1.95-3.51,3.84-5.36,5.67-4.18,4.16-8.73,7.82-13.23,11.61,7.95-6.69-.75.48-2.91,2-2.57,1.81-5.19,3.56-7.84,5.26-12.07,7.73-24.8,14.39-37.82,20.36-3.49,1.6-7.03,3.11-10.54,4.65,8.18-3.59,1.36-.59-.59.21-2.24.91-4.48,1.8-6.74,2.68-7.82,3.04-15.72,5.89-23.68,8.57-17.78,5.99-35.84,11.16-54.04,15.71-20.07,5.02-40.33,9.3-60.69,12.97-11.09,2-22.22,3.83-33.37,5.49-2.72.4-5.44.8-8.16,1.18-1.09.16-2.19.31-3.28.46l-1.65.23c-2.76.38-2.2.3,1.69-.22-1.47-.7-5.86.77-7.49.97-3.08.39-6.15.77-9.23,1.13-98.38,11.72-198.42,12.69-297.06,3.61-12.01-1.11-24-2.37-35.98-3.82-2.8-.34-5.59-.68-8.38-1.04-1.11-.14-2.22-.28-3.33-.43l-1.66-.22c-2.77-.37-2.21-.29,1.68.23-1.88-.97-5.31-.73-7.4-1.03-2.99-.43-5.97-.86-8.96-1.31-21.31-3.2-42.54-7-63.61-11.53-36.56-7.85-72.83-17.76-107.68-31.41-1.87-.73-3.74-1.48-5.6-2.24-1.91-.78-8.75-3.79-.59-.21-3.86-1.69-7.74-3.36-11.57-5.12-6.58-3.04-13.08-6.26-19.46-9.71-6.18-3.34-12.25-6.89-18.15-10.7-2.5-1.62-4.97-3.28-7.41-5-1.24-.88-2.47-1.77-3.69-2.67-.6-.45-1.19-.9-1.79-1.35-3.16-2.35,5.14,4.09,2.27,1.74-4.53-3.71-8.97-7.47-13.1-11.63-1.74-1.75-3.42-3.54-5.05-5.4-.83-.94-1.62-1.91-2.43-2.87-3.65-4.32,3.84,5.29.99,1.29s-5.44-8.02-7.58-12.4c-.19-.39-1.56-2.78-1.37-3,.22-.27,2.57,6.68,1.78,4.16-.16-.51-.39-1.01-.57-1.51-.76-2.1-1.42-4.23-1.94-6.4-.25-1.02-.44-2.05-.66-3.07-.08-.36-.08-1.59-.31-1.85-.14-.16.77,7.34.65,4.79-.12-2.29-.38-4.55-.36-6.85.02-1.99.23-3.94.39-5.91-.8,9.71-.47,3.1.43-.44.53-2.07,1.21-4.07,1.9-6.09,1.82-5.29-2.37,5.04-1.05,2.35.58-1.19,1.11-2.41,1.71-3.59,2.13-4.16,4.7-7.99,7.41-11.78,2.12-2.96-4.46,5.56-2.12,2.74.32-.38.62-.77.93-1.15.8-.97,1.61-1.93,2.45-2.87,1.9-2.15,3.88-4.23,5.93-6.23,4.02-3.94,8.37-7.41,12.66-11.05-7.11,6.02-2.63,2.02-.8.67,1.23-.9,2.46-1.79,3.71-2.67,2.84-1.99,5.73-3.92,8.65-5.78,5.68-3.61,11.51-6.98,17.45-10.16,6.75-3.62,13.63-6.98,20.6-10.15,1.74-.79,3.48-1.57,5.23-2.34,1.15-.5,6.89-2.95,2.38-1.04-4.64,1.96,1.94-.79,3.05-1.24,2.05-.83,4.12-1.65,6.18-2.45,16.54-6.44,33.42-12,50.47-16.94,39.73-11.52,80.41-19.71,121.31-25.8,2.72-.4,5.44-.8,8.16-1.18,1.37-.19,2.74-.38,4.11-.57l.82-.11c2.76-.38,2.2-.3-1.69.22,1.44.62,6.72-.88,8.32-1.08,3.36-.42,6.72-.83,10.08-1.23,11.43-1.35,22.88-2.53,34.35-3.57,24.47-2.22,49-3.76,73.56-4.69,50.69-1.92,101.51-1.26,152.13,2.07,23.82,1.57,47.61,3.75,71.32,6.6,2.8.34,5.59.68,8.38,1.04,1.39.18,2.78.36,4.16.54,2.91.38,3.41,1.95-.85-.12,1.98.96,6.02.83,8.22,1.15,3.25.47,6.51.95,9.76,1.44,10.59,1.61,21.15,3.36,31.68,5.28,38.69,7.04,77.13,16.17,114.4,28.82,8.31,2.82,16.55,5.82,24.71,9.04,1.68.66,3.35,1.34,5.02,2.02.92.37,1.83.76,2.75,1.13,4.18,1.72-5.09-2.2-2.17-.92,3.69,1.62,7.38,3.21,11.03,4.89,12.95,5.98,25.62,12.66,37.61,20.41,2.63,1.7,5.23,3.45,7.78,5.27,1.24.88,2.46,1.77,3.68,2.67.48.36.95.72,1.43,1.08,3.15,2.32-5.8-4.65-1.58-1.2s8.5,7.14,12.42,11.08c1.83,1.84,3.6,3.73,5.3,5.68.82.94,1.61,1.91,2.41,2.87,3.2,3.84-4.42-6-.79-1,2.7,3.73,5.13,7.67,7.15,11.81.48.99.88,2.02,1.37,3-4.28-8.48-1.92-4.67-1.09-2.35.72,2,1.33,4.03,1.83,6.1.25,1.02.45,2.05.66,3.07,1.1,5.34-.54-5.87-.34-2.94.15,2.08.35,4.13.36,6.23.08,13.07,11.44,25.61,25,25,13.48-.6,25.08-10.99,25-25-.32-56.16-55.64-92.79-100.92-114.01-75.95-35.6-159.95-51.79-242.7-61.88-100.61-12.26-203.02-13.25-303.9-3.7-84.7,8.02-171.5,22.04-250.73,54.25-30.24,12.3-59.1,26.76-84.49,47.51-18.42,15.05-35.19,35.67-40.4,59.4-12.26,55.9,34.39,97.71,78.58,122.18,31.27,17.32,65.35,29.91,99.56,40.04,40.46,11.98,81.93,20.44,123.63,26.71,101.88,15.32,205.56,18.98,308.33,11.95,88.13-6.03,177.95-18.73,261.65-47.96,31.19-10.89,62.53-23.97,90-42.56,20.86-14.12,41.87-32.02,52.62-55.39,5.37-11.68,8.7-23.57,8.77-36.55.08-13.08-11.55-25.6-25-25s-24.92,10.98-25,25Z"/>
    </g>
    <path class="cls-3" d="M311.3,1587.48c-2.09-5.88,61.63-38.93,135.67-59.18,45.43-12.43,82.16-16.59,114.02-20.21,20.89-2.37,71.49-7.54,138.56-6.07,59.3,1.3,122.82,7.59,122.72,11.88-.08,3.29-37.5,2.77-116.56,9.22-73.56,6.01-125.83,13.37-138.96,15.27-13.31,1.93-56.65,8.33-114.99,19.89-98.54,19.53-138.85,33.75-140.47,29.18Z"/>
  </g>
  <g id="Layer_2" data-name="Layer 2">
    <g>
      <path class="cls-2" d="M699.74,1613.2l23.84-6.25c31.98-8.39,51.1-41.11,42.71-73.09l-230.43-878.46c-8.39-31.98-41.11-51.1-73.09-42.71l-23.84,6.25c-31.98,8.39-51.1,41.11-42.71,73.09l230.43,878.46c8.39,31.98,41.11,51.1,73.09,42.71Z"/>
      <path class="cls-1" d="M706.39,1637.31c8.4-2.2,16.88-4.22,25.22-6.63,21.35-6.18,40.41-20.9,51.03-40.55s12.98-43,7.19-65.08c-3.91-14.92-7.82-29.83-11.74-44.75-7.98-30.42-15.96-60.83-23.94-91.25-10.84-41.31-21.67-82.62-32.51-123.92-12.41-47.3-24.81-94.59-37.22-141.89-12.67-48.3-25.34-96.6-38.01-144.91-11.76-44.82-23.51-89.63-35.27-134.45-9.53-36.34-19.07-72.69-28.6-109.03-6.03-23-12.06-45.99-18.1-68.99-1.33-5.07-2.65-10.14-3.99-15.21-5.95-22.57-20.24-42.56-40.85-54-19.46-10.8-42.09-13.48-63.62-8.05-8.82,2.22-17.78,4.29-26.46,7.01-43.46,13.61-68.5,59.02-57.42,103.06,2.61,10.39,5.44,20.73,8.16,31.1,7.13,27.17,14.25,54.34,21.38,81.5,10.27,39.14,20.54,78.29,30.8,117.43,12.1,46.14,24.2,92.27,36.3,138.41,12.75,48.62,25.51,97.24,38.26,145.86,12.1,46.14,24.2,92.27,36.31,138.41,10.16,38.71,20.31,77.43,30.47,116.14l21.04,80.22c2.8,10.69,5.19,21.59,8.5,32.14,13.62,43.49,59,68.43,103.05,57.42,12.69-3.17,21.55-18.12,17.46-30.75-4.25-13.14-17.15-20.86-30.75-17.46-1.16.29-2.31.57-3.48.8-2.44.49-4.37-.33,1.78-.12-1.81-.06-3.7.34-5.53.38-2.29.05-4.54-.11-6.83-.24-1.91-.11-3.87-1.2,2.62.38-1.3-.32-2.66-.48-3.96-.78-1.74-.4-3.46-.89-5.16-1.45-1.06-.35-2.09-.76-3.14-1.14-3.09-1.11,5.91,2.96,1.7.65-1.56-.85-3.16-1.62-4.69-2.53-.95-.57-1.86-1.22-2.81-1.79-4.59-2.78,2.62,2.32.78.73-3.08-2.67-5.85-5.44-8.53-8.51-2.15-2.46,3.6,5.39,1.06,1.28-.48-.77-1.02-1.51-1.5-2.27-1.22-1.95-2.26-3.98-3.3-6.03-1.82-3.59.83,1.76.86,2.13-.08-1.02-.86-2.32-1.19-3.32-.37-1.13-.7-2.28-1.01-3.43-.02-.07-.03-.13-.05-.2-.89-3.27-1.72-6.57-2.58-9.85-5.18-19.76-10.37-39.52-15.55-59.29-8.79-33.52-17.58-67.04-26.38-100.55-11.2-42.68-22.39-85.37-33.59-128.05-12.4-47.26-24.79-94.52-37.19-141.78-12.39-47.24-24.78-94.49-37.18-141.73-11.18-42.64-22.37-85.27-33.55-127.91-8.77-33.44-17.54-66.88-26.32-100.32-5.16-19.65-10.31-39.31-15.47-58.96-.85-3.22-1.72-6.44-2.54-9.67-.01-.05-.03-.1-.04-.15-.35-1.39-.63-2.78-.94-4.18-.89-4.02.29,2.1.26,2.48.09-1.33-.27-2.8-.34-4.15-.1-2.28-.08-4.57.08-6.85.06-.9.2-1.81.25-2.71-.36,6.97-.7,4.41-.29,2.64.5-2.19.94-4.36,1.59-6.52.26-.85.54-1.7.84-2.54,1.01-2.85,2.6-3.24-.52,1.03,1.01-1.38,1.57-3.24,2.43-4.74.99-1.74,2.92-3.75,3.61-5.59-.11.29-4.05,4.88-1.45,1.9.59-.67,1.16-1.36,1.76-2.01,1.66-1.82,3.43-3.53,5.3-5.13,2.16-1.85,3.09-.84-1.35.98.7-.29,1.65-1.16,2.23-1.55,1.72-1.13,3.49-2.17,5.32-3.12.95-.49,2.29-.86,3.12-1.51-.32.25-5.91,2.22-2.08.94,1.82-.61,3.63-1.21,5.48-1.71,8.36-2.28,16.75-4.6,25.18-6.59,1.15-.27,2.32-.46,3.48-.71,3.35-.74-6.78.5-1.79.24,1.84-.1,3.67-.26,5.52-.25,2.03,0,4.84-.19,6.8.39-.14-.04-6.69-1.16-2.64-.29,1.32.28,2.63.53,3.94.87,1.95.5,3.86,1.1,5.75,1.79,2.55.93,2.62,2.38-1.65-.75.63.46,1.73.82,2.4,1.16,1.78.91,3.51,1.91,5.19,3,.85.55,1.82,1.53,2.75,1.88-1.34-.5-4.58-3.73-1.39-1.02,1.53,1.3,2.99,2.68,4.38,4.13.8.84,5.34,6.11,2.41,2.6s1.23,2.03,1.86,3.09c1.15,1.93,1.89,4.32,3.17,6.12-3.12-4.36-1.59-3.91-.71-1.41.39,1.12.76,2.24,1.08,3.38.13.45.26.94.38,1.39.02.07.04.15.06.23.29,1.07.56,2.15.85,3.22,4.13,15.75,8.26,31.5,12.39,47.25,8.03,30.61,16.06,61.23,24.09,91.84,10.73,40.89,21.45,81.78,32.18,122.67,12.22,46.57,24.43,93.15,36.65,139.72,12.5,47.67,25.01,95.33,37.51,143,11.59,44.17,23.17,88.34,34.76,132.51,9.46,36.08,18.93,72.17,28.39,108.25,6.14,23.41,12.28,46.81,18.42,70.22,1.45,5.51,2.89,11.03,4.34,16.54.25.96.51,1.92.76,2.88,0,.04.02.08.03.11.44,1.77.5,3.9,1.18,5.56-1.96-4.79-.54-4.7-.3-1.79.09,1.15.16,2.3.18,3.45.05,2.29-.11,4.54-.24,6.83-.11,1.91-1.2,3.87.38-2.62-.21.86-.31,1.78-.49,2.65-.46,2.19-1.04,4.35-1.74,6.47-.28.85-.59,1.68-.89,2.52-1.64,4.63,2.77-5.37.41-1.07-.96,1.76-1.83,3.54-2.88,5.25-1.2,1.95-5.41,6.62-.3.94-2.72,3.02-5.34,5.94-8.41,8.62-1.42,1.24-3.22,1.57,1.86-1.42-.76.45-1.49,1.05-2.23,1.55-1.91,1.26-3.89,2.4-5.93,3.43-.82.41-1.7.75-2.5,1.19,5.53-3.03,3.79-1.48,2.08-.94-1.83.58-3.63,1.21-5.48,1.71-7.91,2.16-15.86,4.16-23.79,6.24-12.65,3.32-21.58,18.01-17.46,30.75,4.21,13.02,17.2,21.02,30.75,17.46Z"/>
    </g>
    <rect class="cls-6" x="540.03" y="677.31" width="19.06" height="914.24" rx="9.53" ry="9.53" transform="translate(-271.57 178.03) rotate(-14.8)"/>
    <path class="cls-1" d="M745.35,1582.81l-3.71.98c-26.56,6.17-33.86,6.8-34.21,5.67-.34-1.12,6.54-2.79,11.46-8.67,0,0,7.41-8.87,4.99-26.9-6.28-46.76-157.31-595.34-223.64-846.38-1.34-5.09,1.69-10.31,6.78-11.65l3.71-.98c5.09-1.34,10.31,1.69,11.65,6.78l229.75,869.51c-2.26,3.88-4.52,7.77-6.78,11.65Z"/>
  </g>
  <g id="Layer_1" data-name="Layer 1">
    <g>
      <circle class="cls-4" cx="386.9" cy="386.92" r="361.89"/>
      <path class="cls-5" d="M723.59,374.66c.61,19.01-.19,38.04-2.51,56.92-.1.82-.71,5.47-.08.75s0-.08-.12.74c-.33,2.25-.68,4.5-1.05,6.74-.78,4.69-1.65,9.36-2.61,14.02-1.86,9.02-4.07,17.97-6.63,26.81-2.47,8.56-5.26,17.03-8.35,25.38-1.54,4.16-3.19,8.27-4.85,12.38-1.82,4.48,2.08-4.74.72-1.69-.45,1.01-.88,2.03-1.32,3.04-1.07,2.42-2.16,4.84-3.28,7.24-7.52,16.13-16.24,31.7-26.05,46.55-2.29,3.47-4.64,6.9-7.05,10.29-1.27,1.78-2.55,3.55-3.85,5.31-1.17,1.59-7.08,8.87-1.64,2.26-5.56,6.76-10.97,13.59-16.84,20.09-12,13.31-24.98,25.74-38.8,37.14-1.69,1.39-3.39,2.77-5.1,4.13-.86.68-1.73,1.35-2.58,2.03-2.57,2.07,5.24-3.97,1.42-1.1s-7.38,5.5-11.15,8.14c-7.37,5.17-14.94,10.07-22.68,14.68s-15.33,8.75-23.23,12.7c-3.96,1.98-7.96,3.89-12,5.72-2.02.92-4.06,1.8-6.09,2.7-4.44,1.96,4.77-1.97,1.67-.7-1.44.59-2.88,1.19-4.33,1.77-16.89,6.79-34.3,12.29-52.03,16.44-9.12,2.14-18.32,3.92-27.58,5.34-2.06.32-10.3,1.29-1.57.27-2.3.27-4.59.58-6.89.83-4.63.51-9.26.94-13.91,1.27-19.07,1.38-38.25,1.27-57.3-.34-4.57-.39-9.13-.86-13.68-1.42-.9-.11-1.81-.25-2.72-.35,8.1.85,3.01.4,1.23.14-2.47-.36-4.94-.75-7.41-1.16-9.13-1.53-18.19-3.41-27.17-5.64-17.85-4.43-34.82-10.69-51.97-17.2.2.08,5.98,2.58,2.31.97-1.21-.53-2.43-1.06-3.64-1.59-1.82-.81-3.62-1.63-5.43-2.46-4.2-1.95-8.36-3.98-12.48-6.08-8.02-4.1-15.88-8.51-23.57-13.19s-15.16-9.63-22.46-14.87c-1.78-1.27-3.54-2.56-5.3-3.87-1.61-1.2-7.68-6.19-1.2-.86-3.38-2.78-6.85-5.43-10.2-8.24-13.73-11.51-26.61-24.03-38.5-37.43-2.9-3.27-5.75-6.6-8.53-9.97-1.39-1.69-2.77-3.39-4.13-5.1-.54-.69-1.08-1.38-1.63-2.06-2.92-3.69,3.79,5.05.3.37-5.37-7.22-10.59-14.54-15.47-22.1-9.82-15.2-18.5-31.15-25.93-47.65-.91-2.02-1.72-4.1-2.68-6.1.1.2,2.48,6,.97,2.28-.42-1.03-.85-2.06-1.26-3.09-1.76-4.35-3.43-8.73-5.01-13.14-3.12-8.67-5.89-17.46-8.33-26.35s-4.58-18.05-6.34-27.2c-.87-4.5-1.65-9.02-2.34-13.55-.33-2.13-1.12-10.22-.27-1.57-.23-2.3-.58-4.59-.83-6.89-2.11-19.04-2.72-38.25-1.84-57.39.44-9.42,1.24-18.82,2.41-28.18.23-1.85.97-5.58-.27,1.9.19-1.12.32-2.26.49-3.38.3-2.02.62-4.04.95-6.06.81-4.91,1.73-9.81,2.75-14.68,3.75-17.95,8.87-35.61,15.31-52.78,1.48-3.94,3.09-7.83,4.64-11.74,1.23-3.1-2.65,6.12-.71,1.7.44-1.01.88-2.03,1.33-3.04.98-2.22,1.98-4.43,3.01-6.63,3.81-8.18,7.93-16.21,12.35-24.08s9.09-15.52,14.06-23.01c2.42-3.65,4.91-7.25,7.46-10.81,1.27-1.78,2.56-3.54,3.87-5.3.52-.7,1.05-1.4,1.57-2.1,2.52-3.33.91-1.05-.72.9,11.53-13.81,22.97-27.38,36.02-39.82,6.49-6.19,13.2-12.13,20.13-17.82,1.69-1.39,3.39-2.76,5.11-4.12.86-.68,1.73-1.34,2.58-2.03-5.46,4.43-3.2,2.45-1.93,1.51,3.86-2.89,7.74-5.76,11.69-8.52,14.8-10.34,30.38-19.58,46.56-27.59,3.77-1.87,7.58-3.67,11.41-5.41,2.02-.92,4.06-1.8,6.1-2.69,3.06-1.34-6.16,2.55-1.67.7,1.24-.51,2.47-1.02,3.71-1.52,8.51-3.42,17.15-6.51,25.9-9.27,17.55-5.53,35.52-9.71,53.71-12.5,2.03-.31,10.24-1.14,1.57-.27,2.3-.23,4.59-.57,6.89-.83,5.09-.56,10.19-1.02,15.3-1.37,9.36-.64,18.75-.92,28.14-.85s18.99.53,28.45,1.34c4.34.38,8.67.83,12.99,1.36,1.79.22,6.81,1.16-1.22-.18.9.15,1.81.25,2.71.39,2.7.39,5.39.82,8.08,1.28,18.16,3.08,36.08,7.56,53.55,13.38,8.44,2.81,16.64,6.14,24.93,9.35-8.05-3.12-.34-.12,1.34.63,2.02.9,4.03,1.81,6.03,2.74,4.19,1.96,8.35,3.99,12.46,6.11,15.8,8.12,31,17.41,45.44,27.76,1.78,1.27,3.54,2.56,5.3,3.87,1.57,1.17,7.66,6.15,1.2.86,3.72,3.05,7.53,5.98,11.2,9.08,6.68,5.64,13.15,11.51,19.4,17.62s12.59,12.75,18.53,19.46c2.75,3.11,5.45,6.27,8.09,9.48,1.39,1.69,2.77,3.39,4.13,5.1.82,1.03,1.6,2.09,2.43,3.1-1.62-1.97-3.23-4.22-.71-.89,10.85,14.39,20.63,29.59,29.22,45.43,4.22,7.78,8.15,15.72,11.78,23.79.91,2.02,1.74,4.09,2.68,6.1-3.63-7.78-.14-.28.55,1.43,1.75,4.35,3.41,8.73,4.99,13.15,6.15,17.24,10.98,34.94,14.44,52.91.87,4.5,1.65,9.02,2.34,13.55.29,1.88,1.16,10.41.27,1.57.23,2.3.58,4.59.83,6.89,1.03,9.29,1.68,18.62,2.02,27.97.47,13.05,11.16,25.62,25,25s25.5-11,25-25c-2.83-79.14-29.38-157.04-77.53-220.12-48.21-63.15-113.73-110.67-189.34-135.58-76.16-25.09-161.11-25.25-237.42-.71-75.92,24.41-141.97,71.81-190.46,134.92C30.89,215.57,3.67,292.6.34,371.14c-3.37,79.47,18.52,160.17,62.19,226.7,43.48,66.25,105.87,117.27,178.98,147.52,74.25,30.72,158.23,36.28,236.27,17.69s144.98-59.57,196.52-117.17c25.67-28.68,47.46-61.02,63.48-96.05,17.28-37.79,28.21-77.02,33.29-118.24,2.33-18.88,3.11-37.92,2.51-56.92-.42-13.06-11.2-25.62-25-25s-25.45,11-25,25Z"/>
    </g>
    <path class="cls-5" d="M682.03,580.84c-89.73,135.26-277.65,190.21-441.12,117.97,12.76,1.34,218.86,19.57,339.31-135.35,102.78-132.19,98.26-332.67-19.79-479.04,177.15,109.84,224.93,340.65,121.59,496.42Z"/>
    <path class="cls-3" d="M148.1,202.78c-38.05,51.29-35.84,119.29-26.77,121.92,7.68,2.23,17.05-43.38,63.38-105.13,38.98-51.96,70.92-71.1,66.91-76.93-5.17-7.51-67.13,11.1-103.52,60.15Z"/>
  </g>
</svg>