<?xml version="1.0" standalone="no"?>
<!DOCTYPE svg PUBLIC "-//W3C//DTD SVG 1.1//EN" "http://www.w3.org/Graphics/SVG/1.1/DTD/svg11.dtd">
<svg xmlns="http://www.w3.org/2000/svg" width="506" height="178" viewBox="0 0 506 178" fill="none">
<path d="M472.06 136.824C472.06 134.484 472.06 132.924 470.11 130.389L481.16 128.309V148.719C483.37 145.404 487.075 143.454 491.43 143.454C499.62 143.454 505.86 149.694 505.86 159.964C505.86 170.299 499.165 177.449 489.48 177.449C485.385 177.449 481.94 176.084 479.47 173.809L472.06 176.929V136.824ZM481.16 166.139C482.265 169.844 485.06 172.054 488.765 172.054C492.99 172.054 496.37 168.219 496.37 161.329C496.37 154.569 492.925 150.279 487.66 150.279C484.8 150.279 482.395 151.579 481.16 154.049V166.139Z" fill="#EAFFFF"/>
<path d="M461.037 177.449C457.527 177.449 455.317 175.759 454.472 172.769C452.782 175.174 449.142 177.449 444.982 177.449C439.132 177.449 434.907 174.004 434.907 168.934C434.907 163.799 438.937 160.419 446.412 159.119L454.082 157.754V156.974C454.082 152.749 451.027 150.214 446.022 150.214C441.472 150.214 438.287 151.709 435.752 154.894C436.467 147.354 441.797 143.454 449.857 143.454C458.242 143.454 463.117 148.069 463.117 156.519V167.699C463.117 169.844 464.157 170.949 466.107 170.949C467.212 170.949 468.122 170.624 468.902 169.844C468.447 174.654 465.262 177.449 461.037 177.449ZM444.137 167.114C444.137 169.779 446.152 171.404 449.012 171.404C451.287 171.404 452.977 170.494 454.082 168.999V161.264L449.467 162.109C445.762 162.694 444.137 164.774 444.137 167.114Z" fill="#EAFFFF"/>
<path d="M401.27 176.474C403.155 172.639 403.155 172.639 403.155 171.079V136.369C403.155 134.744 403.155 134.744 401.27 130.974H414.53C412.645 134.809 412.645 134.809 412.645 136.369V170.689H421.03C423.89 170.689 425.645 170.689 431.885 165.684L430.845 176.474H401.27Z" fill="#EAFFFF"/>
<path d="M379.452 177.449C369.572 177.449 362.032 170.689 362.032 160.419C362.032 150.084 369.572 143.454 379.452 143.454C389.397 143.454 396.872 150.084 396.872 160.354C396.872 170.689 389.332 177.449 379.452 177.449ZM371.587 159.314C371.587 167.114 374.707 171.924 379.712 171.924C384.457 171.924 387.382 168.024 387.382 161.524C387.382 153.789 384.197 148.979 379.192 148.979C374.447 148.979 371.587 152.879 371.587 159.314Z" fill="#EAFFFF"/>
<path d="M339.728 176.474C341.548 173.679 341.548 173.354 341.548 171.404V151.449C341.548 149.239 341.548 148.264 339.598 146.054L349.738 143.909V151.514C351.428 146.574 353.768 143.779 357.993 143.779C359.163 143.779 360.073 143.974 360.658 144.299V152.229C359.813 151.904 358.838 151.774 357.538 151.774C354.548 151.774 351.883 152.944 350.583 155.674V171.274C350.583 173.224 350.583 173.224 352.988 176.474H339.728Z" fill="#EAFFFF"/>
<path d="M322.62 176.474C324.44 173.679 324.44 173.354 324.44 171.404V152.424C324.44 150.084 324.44 148.524 322.49 146.054L333.475 143.909V171.144C333.475 173.159 333.475 173.159 335.36 176.474H322.62ZM323.53 134.744C323.53 131.754 325.87 129.414 328.99 129.414C332.11 129.414 334.45 131.754 334.45 134.744C334.45 137.864 332.11 140.074 328.99 140.074C325.87 140.074 323.53 137.864 323.53 134.744Z" fill="#EAFFFF"/>
<path d="M299.552 144.429C297.602 147.744 297.602 147.744 298.902 150.864L304.882 165.164L310.992 150.734C312.162 147.874 312.162 147.874 310.342 144.429H320.677C318.857 147.614 318.857 147.614 317.102 151.449L305.597 176.929H300.852L289.347 151.384C287.592 147.549 287.592 147.549 285.707 144.429H299.552Z" fill="#EAFFFF"/>
<path d="M272.529 176.474C274.414 173.679 274.414 173.354 274.414 171.404V157.169C274.414 152.749 271.944 150.474 268.239 150.474C265.379 150.474 263.234 151.774 261.934 153.984V171.144C261.934 173.159 261.934 173.159 263.819 176.474H251.079C252.899 173.679 252.899 173.354 252.899 171.404V152.424C252.899 150.084 252.899 148.524 250.949 146.054L261.934 143.909V149.239C264.014 145.729 267.784 143.454 272.399 143.454C279.484 143.454 283.449 148.264 283.449 155.089V171.209C283.449 173.224 283.449 173.224 285.269 176.474H272.529Z" fill="#EAFFFF"/>
<path d="M215.213 176.474C217.098 172.639 217.098 172.639 217.098 171.079V136.369C217.098 134.744 217.098 134.744 215.213 130.974H246.478V140.399C241.928 136.499 240.498 136.499 238.158 136.499H226.588V149.954H236.013C238.093 149.954 239.133 149.954 242.838 147.419V158.014C239.133 155.479 238.028 155.479 235.948 155.479H226.588V170.949H236.923C239.653 170.949 241.213 170.949 247.128 166.464L246.088 176.474H215.213Z" fill="#EAFFFF"/>
<path d="M392.378 111.474C394.263 108.679 394.263 108.354 394.263 106.404V92.1689C394.263 87.7489 391.793 85.4739 388.088 85.4739C385.228 85.4739 383.083 86.7739 381.783 88.9839V106.144C381.783 108.159 381.783 108.159 383.668 111.474H370.928C372.748 108.679 372.748 108.354 372.748 106.404V87.4239C372.748 85.0839 372.748 83.5239 370.798 81.0539L381.783 78.9089V84.2389C383.863 80.7289 387.633 78.4539 392.248 78.4539C399.333 78.4539 403.298 83.2639 403.298 90.0889V106.209C403.298 108.224 403.298 108.224 405.118 111.474H392.378Z" fill="#EAFFFF"/>
<path d="M352.437 112.449C342.102 112.449 335.212 105.949 335.212 95.6789C335.212 85.9939 341.257 78.4539 351.332 78.4539C361.732 78.4539 367.257 85.0839 367.192 94.5739H344.247C344.507 100.944 349.512 104.974 356.662 104.974C360.822 104.974 364.657 103.739 366.607 101.464C366.152 107.639 361.602 112.449 352.437 112.449ZM344.247 90.7389H357.962C357.962 85.8639 355.622 82.4189 351.202 82.4189C346.977 82.4189 344.442 85.6039 344.247 90.7389Z" fill="#EAFFFF"/>
<path d="M313.486 79.4289C311.536 82.7439 311.536 82.7439 312.836 85.8639L318.816 100.164L324.926 85.7339C326.096 82.8739 326.096 82.8739 324.276 79.4289H334.611C332.791 82.6139 332.791 82.6139 331.036 86.4489L319.531 111.929H314.786L303.281 86.3839C301.526 82.5489 301.526 82.5489 299.641 79.4289H313.486Z" fill="#EAFFFF"/>
<path d="M285.644 111.474C287.464 108.679 287.464 108.354 287.464 106.404V87.4239C287.464 85.0839 287.464 83.5239 285.514 81.0539L296.499 78.9089V106.144C296.499 108.159 296.499 108.159 298.384 111.474H285.644ZM286.554 69.7439C286.554 66.7539 288.894 64.4139 292.014 64.4139C295.134 64.4139 297.474 66.7539 297.474 69.7439C297.474 72.8639 295.134 75.0739 292.014 75.0739C288.894 75.0739 286.554 72.8639 286.554 69.7439Z" fill="#EAFFFF"/>
<path d="M262.061 111.474C263.881 108.679 263.881 108.354 263.881 106.404V86.4489C263.881 84.2389 263.881 83.2639 261.931 81.0539L272.071 78.9089V86.5139C273.761 81.5739 276.101 78.7789 280.326 78.7789C281.496 78.7789 282.406 78.9739 282.991 79.2989V87.2289C282.146 86.9039 281.171 86.7739 279.871 86.7739C276.881 86.7739 274.216 87.9439 272.916 90.6739V106.274C272.916 108.224 272.916 108.224 275.321 111.474H262.061Z" fill="#EAFFFF"/>
<path d="M215.213 111.474C217.098 107.639 217.098 107.639 217.098 106.079V71.3689C217.098 69.7439 217.098 69.7439 215.213 65.9739H234.258C247.063 65.9739 257.463 74.0339 257.463 88.7239C257.463 103.414 247.063 111.474 234.258 111.474H215.213ZM226.588 106.014H232.373C240.368 106.014 247.453 100.359 247.453 88.7239C247.453 77.0889 240.368 71.4339 232.373 71.4339H226.588V106.014Z" fill="#EAFFFF"/>
<path d="M350.266 47.4489C346.756 47.4489 344.546 45.7589 343.701 42.7689C342.011 45.1739 338.371 47.4489 334.211 47.4489C328.361 47.4489 324.136 44.0039 324.136 38.9339C324.136 33.7989 328.166 30.4189 335.641 29.1189L343.311 27.7539V26.9739C343.311 22.7489 340.256 20.2139 335.251 20.2139C330.701 20.2139 327.516 21.7089 324.981 24.8939C325.696 17.3539 331.026 13.4539 339.086 13.4539C347.471 13.4539 352.346 18.0689 352.346 26.5189V37.6989C352.346 39.8439 353.386 40.9489 355.336 40.9489C356.441 40.9489 357.351 40.6239 358.131 39.8439C357.676 44.6539 354.491 47.4489 350.266 47.4489ZM333.366 37.1139C333.366 39.7789 335.381 41.4039 338.241 41.4039C340.516 41.4039 342.206 40.4939 343.311 38.9989V31.2639L338.696 32.1089C334.991 32.6939 333.366 34.7739 333.366 37.1139Z" fill="#EAFFFF"/>
<path d="M309.828 47.4489C303.003 47.4489 299.493 43.2889 299.493 36.6589V20.3439H293.058L308.528 5.19888V14.4289H322.503L319.838 20.3439H308.528V33.6689C308.528 37.7639 311.063 39.8439 314.898 39.8439C317.693 39.8439 319.968 38.9339 321.528 37.3089C320.748 43.1589 316.523 47.4489 309.828 47.4489Z" fill="#EAFFFF"/>
<path d="M287.675 47.4489C284.165 47.4489 281.955 45.7589 281.11 42.7689C279.42 45.1739 275.78 47.4489 271.62 47.4489C265.77 47.4489 261.545 44.0039 261.545 38.9339C261.545 33.7989 265.575 30.4189 273.05 29.1189L280.72 27.7539V26.9739C280.72 22.7489 277.665 20.2139 272.66 20.2139C268.11 20.2139 264.925 21.7089 262.39 24.8939C263.105 17.3539 268.435 13.4539 276.495 13.4539C284.88 13.4539 289.755 18.0689 289.755 26.5189V37.6989C289.755 39.8439 290.795 40.9489 292.745 40.9489C293.85 40.9489 294.76 40.6239 295.54 39.8439C295.085 44.6539 291.9 47.4489 287.675 47.4489ZM270.775 37.1139C270.775 39.7789 272.79 41.4039 275.65 41.4039C277.925 41.4039 279.615 40.4939 280.72 38.9989V31.2639L276.105 32.1089C272.4 32.6939 270.775 34.7739 270.775 37.1139Z" fill="#EAFFFF"/>
<path d="M215.213 46.4739C217.098 42.6389 217.098 42.6389 217.098 41.0789V6.36888C217.098 4.74388 217.098 4.74388 215.213 0.973877H234.258C247.063 0.973877 257.463 9.03388 257.463 23.7239C257.463 38.4139 247.063 46.4739 234.258 46.4739H215.213ZM226.588 41.0139H232.373C240.368 41.0139 247.453 35.3589 247.453 23.7239C247.453 12.0889 240.368 6.43388 232.373 6.43388H226.588V41.0139Z" fill="#EAFFFF"/>
<path d="M83.4167 0.552002C99.6582 0.662788 120.928 7.80952 138.21 22.1477C155.731 36.6849 169.291 58.7409 169.291 88.5139C169.291 118.557 155.749 140.618 138.22 155.093C120.798 169.481 99.3279 176.474 83.0339 176.474H16.073C7.62758 176.474 0.781006 169.627 0.781006 161.182V15.843C0.781057 7.39767 7.62764 0.551061 16.073 0.551025H83.0339L83.4167 0.552002ZM16.073 7.41724C11.4194 7.41726 7.64727 11.1895 7.64722 15.843V161.182C7.64722 165.835 11.4194 169.609 16.073 169.609H83.0339C97.6423 169.609 117.585 163.229 133.848 149.799C150.006 136.456 162.426 116.253 162.426 88.5139C162.426 61.0615 150.002 40.8523 133.826 27.4309C117.673 14.0291 97.9144 7.5192 83.3767 7.41821L83.0339 7.41626L16.073 7.41724ZM49.1619 65.092C63.0648 50.6239 81.1047 41.7877 101.461 42.4045L101.894 42.4221C106.34 42.6426 109.566 44.1467 111.766 46.2883C113.974 48.4378 114.883 50.9705 115.174 52.7463L115.272 53.3606C117.302 66.3307 118.201 89.9227 108.405 110.082L108.168 110.566C96.6721 133.749 73.4331 144.89 42.488 144.286L41.7556 144.27C40.3614 144.234 38.4655 143.762 37.4001 141.931C36.4803 140.35 36.7926 138.718 36.9958 137.957C37.4043 136.429 38.5318 134.653 38.45 134.805L39.1599 133.49C46.5087 119.91 57.556 100.73 74.0886 83.2932C73.0199 81.4393 72.406 79.29 72.406 76.9963C72.4061 70.0212 78.0607 64.3665 85.0359 64.3665C92.0109 64.3666 97.6657 70.0213 97.6658 76.9963C97.6658 83.9714 92.011 89.626 85.0359 89.6262C82.85 89.6262 80.7938 89.0703 79.0007 88.093C62.8723 105.125 52.0999 123.966 44.8269 137.444C72.8271 137.459 92.3087 127.096 102.017 107.516L102.232 107.076C111.14 88.7413 110.422 66.793 108.491 54.4387L108.397 53.8538C108.291 53.2035 107.918 52.1234 106.977 51.2073C106.127 50.3791 104.55 49.4263 101.548 49.2795L101.253 49.2678C83.1626 48.7196 66.9142 56.5276 54.113 69.8499L53.8113 70.1653C44.2204 80.2544 38.135 93.4852 35.4783 100.859C40.711 102.401 44.531 107.241 44.531 112.974C44.5309 119.949 38.8761 125.604 31.9011 125.604C24.926 125.604 19.2714 119.949 19.2712 112.974C19.2713 107.281 23.0372 102.469 28.2136 100.891C30.5537 93.5934 37.2895 77.5798 48.8347 65.4348L49.1619 65.092ZM31.9011 107.209C28.7178 107.209 26.1365 109.791 26.1365 112.974C26.1366 116.157 28.7178 118.737 31.9011 118.738C35.0842 118.737 37.6647 116.157 37.6648 112.974C37.6647 109.791 35.0843 107.209 31.9011 107.209ZM85.0359 71.2327C81.8526 71.2327 79.2713 73.813 79.2712 76.9963C79.2712 80.1797 81.8525 82.7609 85.0359 82.761C88.2191 82.7608 90.7996 80.1796 90.7996 76.9963C90.7995 73.8131 88.2191 71.2329 85.0359 71.2327Z" fill="#EAFFFF"/>
</svg>