<?xml version="1.0" encoding="UTF-8"?>
<svg xmlns="http://www.w3.org/2000/svg" viewBox="0 0 1024.33 567.2">
  <defs>
    <style>
      .cls-1 {
        fill: #c9ffcf;
      }

      .cls-2 {
        fill: #78c162;
      }

      .cls-3 {
        fill: #008d3d;
      }
    </style>
  </defs>
  <g id="bottom_part" data-name="bottom part">
    <g>
      <path class="cls-3" d="M999.31,189.91H25.78v178.15c-.52,3.11-.79,6.24-.79,9.4,0,90.96,217.93,164.71,486.76,164.71s485.73-73.39,486.75-164.06h.8v-188.19Z"/>
      <path class="cls-3" d="M999.31,164.91H65.19c-12.58,0-25.17-.14-37.75,0-.55,0-1.1,0-1.65,0-13.51,0-25,11.45-25,25,0,22.12,0,44.25,0,66.37s0,65.23,0,97.84v11.51c0,.61-.21,1.7,0,2.28.01.03-.02.12,0,.14-.26-.26,1.4-10.6.17-1.45-.23,1.72-.5,3.46-.67,5.2-.26,2.73-.35,5.47-.23,8.21.73,16.28,5.94,32.17,14.86,45.81,20.56,31.45,54.05,52.76,87.37,68.61,46.26,22,95.81,36.49,145.83,47.03,62.57,13.19,126.49,20.58,190.32,23.84,67.53,3.45,135.4,2.24,202.73-4.03,60.43-5.62,120.86-14.87,179.53-30.61,44.86-12.04,90.32-27.75,130.1-52.13,29.58-18.13,58.79-43.01,69.25-77.36,2.25-7.4,3.34-15.36,3.47-23.08l-25,25h.8c13.51,0,25-11.45,25-25v-188.19c0-13.08-11.5-25.6-25-25s-25,10.98-25,25v188.19l25-25h-.8c-13.68,0-24.77,11.46-25,25-.02,1.38-.08,2.77-.2,4.15-.06.67-.31,1.57-.23,2.22-.11-.85,1.29-7.88.47-3.8-.57,2.86-1.21,5.68-2.12,8.46-.45,1.36-1,2.68-1.47,4.03,2.61-7.47,1.78-3.97.17-.75-1.4,2.82-2.99,5.55-4.71,8.18-.86,1.32-1.76,2.61-2.69,3.89-.4.55-1.06,1.16-1.33,1.78s4.12-5.12,2.75-3.58c-.42.47-.79.99-1.19,1.47-2.25,2.73-4.63,5.34-7.12,7.86-2.64,2.67-5.39,5.23-8.23,7.69-1.43,1.24-2.88,2.45-4.35,3.64-.51.41-2.24,1.38-2.44,1.94-.11.31,4.91-3.71,3.27-2.53-.49.36-.97.73-1.46,1.1-14.93,11.14-31.35,20.23-48.18,28.15-2.25,1.06-4.51,2.1-6.79,3.11-1.07.48-2.13.95-3.2,1.42-1.16.51-6.22,2.66-1.9.84s.1-.05-.88.36c-1.31.54-2.61,1.07-3.93,1.6-2.67,1.07-5.34,2.12-8.03,3.15-10.9,4.17-21.94,7.97-33.06,11.47-24.98,7.87-50.42,14.27-76.06,19.63-13.87,2.9-27.8,5.49-41.78,7.8-7.25,1.2-14.52,2.33-21.8,3.39-3.56.52-7.13,1.01-10.7,1.5-2.86.39,2.59-.35,2.5-.34-1.11.12-2.22.29-3.33.44-1.95.25-3.91.5-5.86.74-64.99,8.08-130.62,11.05-196.09,9.79-32.91-.64-65.8-2.39-98.59-5.37-15.41-1.4-30.79-3.08-46.13-5.05-.83-.11-1.67-.22-2.5-.32-4.44-.57,1.11.15,1.66.23-1.65-.24-3.31-.45-4.96-.68-3.82-.53-7.64-1.09-11.46-1.66-7.5-1.12-14.99-2.32-22.46-3.6-50.75-8.68-101.38-20.71-149.39-39.54-2.46-.96-4.91-1.95-7.35-2.95-1.11-.46-2.24-.88-3.33-1.38-.51-.23,5.67,2.44,3.23,1.36-.9-.4-1.81-.78-2.71-1.17-4.74-2.07-9.44-4.22-14.09-6.46-8.65-4.18-17.14-8.68-25.38-13.62-3.8-2.28-7.55-4.65-11.22-7.14-1.7-1.15-3.38-2.32-5.04-3.51-.88-.63-1.75-1.27-2.62-1.91-.94-.7-4.29-3.27-.37-.24,3.98,3.07.62.47-.28-.26-.69-.55-1.37-1.11-2.05-1.67-1.55-1.28-3.07-2.59-4.57-3.94-2.86-2.56-5.62-5.23-8.26-8.02-1.17-1.24-2.31-2.5-3.43-3.78-.98-1.14-5.04-6.25-1.67-1.88s-.29-.45-1.11-1.63c-.96-1.38-1.87-2.78-2.75-4.2-1.63-2.66-3.06-5.4-4.4-8.22-.97-2.05-1.58-5.33,1.32,3.2-.21-.63-.5-1.23-.72-1.86-.51-1.44-1.02-2.88-1.45-4.35-.39-1.35-.74-2.7-1.04-4.07-.32-1.47-1.18-7.28-.39-1.41s.1.4.02-1.13c-.13-2.33-.03-4.64.04-6.97.13-4.57-.12.19-.23,1.02,0-.02.89-6.64.89-6.65,0-.04,0-.08,0-.11.01-.25,0-.51,0-.76.03-1.1,0-2.22,0-3.32,0-27.96,0-55.92,0-83.88s0-56.79,0-85.19v-4.88l-25,25h934.13c12.58,0,25.17.14,37.75,0,.55,0,1.1,0,1.65,0,13.08,0,25.6-11.5,25-25-.61-13.55-10.98-25-25-25Z"/>
    </g>
  </g>
  <g id="top_button" data-name="top button">
    <g>
      <ellipse class="cls-2" cx="512.55" cy="189.91" rx="486.76" ry="164.71"/>
      <path class="cls-3" d="M974.31,189.91c-.01,2.14-.22,4.24-.36,6.38-.23,3.54,1.27-7.59.55-4.11-.09.42-.13.84-.21,1.26-.26,1.26-.5,2.52-.81,3.77-.52,2.11-1.16,4.19-1.9,6.24-.45,1.23-2.07,5.11.05.11s.2-.53-.4.7c-2.17,4.45-4.78,8.68-7.7,12.68-.29.4-.59.79-.88,1.19-2.16,2.98,4.45-5.53,2.07-2.69-.82.98-1.61,1.97-2.44,2.94-1.72,2-3.51,3.93-5.35,5.81-4.15,4.23-8.59,8.18-13.2,11.89-.46.37-.93.73-1.39,1.11-3.12,2.54,5.47-4.09,2.2-1.7-1.24.91-2.46,1.84-3.7,2.73-2.57,1.85-5.18,3.64-7.83,5.38-12.02,7.91-24.74,14.73-37.76,20.85-3.49,1.64-6.99,3.22-10.52,4.76-1.07.47-2.15,1.02-3.25,1.4.03-.01,6.25-2.6,2.67-1.13-2.24.92-4.48,1.85-6.72,2.74-7.8,3.12-15.69,6.03-23.63,8.78-17.74,6.13-35.76,11.43-53.94,16.09-20.03,5.14-40.25,9.52-60.58,13.28-11.07,2.05-22.18,3.92-33.31,5.62-5.45.83-10.9,1.62-16.36,2.38-1.1.15-2.21.3-3.31.45,6.74-.95,2.49-.34.83-.12-3.07.4-6.14.79-9.22,1.16-98.17,12-198.07,13-296.51,3.7-11.99-1.13-23.96-2.43-35.91-3.91-2.79-.34-5.58-.71-8.37-1.06s-1.32-1.35,1.66.23c-1.14-.61-3.66-.5-4.96-.68-5.45-.76-10.89-1.56-16.33-2.4-21.28-3.28-42.47-7.17-63.5-11.81-36.52-8.04-72.75-18.21-107.48-32.17-1.87-.75-3.73-1.52-5.59-2.29-4.38-1.81,5.9,2.55,1.59.66-.72-.31-1.44-.62-2.16-.94-3.88-1.69-7.73-3.44-11.55-5.25-6.57-3.11-13.06-6.41-19.43-9.94s-12.23-7.06-18.11-10.96c-2.5-1.66-4.97-3.36-7.39-5.12-1.24-.9-2.45-1.83-3.69-2.74-2.35-1.73,5.58,4.41,2.56,1.98-.69-.56-1.39-1.1-2.08-1.67-4.58-3.72-8.97-7.67-13.08-11.91-1.73-1.79-3.42-3.63-5.04-5.53-.83-.97-1.6-1.98-2.43-2.94-1.8-2.11,4.39,5.87,2.3,2.99-.43-.6-.88-1.18-1.31-1.78-2.88-4.01-5.45-8.24-7.56-12.7-1.09-2.3-2.01-6.62.89,2.28-.31-.94-.73-1.85-1.06-2.79-.76-2.15-1.42-4.33-1.94-6.55-.25-1.04-.44-2.1-.66-3.15-.06-.3-.1-1.72-.31-1.9-.08-.07.76,7.26.65,4.74-.1-2.35-.38-4.66-.35-7.02.02-2.03.24-4.03.39-6.05-.74,9.68-.45,2.96.43-.61.52-2.11,1.16-4.19,1.9-6.24.8-2.22,3.1-6.58-1.05,2.26.58-1.22,1.1-2.47,1.71-3.68,2.11-4.23,4.61-8.25,7.4-12.07.4-.55,1.05-1.17,1.33-1.78.19-.42-4.56,5.68-2.52,3.29.83-.97,1.61-1.97,2.44-2.94,1.89-2.2,3.87-4.33,5.92-6.39,3.99-4.01,8.23-7.77,12.64-11.31.67-.54,1.36-1.21,2.1-1.66.31-.19-5.73,4.3-2.91,2.26,1.24-.9,2.46-1.84,3.7-2.73,2.83-2.04,5.71-4.01,8.64-5.92,5.67-3.69,11.49-7.14,17.41-10.4,6.73-3.7,13.6-7.15,20.56-10.4,3.32-1.55,6.67-3.05,10.03-4.52.9-.39,1.81-.77,2.71-1.17-7.05,3.13-3.82,1.6-2.12.9,2.05-.84,4.11-1.69,6.17-2.51,16.5-6.59,33.35-12.29,50.37-17.35,39.63-11.79,80.24-20.18,121.09-26.42,5.45-.83,10.9-1.62,16.36-2.38l1.65-.23q2.21-.3,0,0l-1.66.22c1.11-.15,2.22-.29,3.33-.44,3.35-.43,6.71-.85,10.07-1.26,11.41-1.38,22.84-2.59,34.28-3.66,24.42-2.27,48.91-3.85,73.42-4.81,50.6-1.96,101.32-1.3,151.85,2.12,23.78,1.61,47.53,3.84,71.18,6.76,2.79.34,5.58.71,8.37,1.06,5.68.73-4.56-.63-.83-.12,1.38.19,2.75.38,4.13.57,5.99.84,11.97,1.72,17.94,2.65,10.57,1.65,21.11,3.44,31.63,5.41,38.65,7.22,77.03,16.57,114.19,29.51,8.3,2.89,16.53,5.96,24.67,9.26,1.68.68,3.34,1.38,5.02,2.07,2.97,1.22-6.28-2.7-2.14-.89.9.39,1.8.78,2.7,1.17,3.69,1.62,7.37,3.29,11.01,5.01,12.95,6.13,25.59,12.98,37.54,20.9,2.63,1.74,5.22,3.54,7.77,5.4,1.23.9,2.44,1.84,3.67,2.74-7.7-5.63-1.95-1.5-.16-.03,4.33,3.56,8.49,7.33,12.4,11.35,1.82,1.88,3.59,3.82,5.29,5.82.82.97,1.59,1.98,2.41,2.94-6.25-7.32-2.23-2.92-.8-.9,2.7,3.83,5.13,7.86,7.14,12.1,1.15,2.42,1.85,6.31-.89-2.28.33,1.04.81,2.06,1.17,3.1.72,2.05,1.33,4.13,1.83,6.24.25,1.04.44,2.1.66,3.15,1.08,5.4-.53-5.78-.34-2.85.14,2.13.35,4.23.36,6.38.07,13.07,11.45,25.61,25,25s25.08-10.99,25-25c-.32-56.66-55.06-94.27-100.76-116.25-75.58-36.35-159.6-52.95-242.28-63.29-100.39-12.55-202.66-13.57-303.34-3.78-84.64,8.22-171.38,22.62-250.29,55.54-30.23,12.61-59.13,27.35-84.35,48.5-18.45,15.48-35.19,36.53-40.33,60.57-12.07,56.48,33.82,99.09,78.46,124.46,31.13,17.69,65.2,30.56,99.39,40.95,40.34,12.26,81.75,20.93,123.4,27.36,101.64,15.68,205.2,19.42,307.77,12.21,88.03-6.18,177.79-19.21,261.18-49.1,31.2-11.18,62.51-24.54,89.84-43.53,20.9-14.52,41.94-32.77,52.54-56.51,5.33-11.93,8.69-23.92,8.76-37.12.07-13.08-11.55-25.6-25-25s-24.92,10.98-25,25Z"/>
    </g>
    <path class="cls-1" d="M515.64,63.61c-154.42-.94-277.25,41.79-276.06,48.07,1.11,5.82,108.56-21.4,277.09-20.26,168.53,1.14,276.55,29.81,277.51,24.02,1.04-6.26-123.44-50.88-278.54-51.82Z"/>
  </g>
</svg>