<?xml version="1.0" encoding="UTF-8"?>
<svg xmlns="http://www.w3.org/2000/svg" viewBox="0 0 1488.75 1646.4">
  <defs>
    <style>
      .cls-1 {
        fill: #4d4d4d;
      }

      .cls-2 {
        fill: #ccc;
      }

      .cls-3 {
        fill: #edd4ff;
      }

      .cls-4 {
        fill: #c73484;
      }

      .cls-5 {
        fill: #7a195a;
      }

      .cls-6 {
        fill: #fff;
        stroke: #fff;
        stroke-miterlimit: 10;
      }
    </style>
  </defs>
  <g id="Layer_3" data-name="Layer 3">
    <g>
      <ellipse class="cls-4" cx="512.47" cy="1460.51" rx="487.66" ry="160.81"/>
      <path class="cls-5" d="M975.13,1460.51c-.01,2.09-.21,4.14-.36,6.23-.24,3.5,1.28-7.61.55-4.17-.09.41-.13.83-.21,1.23-.26,1.23-.5,2.46-.81,3.68-.53,2.07-1.21,4.07-1.9,6.09-.14.41-.32.8-.46,1.21-1.09,3.21,2.81-6.31,1.65-3.86-.52,1.09-1,2.21-1.54,3.3-2.19,4.39-4.89,8.38-7.71,12.38-1.77,2.51,2.95-3.6,2.57-3.32-.52.39-.98,1.23-1.39,1.73-.8.97-1.61,1.93-2.45,2.87-1.72,1.95-3.51,3.84-5.36,5.67-4.18,4.16-8.73,7.82-13.23,11.61,7.95-6.69-.75.48-2.91,2-2.57,1.81-5.19,3.56-7.84,5.26-12.07,7.73-24.8,14.39-37.82,20.36-3.49,1.6-7.03,3.11-10.54,4.65,8.18-3.59,1.36-.59-.59.21-2.24.91-4.48,1.8-6.74,2.68-7.82,3.04-15.72,5.89-23.68,8.57-17.78,5.99-35.84,11.16-54.04,15.71-20.07,5.02-40.33,9.3-60.69,12.97-11.09,2-22.22,3.83-33.37,5.49-2.72.4-5.44.8-8.16,1.18-1.09.16-2.19.31-3.28.46l-1.65.23c-2.76.38-2.2.3,1.69-.22-1.47-.7-5.86.77-7.49.97-3.08.39-6.15.77-9.23,1.13-98.38,11.72-198.42,12.69-297.06,3.61-12.01-1.11-24-2.37-35.98-3.82-2.8-.34-5.59-.68-8.38-1.04-1.11-.14-2.22-.28-3.33-.43l-1.66-.22c-2.77-.37-2.21-.29,1.68.23-1.88-.97-5.31-.73-7.4-1.03-2.99-.43-5.97-.86-8.96-1.31-21.31-3.2-42.54-7-63.61-11.53-36.56-7.85-72.83-17.76-107.68-31.41-1.87-.73-3.74-1.48-5.6-2.24s-8.75-3.79-.59-.21c-3.86-1.69-7.74-3.36-11.57-5.12-6.58-3.04-13.08-6.26-19.46-9.71s-12.25-6.89-18.15-10.7c-2.5-1.62-4.97-3.28-7.41-5-1.24-.88-2.47-1.77-3.69-2.67-.6-.45-1.19-.9-1.79-1.35-3.16-2.35,5.14,4.09,2.27,1.74-4.53-3.71-8.97-7.47-13.1-11.63-1.74-1.75-3.42-3.54-5.05-5.4-.83-.94-1.62-1.91-2.43-2.87-3.65-4.32,3.84,5.29.99,1.29s-5.44-8.02-7.58-12.4c-.19-.39-1.56-2.78-1.37-3,.22-.27,2.57,6.68,1.78,4.16-.16-.51-.39-1.01-.57-1.51-.76-2.1-1.42-4.23-1.94-6.4-.25-1.02-.44-2.05-.66-3.07-.08-.36-.08-1.59-.31-1.85-.14-.16.77,7.34.65,4.79-.12-2.29-.38-4.55-.36-6.85.02-1.99.23-3.94.39-5.91-.8,9.71-.47,3.1.43-.44.53-2.07,1.21-4.07,1.9-6.09,1.82-5.29-2.37,5.04-1.05,2.35.58-1.19,1.11-2.41,1.71-3.59,2.13-4.16,4.7-7.99,7.41-11.78,2.12-2.96-4.46,5.56-2.12,2.74.32-.38.62-.77.93-1.15.8-.97,1.61-1.93,2.45-2.87,1.9-2.15,3.88-4.23,5.93-6.23,4.02-3.94,8.37-7.41,12.66-11.05-7.11,6.02-2.63,2.02-.8.67,1.23-.9,2.46-1.79,3.71-2.67,2.84-1.99,5.73-3.92,8.65-5.78,5.68-3.61,11.51-6.98,17.45-10.16,6.75-3.62,13.63-6.98,20.6-10.15,1.74-.79,3.48-1.57,5.23-2.34,1.15-.5,6.89-2.95,2.38-1.04s1.94-.79,3.05-1.24c2.05-.83,4.12-1.65,6.18-2.45,16.54-6.44,33.42-12,50.47-16.94,39.73-11.52,80.41-19.71,121.31-25.8,2.72-.4,5.44-.8,8.16-1.18,1.37-.19,2.74-.38,4.11-.57l.82-.11c2.76-.38,2.2-.3-1.69.22,1.44.62,6.72-.88,8.32-1.08,3.36-.42,6.72-.83,10.08-1.23,11.43-1.35,22.88-2.53,34.35-3.57,24.47-2.22,49-3.76,73.56-4.69,50.69-1.92,101.51-1.26,152.13,2.07,23.82,1.57,47.61,3.75,71.32,6.6,2.8.34,5.59.68,8.38,1.04,1.39.18,2.78.36,4.16.54,2.91.38,3.41,1.95-.85-.12,1.98.96,6.02.83,8.22,1.15,3.25.47,6.51.95,9.76,1.44,10.59,1.61,21.15,3.36,31.68,5.28,38.69,7.04,77.13,16.17,114.4,28.82,8.31,2.82,16.55,5.82,24.71,9.04,1.68.66,3.35,1.34,5.02,2.02.92.37,1.83.76,2.75,1.13,4.18,1.72-5.09-2.2-2.17-.92,3.69,1.62,7.38,3.21,11.03,4.89,12.95,5.98,25.62,12.66,37.61,20.41,2.63,1.7,5.23,3.45,7.78,5.27,1.24.88,2.46,1.77,3.68,2.67.48.36.95.72,1.43,1.08,3.15,2.32-5.8-4.65-1.58-1.2s8.5,7.14,12.42,11.08c1.83,1.84,3.6,3.73,5.3,5.68.82.94,1.61,1.91,2.41,2.87,3.2,3.84-4.42-6-.79-1,2.7,3.73,5.13,7.67,7.15,11.81.48.99.88,2.02,1.37,3-4.28-8.48-1.92-4.67-1.09-2.35.72,2,1.33,4.03,1.83,6.1.25,1.02.45,2.05.66,3.07,1.1,5.34-.54-5.87-.34-2.94.15,2.08.35,4.13.36,6.23.08,13.07,11.44,25.61,25,25s25.08-10.99,25-25c-.32-56.16-55.64-92.79-100.92-114.01-75.95-35.6-159.95-51.79-242.7-61.88-100.61-12.26-203.02-13.25-303.9-3.7-84.7,8.02-171.5,22.04-250.73,54.25-30.24,12.3-59.1,26.76-84.49,47.51-18.42,15.05-35.19,35.67-40.4,59.4-12.26,55.9,34.39,97.71,78.58,122.18,31.27,17.32,65.35,29.91,99.56,40.04,40.46,11.98,81.93,20.44,123.63,26.71,101.88,15.32,205.56,18.98,308.33,11.95,88.13-6.03,177.95-18.73,261.65-47.96,31.19-10.89,62.53-23.97,90-42.56,20.86-14.12,41.87-32.02,52.62-55.39,5.37-11.68,8.7-23.57,8.77-36.55.08-13.08-11.55-25.6-25-25s-24.92,10.98-25,25Z"/>
    </g>
    <path class="cls-3" d="M104.2,1429.34c-2.09-5.88,61.63-38.93,135.67-59.18,45.43-12.43,82.16-16.59,114.02-20.21,20.89-2.37,71.49-7.54,138.56-6.07,59.3,1.3,122.82,7.59,122.72,11.88-.08,3.29-37.5,2.77-116.56,9.22-73.56,6.01-125.83,13.37-138.96,15.27-13.31,1.93-56.65,8.33-114.99,19.89-98.54,19.53-138.85,33.75-140.47,29.18Z"/>
  </g>
  <g id="Layer_2" data-name="Layer 2">
    <g>
      <path class="cls-2" d="M494.5,1461.75l23.77,6.5c31.89,8.72,64.81-10.05,73.53-41.94l239.68-875.99c8.72-31.89-10.05-64.81-41.94-73.53l-23.77-6.5c-31.89-8.72-64.81,10.05-73.53,41.94l-239.68,875.99c-8.72,31.89,10.05,64.81,41.94,73.53Z"/>
      <path class="cls-1" d="M487.85,1485.85c8.38,2.29,16.72,4.79,25.16,6.87,21.87,5.39,45.76,2.23,65.05-9.64s32.5-30.55,38.44-52.29l12.21-44.62c8.3-30.33,16.6-60.66,24.9-90.99,11.27-41.19,22.54-82.38,33.81-123.57,12.9-47.16,25.81-94.32,38.71-141.49,13.18-48.17,26.36-96.33,39.54-144.5,12.23-44.69,24.45-89.38,36.68-134.07,9.92-36.24,19.83-72.48,29.75-108.72,6.27-22.93,12.55-45.86,18.82-68.8,1.38-5.05,2.77-10.11,4.15-15.16,6.21-22.81,3.86-47.3-8.42-67.77-11.29-18.82-29.52-32.48-50.59-38.46-8.75-2.48-17.54-5.17-26.42-7.16-44.32-9.91-89.05,16.28-101.51,60.1-2.93,10.31-5.66,20.67-8.48,31.01-7.41,27.09-14.82,54.18-22.24,81.27-10.68,39.03-21.36,78.07-32.04,117.1-12.59,46.01-25.17,92.01-37.76,138.02-13.27,48.48-26.53,96.97-39.8,145.45-12.59,46.01-25.17,92.01-37.76,138.02-10.56,38.61-21.13,77.21-31.69,115.82-7.3,26.66-14.59,53.33-21.89,79.99-2.92,10.65-6.3,21.29-8.71,32.08-9.92,44.36,16.28,88.97,60.09,101.51,12.57,3.6,27.78-4.39,30.75-17.46,3.03-13.32-4-26.9-17.46-30.75-2.16-.62-4.53-1.86-6.72-2.27.4.07,5.68,2.68,2.15.82-.81-.43-1.65-.83-2.45-1.27-2.01-1.1-3.88-2.37-5.8-3.62-1.53-1-2.55-2.82,1.83,1.45-.96-.93-2.06-1.75-3.04-2.66-1.31-1.22-2.56-2.5-3.75-3.83-.54-.6-3.25-4.15-.6-.56s.02-.06-.41-.7c-1-1.47-1.93-2.99-2.79-4.54-.54-.97-1.01-1.98-1.53-2.96-2.58-4.77,1.2,3.44.41,1.08-1.3-3.86-2.34-7.63-3.13-11.64-.64-3.31.48,6.87.31,1.95-.03-.91-.13-1.81-.16-2.72-.08-2.3.04-4.58.15-6.87.2-4.07-.3,2.15-.41,2.49.36-1.06.4-2.36.63-3.47.25-1.17.53-2.32.84-3.47.02-.07.04-.13.05-.2.87-3.28,1.79-6.55,2.69-9.82,5.39-19.71,10.78-39.41,16.18-59.12,9.14-33.42,18.29-66.85,27.43-100.27,11.65-42.56,23.29-85.13,34.94-127.69,12.89-47.13,25.79-94.25,38.68-141.38,12.89-47.11,25.78-94.22,38.67-141.33,11.63-42.52,23.27-85.03,34.9-127.55,9.12-33.35,18.25-66.69,27.37-100.04,5.36-19.6,10.72-39.2,16.09-58.8.88-3.21,1.73-6.43,2.64-9.64.01-.05.03-.1.04-.15.39-1.37.8-2.74,1.27-4.09.28-.79.81-1.79,1-2.64-1.39,6.35-1.28,3-.2.92s2.22-4,3.5-5.89c.5-.75,1.09-1.46,1.57-2.22-3.43,5.39-2.57,3.16-1.38,1.89,1.53-1.65,2.99-3.31,4.64-4.85.65-.61,1.33-1.18,2-1.78,3.63-3.29-4.95,3.3-.85.63,3.31-2.16,7.2-3.71,10.4-5.93-.26.18-6.01,2.28-2.26,1.02.85-.28,1.68-.6,2.53-.87,2.35-.75,4.74-1.34,7.16-1.79,2.67-.5,3.71.65-1.97.21.82.06,1.92-.18,2.71-.22,2.05-.12,4.11-.13,6.16-.04,1.05.05,2.44.43,3.45.25-.33.06-6.55-1.13-2.49-.31,1.88.38,3.74.77,5.6,1.26,8.38,2.2,16.8,4.39,25.1,6.88,1.13.34,2.26.71,3.37,1.12,2.86,1.04,2.03,2.27-1.43-.66,1.3,1.1,3.4,1.67,4.91,2.54,1.87,1.08,3.76,2.86,5.7,3.74-.33-.15-4.8-4.02-1.89-1.38,1,.9,2.01,1.78,2.98,2.72,1.44,1.41,2.73,2.93,4.08,4.43,2.19,2.42-3.67-5.37-1.06-1.36.49.74,1.01,1.46,1.5,2.21,1.08,1.68,2.08,3.41,2.99,5.19.49.95.84,2.14,1.44,3-.86-1.24-2.18-5.55-.79-1.63.67,1.89,1.25,3.82,1.73,5.77.3,1.21,1.44,8.15.77,3.3-.67-4.84.03,2.2.05,3.46.03,2.23-.56,4.71-.31,6.89-.6-5.27.72-4.63.18-1.79-.22,1.16-.47,2.32-.75,3.47-.11.46-.25.94-.37,1.4-.02.08-.04.15-.06.22-.28,1.07-.59,2.14-.88,3.21-4.3,15.71-8.59,31.41-12.89,47.12-8.35,30.53-16.71,61.06-25.06,91.59-11.16,40.77-22.31,81.55-33.47,122.32-12.71,46.44-25.41,92.88-38.12,139.33s-26.01,95.07-39.02,142.6c-12.05,44.05-24.1,88.09-36.15,132.14-9.84,35.98-19.69,71.96-29.53,107.94-6.39,23.34-12.77,46.68-19.16,70.02l-4.51,16.5c-.26.96-.52,1.92-.79,2.88-.01.04-.02.08-.03.11-.52,1.83-1.16,3.61-1.76,5.41-1.57,4.72,2.17-4.41.6-1.47-.54,1.02-1.01,2.07-1.57,3.08-1.1,2.01-2.37,3.88-3.62,5.8-1,1.53-2.82,2.55,1.45-1.83-.62.63-1.16,1.39-1.75,2.05-1.49,1.67-3.07,3.25-4.74,4.74-.66.59-1.4,1.13-2.03,1.74,4.83-4.69,2.57-1.94.78-.72-1.65,1.12-3.37,2.16-5.12,3.11-2.21,1.2-7.9,2.78-.67.57-3.88,1.18-7.59,2.47-11.59,3.26-1.92.37-3.87-.2,2.63-.33-.89.02-1.81.17-2.71.22-2.28.13-4.57.14-6.85,0-.91-.05-1.86-.21-2.76-.22,6.35.06,4.41.72,2.49.31s-3.74-.77-5.6-1.26c-7.93-2.09-15.81-4.33-23.72-6.49-12.6-3.45-27.75,4.28-30.75,17.46-3.01,13.2,3.96,27.06,17.46,30.75Z"/>
    </g>
    <rect class="cls-6" x="594.29" y="514.9" width="19.06" height="914.24" rx="9.53" ry="9.53" transform="translate(275.96 -124.31) rotate(15.2)"/>
    <path class="cls-1" d="M549.2,1458.23l-3.71-1.01c-26.09-7.93-32.73-11.05-32.46-12.19.27-1.14,7.06.86,14.26-1.78,0,0,10.85-3.97,17.77-20.8,17.94-43.63,161.44-594.24,229.51-844.81,1.38-5.08,6.62-8.08,11.7-6.7l3.71,1.01c5.08,1.38,8.08,6.62,6.7,11.7l-235.78,867.89c-3.9,2.23-7.8,4.47-11.7,6.7Z"/>
  </g>
  <g id="Layer_1" data-name="Layer 1">
    <g>
      <circle class="cls-4" cx="806.95" cy="386.9" r="361.89"/>
      <path class="cls-5" d="M1143.84,386.9c-.02,9.81-.39,19.62-1.18,29.4-.35,4.37-.78,8.74-1.29,13.09-.13,1.14-.28,2.28-.42,3.42-.49,4.12.31-2.33.35-2.55-.47,2.7-.78,5.44-1.22,8.14-2.95,18.28-7.31,36.33-13.05,53.93-2.76,8.47-5.83,16.84-9.21,25.09-.66,1.61-2.84,6.05.46-1.06-.37.8-.7,1.63-1.05,2.44-.88,2.03-1.79,4.05-2.71,6.06-2.02,4.42-4.14,8.79-6.34,13.13-8.06,15.87-17.3,31.13-27.61,45.64-2.41,3.39-4.89,6.72-7.4,10.05-3,3.98,3.8-4.8.69-.91-.55.68-1.08,1.37-1.63,2.06-1.64,2.05-3.3,4.08-4.98,6.1-5.6,6.71-11.44,13.22-17.51,19.51-6.37,6.6-12.99,12.97-19.84,19.07-3.1,2.76-6.25,5.47-9.44,8.13-1.51,1.26-3.04,2.5-4.57,3.74-1.02.82-2.06,1.63-3.08,2.45-3.89,3.11,4.88-3.69.91-.69-14.37,10.85-29.39,20.76-45.17,29.44-7.73,4.26-15.62,8.23-23.64,11.9-2.01.92-4.03,1.83-6.06,2.71-1.58.69-6.24,2.44,1.08-.43-.83.32-1.64.68-2.46,1.02-4.53,1.86-9.09,3.62-13.69,5.29-17.11,6.21-34.7,11.12-52.56,14.67-4.24.84-8.5,1.61-12.77,2.3-2.26.36-4.52.7-6.78,1.03-5.17.75,6.38-.78,1.19-.16-1.37.16-2.74.34-4.11.5-9.21,1.06-18.47,1.77-27.74,2.12-19.11.73-38.27-.03-57.26-2.28-1.14-.14-2.28-.28-3.42-.42-3.43-.42,6.83.99,1.87.25-2.26-.34-4.53-.66-6.78-1.03-4.72-.76-9.42-1.62-14.11-2.57-9.07-1.84-18.07-4.02-26.97-6.56-8.6-2.45-17.11-5.22-25.51-8.3-4.17-1.53-8.32-3.14-12.43-4.83-6.34-2.6,4.9,2.15-1.38-.59-2.43-1.06-4.86-2.15-7.27-3.27-16.18-7.49-31.81-16.18-46.71-25.97-7.52-4.94-14.72-10.26-21.94-15.62,6.72,4.98.38.25-1.13-.96-1.7-1.37-3.4-2.76-5.07-4.16-3.36-2.8-6.66-5.66-9.91-8.58-13.33-11.97-25.78-24.92-37.21-38.71-1.39-1.68-2.77-3.38-4.14-5.09-.68-.85-1.34-1.73-2.03-2.57-2.08-2.55,3.98,5.24,1.1,1.43s-5.51-7.36-8.16-11.12c-5.18-7.35-10.09-14.89-14.71-22.61s-8.77-15.27-12.73-23.14c-1.99-3.95-3.9-7.93-5.74-11.95-.92-2.01-1.83-4.03-2.71-6.06-.32-.73-2.08-4.92-.31-.68s-.45-1.11-.78-1.93c-6.81-16.8-12.35-34.11-16.55-51.74-2.16-9.06-3.97-18.2-5.42-27.4-.36-2.26-.63-4.53-1-6.79,1.42,8.63.09.48-.15-1.56-.53-4.59-.97-9.19-1.32-13.79-1.46-19.1-1.42-38.32.11-57.42.37-4.6.83-9.2,1.37-13.78.11-.91.23-1.82.34-2.74.62-5.19-.91,6.36-.16,1.19.36-2.49.73-4.98,1.14-7.46,1.5-9.18,3.36-18.31,5.56-27.34,4.36-17.84,10.16-35.23,17.09-52.23.61-1.5,2.01-4.15-.97,2.29.56-1.2,1.05-2.44,1.59-3.66.8-1.82,1.62-3.64,2.45-5.45,1.94-4.21,3.96-8.39,6.06-12.52,4.09-8.04,8.48-15.94,13.16-23.65,4.66-7.69,9.61-15.2,14.83-22.52,2.54-3.57,5.23-7.02,7.82-10.55-.13.18-3.96,5.04-1.49,1.95.82-1.02,1.63-2.06,2.45-3.08,1.37-1.7,2.76-3.4,4.16-5.07,11.48-13.76,23.97-26.66,37.35-38.58,3.26-2.91,6.58-5.76,9.95-8.55,1.68-1.39,3.38-2.77,5.09-4.14.68-.55,1.37-1.08,2.06-1.63,3.67-2.94-5.05,3.8-.39.3,7.19-5.39,14.49-10.61,22.03-15.5,15.14-9.84,31.02-18.54,47.47-26,2.02-.92,4.05-1.8,6.07-2.69,1.47-.65,4.34-1.65-2.3.96,1.03-.41,2.05-.85,3.08-1.27,4.32-1.76,8.68-3.44,13.07-5.04,8.62-3.13,17.36-5.93,26.2-8.39,8.92-2.48,17.94-4.62,27.02-6.41,4.47-.88,8.96-1.67,13.46-2.38,2.26-.36,4.54-.61,6.79-1-.23.04-6.67.84-2.55.35,1.37-.16,2.74-.34,4.11-.5,19-2.19,38.18-2.86,57.29-2.06,9.49.4,18.96,1.17,28.39,2.31,1.14.14,2.28.31,3.42.43-7.52-.78-3.71-.5-1.88-.24,2.04.29,4.07.6,6.1.93,4.94.8,9.87,1.7,14.77,2.7,18.04,3.7,35.8,8.77,53.06,15.19,3.96,1.47,7.88,3.04,11.8,4.62,1.67.67,4.94,2.34-1.68-.72,1,.46,2.04.88,3.05,1.32,2.23.98,4.45,1.98,6.66,3,8.21,3.8,16.27,7.91,24.17,12.31,15.58,8.69,30.15,18.69,44.48,29.28-6.7-4.96-.46-.32,1.13.96,1.7,1.37,3.4,2.76,5.07,4.16,3.69,3.08,7.32,6.23,10.89,9.46,6.48,5.86,12.75,11.95,18.8,18.26,6.2,6.47,12.15,13.17,17.86,20.08,1.39,1.69,2.77,3.39,4.13,5.1.68.85,1.33,1.74,2.03,2.58-4.47-5.36-2.47-3.22-1.5-1.94,2.9,3.84,5.77,7.71,8.54,11.66,10.36,14.75,19.61,30.27,27.66,46.39,1.87,3.76,3.68,7.55,5.42,11.37.92,2.01,1.8,4.04,2.7,6.07.72,1.63,1.97,5.12-.69-1.69.49,1.24,1.02,2.46,1.52,3.69,3.43,8.47,6.54,17.06,9.32,25.77,5.57,17.43,9.79,35.29,12.64,53.37.36,2.26.63,4.54,1,6.79-1.45-8.68-.1-.53.15,1.56.53,4.59.97,9.19,1.32,13.79.71,9.32,1.05,18.67,1.07,28.02.02,13.08,11.48,25.61,25,25s25.03-10.99,25-25c-.15-79.06-24.48-158.04-70.47-222.51-46.19-64.77-110.33-113.96-185.04-141.41s-160.17-30.24-237.27-8.3c-74.28,21.13-142.38,65.15-191.47,124.86-51.4,62.51-82.31,138.59-88.48,219.35-6.06,79.36,13.52,160.6,54.91,228.57,39.86,65.47,99.55,119.43,169.52,151.02,75.37,34.03,159.19,43.64,240.31,27.2,75.8-15.36,146.71-55.02,200.16-110.83,53.81-56.18,90.84-128.83,102.7-205.86,3.17-20.58,5.07-41.27,5.11-62.1.02-13.08-11.52-25.6-25-25s-24.97,10.98-25,25Z"/>
    </g>
    <path class="cls-5" d="M1095.34,590.7c-94.26,132.15-283.93,180.7-444.86,102.96,12.71,1.77,218.07,26.97,343.7-123.78,107.19-128.64,109.47-329.15-3.55-479.43,173.33,115.78,213.27,348.07,104.72,500.25Z"/>
    <path class="cls-3" d="M574.52,194.78c-39.77,49.98-39.86,118-30.88,120.94,7.6,2.49,18.51-42.78,66.9-102.93,40.72-50.61,73.29-68.65,69.48-74.62-4.91-7.69-67.47,8.82-105.5,56.61Z"/>
  </g>
</svg>